{"glyphs":{"0":{"ha":848,"x_min":49,"x_max":826,"o":"m 826 463 q 817 448 815 449 q 819 444 819 446 q 814 427 812 431 q 814 418 815 422 q 808 403 807 407 q 808 396 810 399 q 798 376 798 381 q 795 368 798 372 q 789 357 795 359 q 781 349 784 355 q 787 332 784 338 q 774 304 783 315 q 765 271 765 293 q 751 254 758 269 q 739 232 743 239 q 731 223 736 228 q 734 216 726 218 q 713 193 723 205 q 697 168 704 182 q 678 157 688 164 q 675 148 678 151 q 673 138 671 145 q 665 132 666 137 q 659 123 663 126 q 638 108 643 113 q 628 99 633 103 q 611 87 620 92 q 595 75 602 83 q 581 71 586 75 q 570 62 576 68 q 546 57 551 62 q 526 49 541 52 q 510 46 518 46 q 495 43 502 46 q 479 38 487 41 q 463 35 472 35 q 437 33 444 37 q 426 35 431 28 q 418 31 419 37 q 410 27 416 26 q 403 31 408 31 q 396 35 397 30 q 391 30 391 35 q 385 24 391 24 q 365 22 372 26 q 346 16 358 18 q 329 18 345 16 q 312 19 313 19 q 292 26 301 22 q 271 24 282 30 q 249 32 260 31 q 227 38 237 33 q 208 56 210 50 q 195 65 206 62 q 181 79 189 73 q 171 96 174 85 l 155 96 q 153 104 157 103 q 149 113 148 106 q 130 130 137 119 q 110 146 122 140 q 105 160 111 149 q 96 174 99 171 q 90 178 94 176 q 83 182 85 179 q 80 193 80 187 q 71 199 80 198 q 68 214 73 209 q 62 227 64 220 q 60 241 60 233 q 60 255 61 248 q 54 267 57 262 q 49 277 52 271 q 53 296 49 288 q 57 315 57 304 q 56 332 54 330 q 60 338 58 335 q 61 360 62 349 q 60 382 60 372 q 66 395 60 388 q 62 407 72 401 q 66 415 69 411 q 68 426 62 419 q 74 444 71 442 q 77 449 77 446 q 79 479 79 467 q 85 507 79 492 q 84 529 81 518 q 94 548 87 540 q 94 582 91 564 q 100 598 95 589 q 99 614 104 608 q 106 625 104 618 q 113 635 107 631 l 113 656 q 121 671 115 656 q 126 692 126 686 q 134 703 133 694 q 138 718 136 711 q 149 734 142 724 q 157 753 156 745 q 165 774 159 765 q 174 784 171 784 l 174 803 q 182 810 179 806 q 190 819 186 815 q 203 852 193 841 q 224 883 214 864 q 245 892 231 886 q 260 906 259 899 q 290 911 275 909 q 317 920 304 913 q 331 915 323 913 q 346 917 339 917 q 366 916 353 917 q 384 922 378 914 q 397 920 388 920 q 412 917 406 920 q 449 910 437 909 q 471 901 461 911 q 497 902 481 903 q 521 892 513 901 q 529 893 525 892 q 537 892 533 894 q 573 881 563 882 q 601 869 583 880 q 616 861 612 860 q 623 861 620 863 q 636 855 631 854 q 646 856 642 856 q 673 837 654 840 q 691 810 685 819 q 704 789 697 800 q 713 781 709 783 q 720 770 718 780 q 734 749 728 755 q 745 736 739 743 q 753 723 751 723 q 758 720 755 723 q 763 707 762 713 q 770 694 764 700 l 770 678 q 778 666 776 673 q 787 656 780 659 q 788 648 788 652 q 789 640 788 644 q 798 624 792 631 q 806 606 803 617 q 806 589 807 598 q 808 571 806 581 q 812 552 808 559 q 817 537 817 545 q 823 521 826 522 q 819 515 819 519 q 821 498 817 507 q 819 481 826 488 q 826 463 823 473 m 720 498 q 709 515 712 509 q 713 526 715 521 q 710 536 712 530 q 706 547 708 541 q 707 559 704 552 q 701 566 705 564 q 697 574 696 567 q 691 606 692 594 q 686 628 690 617 q 677 640 684 633 q 670 651 670 646 l 670 675 q 656 696 661 688 q 643 712 651 705 q 635 729 643 715 q 625 745 627 743 q 613 747 617 743 q 601 750 609 751 q 593 758 601 757 q 587 768 586 760 q 570 771 574 765 q 559 784 567 777 q 547 787 552 785 q 537 789 543 788 q 523 798 533 793 q 500 808 513 803 q 477 816 488 812 q 460 819 465 819 q 452 813 457 817 q 445 814 448 810 q 444 804 446 807 q 437 795 441 800 l 412 795 q 386 816 401 810 q 354 826 370 822 q 330 819 347 817 q 302 805 311 806 q 282 798 294 804 q 274 773 282 783 q 266 747 266 764 q 254 733 256 743 q 248 715 252 723 q 239 701 244 708 q 232 686 235 694 q 221 661 224 677 q 216 640 218 644 q 208 623 206 627 q 208 617 209 620 q 201 588 199 598 q 199 567 202 578 q 195 547 198 556 q 197 526 191 537 q 191 519 194 522 q 190 510 189 517 q 193 502 187 502 q 197 495 198 502 q 189 492 189 498 q 182 487 189 486 q 179 454 179 471 q 176 423 179 438 q 173 415 175 419 q 171 407 171 411 q 171 398 170 403 q 171 388 172 393 q 168 365 165 369 q 168 354 171 361 q 162 308 159 331 q 163 260 165 285 q 180 238 174 250 q 193 213 186 227 q 214 191 205 195 q 224 176 222 187 q 251 149 239 155 q 269 130 263 144 q 283 131 275 132 q 293 123 290 130 q 332 117 317 119 q 362 115 347 115 q 388 117 374 114 q 412 118 401 121 q 428 124 419 123 q 445 123 437 125 q 467 130 454 132 q 490 130 479 129 q 505 135 498 132 q 521 136 513 138 q 529 143 524 142 q 537 149 534 144 q 556 149 547 153 q 566 161 559 157 q 579 168 572 165 q 588 180 582 175 q 595 194 594 186 q 605 200 602 195 q 614 205 608 205 q 622 219 616 214 q 628 235 628 224 q 654 269 648 254 q 670 296 659 283 q 676 323 667 313 q 686 349 685 332 q 692 355 692 350 q 700 362 693 359 q 703 379 700 370 q 701 396 705 388 q 711 418 711 404 q 718 444 712 433 q 715 455 716 450 q 712 465 715 460 q 720 480 722 471 q 720 498 718 490 z "},"1":{"ha":312,"x_min":20,"x_max":252,"o":"m 250 662 q 243 642 243 654 q 236 617 244 629 q 236 608 237 614 q 239 601 235 602 q 233 587 229 590 q 239 578 236 583 q 237 542 240 559 q 233 506 235 525 q 233 490 228 492 q 231 469 231 476 q 230 438 231 446 q 222 407 229 430 q 224 397 221 401 q 228 389 227 393 q 228 374 231 381 q 225 359 225 368 q 226 341 222 343 q 228 334 229 339 q 220 313 221 324 q 219 290 220 301 q 216 269 218 279 q 206 251 214 258 q 213 223 212 241 q 203 198 214 205 q 209 178 206 187 q 201 160 212 170 q 205 151 203 155 q 214 145 208 146 q 220 115 217 132 q 233 90 222 98 q 225 77 232 80 q 212 71 218 75 q 203 53 206 54 q 197 49 199 52 q 186 37 191 38 q 183 28 180 37 q 163 26 172 26 q 142 30 153 27 q 139 41 145 39 q 136 52 133 43 q 128 60 132 53 q 123 75 125 66 q 119 90 121 83 q 119 102 118 98 q 121 113 121 109 q 125 123 121 118 q 119 139 122 132 q 114 156 115 146 q 115 182 117 175 q 119 195 113 189 q 117 203 118 199 q 114 212 115 208 q 117 226 119 224 q 117 232 115 228 q 123 249 118 241 q 130 267 129 256 q 128 275 130 271 q 127 282 126 278 q 132 318 129 301 q 136 354 136 335 q 133 373 134 368 q 138 392 132 378 q 136 408 132 404 q 138 420 141 411 q 134 440 130 438 q 138 445 137 442 q 135 454 138 450 q 140 464 132 457 q 138 471 141 467 q 136 479 136 475 q 137 493 134 491 q 140 498 140 495 q 142 512 142 506 q 145 528 141 518 q 146 540 144 540 q 145 551 148 540 q 153 570 155 567 q 149 577 151 572 q 150 591 148 582 q 161 620 152 601 q 157 627 161 625 q 151 633 153 629 q 153 643 152 636 q 155 656 155 650 q 153 669 155 663 q 148 675 152 674 q 126 657 130 665 q 111 647 122 650 q 110 637 114 639 q 106 631 106 636 q 94 631 98 633 q 86 626 90 629 q 80 619 83 623 q 72 614 77 616 q 56 620 62 613 q 39 625 50 627 q 33 640 39 636 q 20 650 26 643 q 39 670 20 670 q 39 680 38 677 q 42 689 41 684 q 61 724 62 701 q 68 728 66 726 q 76 728 69 730 q 79 738 77 735 q 79 747 80 741 q 94 760 90 750 q 95 780 99 769 q 101 785 96 784 q 109 789 106 787 q 121 816 121 806 q 127 836 122 826 q 134 848 130 842 q 136 861 137 853 q 142 869 142 863 q 145 880 142 876 q 159 892 148 883 q 175 907 171 902 q 191 907 182 907 q 203 911 199 906 q 218 907 210 907 q 225 897 225 906 q 236 895 232 898 q 247 894 240 892 q 248 871 252 883 q 250 848 243 859 q 239 819 240 837 q 244 787 237 802 q 241 779 244 781 q 236 772 237 777 q 242 741 247 755 q 239 711 237 726 q 243 699 240 705 q 247 689 247 693 q 247 669 244 673 q 250 662 250 666 z "},"2":{"ha":610,"x_min":34,"x_max":624,"o":"m 624 81 q 623 70 624 75 q 614 65 621 65 l 614 46 q 594 24 604 33 q 568 9 585 16 q 557 -1 562 5 q 545 -4 551 0 q 532 -9 538 -8 q 524 -9 528 -11 q 515 -7 519 -7 q 506 -9 510 -7 q 496 -12 502 -12 q 481 -10 495 -12 q 465 -7 467 -8 q 446 2 450 3 q 438 4 441 1 q 424 16 430 8 q 407 24 418 24 q 397 35 404 31 q 388 46 391 39 q 377 52 381 47 q 366 57 373 56 q 342 79 355 71 q 319 84 328 87 q 288 87 301 87 q 260 76 275 87 q 255 78 258 79 q 250 77 252 77 q 243 80 247 77 q 239 91 240 83 q 227 83 222 87 q 229 76 231 79 q 213 79 218 73 q 198 69 206 72 q 183 62 190 66 q 161 45 168 49 q 149 43 155 42 q 142 38 145 41 q 133 33 138 35 q 99 24 110 28 q 77 15 88 19 q 68 21 71 18 q 56 22 65 24 q 49 39 56 34 q 35 52 42 45 q 38 69 34 62 q 47 81 42 76 q 54 94 52 87 q 56 113 57 100 q 70 117 66 111 q 80 126 73 122 q 92 164 83 146 q 119 193 100 182 q 118 204 115 199 q 125 214 121 209 q 132 223 129 218 q 130 235 134 228 q 141 241 136 239 q 152 248 146 244 l 152 267 q 164 271 160 266 q 176 277 168 275 q 192 303 183 292 q 216 320 201 315 q 227 344 218 335 q 247 362 236 353 q 249 372 247 368 q 258 378 251 377 q 263 392 258 388 q 269 404 269 396 q 277 409 275 404 q 285 415 278 414 q 301 443 292 430 q 321 468 311 456 q 332 488 328 483 q 337 499 335 494 q 341 510 339 505 q 349 519 343 515 l 349 534 q 369 581 369 552 q 382 590 377 589 q 387 603 384 597 q 396 612 389 609 q 398 621 396 614 q 402 635 400 628 q 408 648 404 643 q 415 654 411 654 q 416 663 414 661 q 418 673 419 666 q 432 690 426 675 q 438 713 438 705 q 435 747 438 736 q 430 769 431 758 q 431 782 430 776 q 430 795 433 788 q 425 804 429 800 q 420 814 422 808 q 415 830 418 822 q 410 845 412 838 q 400 849 407 848 q 388 853 393 850 q 366 859 376 859 q 349 856 357 859 q 317 851 326 849 q 298 850 308 853 q 277 842 288 849 q 261 838 270 838 q 242 836 252 838 q 223 826 232 833 q 208 803 214 819 q 188 787 193 800 q 174 764 183 773 q 175 753 176 757 q 171 746 174 750 q 166 738 168 742 q 165 726 164 734 q 153 715 159 719 q 146 703 146 712 q 134 701 140 707 q 125 697 127 696 q 115 703 117 704 q 110 703 113 701 q 103 708 106 704 q 96 715 100 712 q 86 718 91 718 q 77 720 81 718 q 83 741 80 731 q 96 758 87 751 q 96 766 99 761 q 96 774 94 770 q 104 795 104 785 q 107 814 103 804 q 115 831 117 830 q 119 838 114 831 q 130 852 127 853 q 133 853 132 852 q 136 861 136 856 q 144 867 137 865 q 146 874 144 872 q 146 883 148 876 q 157 887 153 882 q 168 891 160 892 q 180 903 174 898 q 191 914 187 907 q 211 917 205 913 q 227 928 217 921 q 254 928 237 925 q 282 936 271 932 q 288 940 285 937 q 296 944 292 943 q 308 944 308 943 q 311 947 308 945 q 331 946 316 948 q 354 944 346 944 q 386 949 369 944 q 418 949 403 954 q 424 945 423 949 q 429 939 425 941 q 446 935 439 940 q 463 928 452 930 q 471 914 463 926 q 481 899 479 902 q 491 882 492 887 q 494 872 490 878 q 496 865 496 869 q 496 856 496 860 q 511 827 506 844 q 524 798 515 811 q 521 787 525 789 q 515 777 517 784 q 519 751 514 764 q 524 726 524 739 q 521 717 524 722 q 518 708 518 712 q 515 678 511 688 q 508 673 510 677 q 502 665 506 669 l 502 644 q 498 636 502 636 q 494 631 495 636 q 493 618 496 623 q 487 606 490 613 q 483 595 484 600 q 479 583 481 590 q 460 551 471 557 q 459 540 461 544 q 457 529 457 536 q 452 521 453 526 q 444 514 450 515 q 431 481 442 492 q 407 458 420 471 q 400 435 407 444 q 391 415 393 427 q 385 410 387 415 q 377 407 384 406 q 373 397 378 400 q 365 387 368 393 q 357 369 357 373 q 357 362 358 365 q 342 345 354 358 q 324 326 330 332 q 319 319 321 321 q 311 317 317 316 q 290 289 297 300 q 277 267 282 278 q 256 254 263 263 q 237 237 248 244 q 231 219 235 228 q 224 201 227 210 q 217 196 220 198 q 210 193 214 194 q 206 177 203 179 q 208 171 209 175 q 198 162 201 168 q 191 149 195 156 q 213 149 198 146 q 232 157 228 151 q 247 157 241 153 q 260 155 252 161 q 269 159 267 155 q 277 165 271 164 q 312 173 293 171 q 349 171 331 175 q 359 166 354 170 q 369 160 363 163 q 379 158 374 159 q 388 155 384 157 q 397 151 393 152 q 407 148 401 149 q 422 135 419 138 q 433 132 426 132 q 457 108 446 113 q 473 91 468 103 q 504 81 488 88 q 537 79 519 75 q 551 85 544 80 q 555 99 557 90 q 575 100 570 96 q 593 107 581 104 q 602 100 597 103 q 609 91 608 98 q 619 90 617 94 q 624 81 621 85 z "},"3":{"ha":629,"x_min":56,"x_max":616,"o":"m 616 373 q 612 356 610 359 q 613 349 613 353 q 612 304 613 330 q 597 266 612 279 q 592 235 597 243 q 587 216 587 228 q 572 196 578 210 q 557 174 567 182 q 549 157 555 161 q 538 149 543 152 q 536 142 540 144 q 533 134 533 140 q 521 127 526 132 q 510 118 515 122 q 505 107 510 110 q 502 94 499 104 q 463 68 476 92 q 446 65 445 71 q 444 60 448 60 q 410 50 420 56 q 391 38 400 45 q 372 24 381 31 q 353 14 363 16 q 341 13 346 12 q 332 14 336 14 q 323 13 328 15 q 308 4 317 11 q 289 5 297 1 q 271 11 281 9 q 259 12 264 12 q 247 11 254 11 q 235 14 240 12 q 222 16 229 16 q 207 16 209 14 q 202 16 205 18 q 193 15 197 16 q 183 11 189 14 q 176 17 180 16 q 167 16 171 18 q 156 27 164 23 q 138 35 148 31 q 119 39 129 38 q 106 43 110 41 q 92 57 98 52 q 83 68 85 62 q 80 77 80 71 q 72 83 80 84 q 69 110 73 95 q 56 134 65 125 q 58 143 56 140 q 61 152 61 146 q 58 161 61 157 q 56 168 56 164 q 58 186 56 178 q 61 205 61 195 q 59 213 61 209 q 58 221 57 217 q 65 240 60 232 q 69 259 71 248 q 77 263 75 260 q 85 269 80 266 q 96 286 88 279 q 109 301 103 292 q 135 316 123 304 q 164 332 146 328 q 193 334 180 336 q 220 332 205 332 q 241 335 231 334 q 263 332 252 336 q 285 315 281 324 q 300 304 289 307 q 301 290 297 296 q 305 279 305 285 q 281 229 300 247 q 264 224 273 227 q 252 210 255 221 q 241 216 248 216 q 228 216 235 217 q 222 225 225 222 q 220 235 218 228 q 206 237 209 232 q 197 243 203 243 q 178 232 186 241 q 161 216 170 222 q 163 208 160 210 q 164 199 167 206 q 154 183 151 197 q 159 163 157 170 q 165 134 161 141 q 167 118 168 127 q 185 112 175 111 q 202 104 195 113 q 223 103 213 106 q 244 99 233 100 q 275 100 259 98 q 305 102 290 102 q 316 100 311 102 q 327 99 321 98 q 343 110 338 102 q 355 126 349 118 q 382 131 376 126 q 393 141 389 136 q 402 141 396 141 q 411 144 408 141 q 419 149 418 142 q 425 157 420 156 q 444 171 439 161 q 460 184 449 180 q 463 195 460 187 q 472 210 467 202 q 481 225 477 218 q 488 235 486 232 q 505 272 500 256 q 510 304 510 288 q 508 312 510 308 q 507 320 506 316 q 511 331 507 324 q 516 345 514 338 q 519 358 518 351 q 515 368 519 365 q 514 385 517 380 q 510 396 511 389 q 510 404 509 400 q 510 412 511 408 q 490 444 505 431 q 467 473 475 456 q 437 475 449 471 q 408 484 425 479 q 385 478 397 479 q 361 477 373 477 q 337 473 349 476 q 319 463 326 471 q 286 456 296 460 q 269 445 275 452 q 231 449 250 444 q 205 473 212 454 q 189 484 193 477 q 191 509 190 495 q 202 529 193 522 q 210 532 205 532 q 217 534 214 532 q 235 547 225 541 q 250 564 244 553 q 266 574 260 567 q 281 587 271 582 q 285 597 281 594 q 286 606 289 600 q 297 611 293 608 q 305 617 301 614 q 327 648 315 637 q 329 658 327 655 q 330 667 331 661 q 342 694 342 686 q 345 709 342 703 q 352 727 347 719 q 358 745 357 735 q 358 759 359 751 q 355 773 357 766 q 356 781 355 777 q 355 789 357 785 q 342 809 353 799 q 324 825 332 819 q 314 827 320 827 q 302 829 308 826 q 285 840 289 840 q 281 845 281 841 q 264 841 273 842 q 247 837 255 840 q 235 828 240 833 q 220 822 229 823 q 205 806 212 815 q 189 792 199 796 q 186 785 189 787 q 186 776 184 783 q 170 768 175 773 q 155 748 165 755 q 141 728 144 741 q 132 730 136 731 q 122 728 127 728 q 106 734 113 730 q 90 742 99 739 q 81 760 90 754 q 72 776 73 765 q 77 784 76 779 q 87 787 79 789 q 89 798 85 793 q 96 806 92 803 q 104 814 100 810 q 111 822 109 818 q 125 840 119 834 q 135 852 130 845 q 144 865 140 859 q 153 872 149 871 q 164 886 161 887 q 170 888 167 886 q 179 897 175 898 q 186 898 183 897 q 197 909 193 902 q 210 920 202 916 q 224 919 220 920 q 230 919 228 918 q 233 922 232 920 q 239 930 235 924 q 248 930 244 926 q 255 936 252 935 q 264 935 259 937 q 274 933 269 933 q 285 935 279 933 q 297 936 290 936 q 317 929 308 935 q 338 930 327 924 q 345 920 336 921 q 355 911 354 920 q 374 900 370 903 q 382 892 378 897 q 398 891 393 895 q 411 883 403 887 q 414 874 412 879 q 411 867 415 869 q 429 850 420 859 q 446 834 437 841 q 451 812 449 823 q 460 792 453 802 q 456 773 456 783 q 457 753 456 764 q 452 730 457 741 q 446 709 448 720 q 445 690 448 694 q 446 681 442 686 q 439 675 439 681 q 433 670 438 670 q 427 637 420 654 q 385 575 399 614 q 416 566 400 566 q 449 567 433 566 q 457 564 456 567 q 464 559 458 560 q 477 559 471 556 q 491 559 484 562 q 511 547 502 556 q 530 540 519 538 q 538 530 532 533 q 549 524 545 528 q 553 515 551 518 q 557 506 556 511 q 566 498 560 498 q 574 492 571 499 q 576 479 576 486 q 579 465 576 472 q 590 452 585 458 q 602 439 595 446 q 607 410 604 418 q 613 393 610 403 q 614 382 614 389 q 616 373 613 376 z "},"4":{"ha":583,"x_min":42,"x_max":541,"o":"m 541 429 q 532 423 538 423 q 522 416 525 423 q 524 407 519 408 q 533 403 528 406 q 529 386 533 387 q 522 384 525 385 q 515 376 517 381 q 511 368 514 372 q 479 366 490 366 q 458 363 469 365 q 455 354 456 359 q 454 343 454 349 q 451 332 453 338 q 445 326 449 327 q 445 305 449 319 q 448 283 441 292 q 443 273 445 278 q 437 262 441 267 q 441 250 441 256 q 445 236 442 243 q 441 206 441 224 q 453 179 442 189 q 454 163 446 170 q 464 148 461 156 q 460 107 457 132 q 477 71 463 83 q 485 52 483 57 q 494 45 487 46 q 486 23 488 35 q 477 4 484 11 q 467 2 471 3 q 456 1 463 1 q 444 -7 449 -1 q 433 -16 439 -14 q 417 -16 425 -19 q 400 -16 410 -12 q 395 -11 397 -14 q 389 -4 392 -8 q 376 16 376 5 q 369 42 377 27 q 360 60 358 54 q 355 68 362 65 q 349 96 355 90 q 347 113 342 103 q 339 122 345 119 q 334 132 334 125 q 338 148 342 145 q 334 153 335 151 q 335 173 336 170 q 334 179 334 176 q 335 191 334 186 q 336 203 336 197 q 334 214 336 210 q 336 225 332 218 q 339 243 339 228 q 339 264 339 259 q 338 273 339 269 q 336 281 336 278 q 342 315 345 302 q 347 339 340 328 q 342 352 345 346 q 345 365 340 358 q 334 372 342 372 q 320 373 326 372 q 292 377 300 380 q 275 373 283 374 q 254 375 267 373 q 236 368 240 377 q 205 368 221 372 q 178 370 190 363 q 170 368 171 372 q 164 363 168 365 q 121 363 146 359 q 84 361 96 368 q 66 368 76 366 q 50 378 56 370 q 47 403 43 389 q 42 427 50 416 q 50 452 47 438 q 62 475 53 467 q 66 490 60 487 q 71 503 72 492 q 81 530 81 521 q 84 549 81 540 q 91 574 92 566 q 100 583 90 583 q 102 603 98 594 q 103 623 107 612 q 116 650 114 633 q 129 677 118 666 q 126 688 125 682 q 130 699 127 693 q 135 709 133 704 q 134 719 137 713 q 145 739 144 726 q 153 758 146 751 q 153 791 152 773 q 164 822 155 808 q 164 848 161 831 q 164 872 167 865 q 178 904 164 897 q 203 921 191 911 q 242 913 222 920 q 273 888 262 907 q 268 852 270 871 q 256 817 266 833 l 262 799 q 258 790 262 793 q 256 777 254 787 q 244 759 245 770 q 233 741 243 747 q 235 732 233 735 q 236 724 237 730 q 230 715 229 722 q 225 705 231 708 q 223 682 225 693 q 222 658 221 670 q 219 650 222 651 q 212 647 216 650 q 213 637 214 642 q 212 628 212 633 q 200 603 205 610 q 195 586 195 595 q 191 578 195 579 q 184 570 187 576 q 188 559 187 567 q 187 549 189 552 q 184 541 187 544 q 180 533 182 537 q 172 498 174 517 q 164 464 170 480 q 200 458 179 456 q 239 461 221 461 q 252 460 245 461 q 264 461 258 460 q 280 460 273 463 q 294 458 288 458 q 321 465 315 465 q 336 467 328 464 q 345 464 345 469 q 350 458 345 458 q 362 469 361 457 q 366 488 363 481 q 370 496 368 492 q 373 503 373 499 q 370 523 374 514 q 363 541 366 532 q 374 567 370 555 q 373 594 377 579 q 378 605 374 601 q 384 616 382 609 q 380 623 387 623 q 376 631 374 624 q 378 652 378 642 q 381 671 378 662 q 389 709 389 693 q 397 735 388 724 q 396 743 399 741 q 395 750 393 745 q 402 760 399 755 q 408 769 406 764 q 407 778 411 777 q 400 783 403 779 q 405 795 399 792 q 414 804 411 798 q 413 830 411 817 q 425 854 415 844 q 426 873 420 863 q 433 894 431 884 q 431 905 433 899 q 433 916 430 910 q 439 928 439 926 q 439 933 438 930 q 465 951 446 944 q 496 955 484 958 q 507 947 502 954 q 517 936 511 940 q 515 907 517 921 q 511 878 513 892 q 499 857 503 861 q 500 852 495 853 q 492 835 494 841 q 489 823 490 829 q 488 812 488 818 q 486 796 487 807 q 479 773 477 781 q 477 758 480 765 q 473 748 475 753 q 469 738 471 743 q 469 718 468 727 q 469 697 471 708 q 465 679 468 688 q 461 661 461 670 q 463 639 464 643 q 461 631 461 635 q 464 614 461 623 q 467 597 467 605 q 466 575 467 586 q 464 553 465 564 q 460 543 463 548 q 458 530 458 537 q 463 509 458 519 q 458 490 467 499 q 478 467 469 469 q 491 456 487 465 q 512 458 499 463 q 533 450 525 453 q 536 440 534 445 q 541 429 538 435 z "},"5":{"ha":732,"x_min":98,"x_max":712,"o":"m 711 350 q 705 316 712 335 q 708 283 699 297 q 703 265 703 277 q 692 251 703 254 q 682 221 685 232 q 669 203 678 210 q 666 197 669 199 q 666 189 663 194 q 648 173 655 182 q 639 151 642 164 q 625 138 632 145 q 620 119 617 130 q 570 90 590 99 q 559 76 566 81 q 545 66 552 71 q 530 56 537 61 q 519 42 524 50 l 498 42 q 487 33 488 33 q 483 34 486 34 q 463 22 475 26 q 439 15 452 19 q 417 7 427 11 q 406 1 407 4 q 385 -1 395 3 q 363 -5 374 -5 q 328 -8 339 -4 q 307 -14 317 -12 q 296 -14 301 -15 q 286 -14 292 -14 q 278 -16 282 -14 q 270 -16 274 -18 q 260 -14 266 -16 q 248 -8 254 -11 q 230 -3 239 -5 q 214 7 221 -1 q 205 7 208 5 q 198 9 203 9 q 183 25 189 18 q 164 34 178 33 q 137 61 153 50 q 138 70 141 66 q 134 79 136 73 q 133 102 137 98 q 132 119 129 107 q 128 140 126 136 q 121 148 130 145 q 125 157 123 153 q 126 167 126 161 q 123 177 126 172 q 121 189 121 182 q 130 215 122 201 q 145 239 137 229 q 151 245 148 241 q 159 247 153 250 q 178 269 174 260 q 190 275 182 277 q 201 292 193 286 q 217 308 210 298 q 231 311 228 305 q 241 320 233 316 q 252 323 245 323 q 264 326 259 324 q 274 330 270 328 q 283 334 278 332 q 294 334 289 335 q 304 334 298 334 q 341 332 330 336 q 366 328 353 327 q 371 321 369 324 q 376 312 373 317 q 394 308 388 315 q 411 302 400 301 q 437 275 419 283 q 442 260 438 266 q 445 244 446 255 q 425 239 431 241 q 426 220 427 229 q 425 201 425 212 q 401 197 418 201 q 378 195 384 193 q 366 205 370 198 q 358 220 361 213 q 350 228 358 227 q 339 233 342 229 q 331 243 334 244 q 326 244 328 241 q 298 246 311 252 q 275 241 286 240 q 269 234 273 236 q 264 225 266 232 q 234 200 245 217 q 212 167 222 183 q 215 160 209 160 q 222 153 221 160 q 218 144 222 146 q 217 134 214 142 q 220 123 220 129 q 222 111 220 117 q 232 98 225 103 q 239 81 239 92 q 254 69 247 76 q 273 61 262 62 q 305 62 289 58 q 336 68 321 66 q 367 71 351 71 q 397 73 382 71 q 415 85 404 83 q 431 98 426 87 q 443 100 439 96 q 453 103 446 104 q 465 111 458 109 q 479 117 472 114 q 491 126 486 121 q 498 140 496 132 q 512 146 507 141 q 521 156 517 151 q 530 166 525 161 q 544 172 536 171 q 545 178 547 175 q 547 189 544 182 q 556 206 559 195 q 576 229 571 214 q 594 254 582 244 q 594 263 591 258 q 600 275 597 269 q 604 290 602 282 q 600 308 605 297 q 607 338 609 328 q 610 355 605 347 q 605 368 605 359 q 605 386 605 377 q 603 401 605 395 q 591 408 601 408 q 579 431 581 425 q 570 438 578 437 q 559 456 570 449 q 538 454 548 454 q 517 453 528 453 q 512 469 519 467 q 498 472 505 472 q 474 483 487 479 q 450 491 461 487 q 440 489 442 494 q 431 486 438 484 q 410 486 419 487 q 387 483 400 486 q 353 475 365 480 q 339 458 342 471 q 332 461 336 461 q 323 461 327 461 q 294 446 309 453 q 270 425 279 439 q 249 418 260 426 q 236 400 237 411 q 219 392 225 399 q 206 378 213 385 q 180 376 195 380 q 156 374 165 372 q 148 382 149 376 q 142 392 146 389 q 115 420 125 411 q 106 450 104 430 q 105 475 107 468 q 111 488 103 481 q 104 515 104 506 q 100 530 103 524 q 107 570 110 548 q 111 610 104 591 q 108 620 107 613 q 103 627 109 627 q 104 688 103 665 q 109 738 106 712 q 110 749 109 745 q 111 761 111 754 q 106 789 110 776 q 114 818 103 803 q 109 845 110 831 q 104 873 107 859 q 100 886 102 880 q 98 899 99 892 q 112 912 109 913 q 115 916 115 911 q 127 928 121 921 q 140 935 133 935 q 154 932 152 935 q 161 929 156 929 q 184 930 176 932 q 201 932 193 929 q 218 937 210 933 q 236 943 227 940 q 256 945 245 944 q 273 952 266 945 q 290 949 282 945 q 307 955 298 954 q 316 954 312 956 q 326 952 320 952 q 347 952 342 955 q 358 949 351 949 q 378 954 369 949 q 397 955 387 958 q 416 952 411 952 q 425 947 420 952 q 446 949 439 954 q 464 940 453 944 q 475 938 469 937 q 486 937 480 939 q 498 932 495 930 q 503 932 500 933 q 513 922 509 929 q 519 910 517 916 q 514 898 517 903 q 500 894 511 892 q 505 876 507 883 q 506 860 503 869 q 494 848 499 853 q 480 841 488 844 q 458 844 469 838 q 437 844 448 849 q 427 853 435 852 q 414 857 419 854 q 404 862 408 860 q 395 865 400 864 q 385 865 389 867 q 373 865 380 864 q 351 868 362 865 q 328 871 339 871 q 311 867 319 869 q 294 863 302 864 q 283 863 288 861 q 273 863 278 864 q 258 859 266 861 q 243 854 250 857 l 225 846 q 214 832 217 841 q 203 818 210 823 q 205 809 208 812 q 201 802 202 806 q 203 793 201 798 q 198 785 205 788 q 206 761 203 773 q 199 743 203 753 q 195 724 195 732 q 200 716 195 722 q 198 708 205 711 q 203 696 198 703 q 201 682 208 689 q 206 670 206 675 q 206 658 206 665 q 209 648 206 652 q 212 639 212 644 q 210 627 212 632 q 206 616 208 623 q 207 597 209 600 q 203 591 205 594 q 205 576 202 583 q 201 552 209 568 q 205 544 205 549 q 204 532 205 538 q 203 520 203 526 q 206 511 203 514 q 218 500 216 496 q 222 509 220 505 q 241 509 232 505 q 259 517 250 514 q 265 522 263 519 q 270 528 267 525 q 280 529 277 525 q 289 536 283 533 q 326 549 312 545 q 350 563 339 553 q 361 563 355 562 q 373 566 368 564 q 391 577 387 579 q 400 575 395 575 q 417 581 410 576 q 434 586 425 586 q 446 584 441 586 q 456 581 450 582 q 486 579 471 578 q 517 575 502 581 q 539 562 530 571 q 564 555 548 552 q 576 547 568 547 q 591 544 585 547 q 604 536 602 534 q 608 536 605 537 q 616 528 610 534 q 631 522 623 521 q 651 499 640 510 q 677 483 662 488 q 677 473 674 476 q 684 467 681 471 q 685 437 680 453 q 700 411 690 422 q 703 387 704 399 q 705 363 703 374 l 711 350 z "},"6":{"ha":761,"x_min":61,"x_max":750,"o":"m 745 323 q 738 297 736 305 q 736 282 739 289 q 728 265 734 273 q 727 245 723 258 q 714 222 718 236 q 700 201 711 208 q 698 193 700 195 q 697 184 696 191 q 687 174 696 184 q 675 160 678 163 q 669 144 671 153 q 658 132 667 134 q 654 119 661 121 q 650 107 647 117 q 635 96 640 103 q 620 85 631 88 q 608 74 614 79 q 600 60 602 69 q 584 58 591 61 q 570 52 576 54 q 551 34 562 42 q 541 23 540 26 q 516 18 528 27 q 490 9 505 8 q 467 -3 480 3 q 442 -4 454 -8 q 429 -10 435 -8 q 419 -18 423 -12 q 399 -20 410 -14 q 381 -20 388 -27 q 373 -22 377 -20 q 365 -26 369 -24 q 350 -26 361 -26 q 328 -27 339 -27 q 307 -25 317 -27 q 296 -18 297 -23 q 282 -22 289 -20 q 267 -23 275 -24 l 248 -4 q 218 10 231 0 q 187 23 206 20 q 173 34 178 30 q 161 38 168 38 q 147 58 149 52 q 137 62 145 64 q 134 73 136 69 q 123 76 132 77 q 105 117 118 99 q 81 157 92 136 q 77 178 80 172 q 71 187 75 183 q 70 200 71 190 q 68 222 69 210 q 65 243 66 233 q 62 254 64 252 q 66 261 65 255 q 68 270 66 267 q 66 278 71 277 q 62 285 61 279 q 68 294 69 286 q 71 304 66 301 q 69 313 69 305 q 70 332 69 321 q 71 350 71 342 q 73 359 72 358 q 72 369 73 365 q 71 378 71 373 q 75 400 71 392 q 76 420 79 408 q 90 456 87 434 q 97 472 94 461 q 103 487 100 483 q 104 494 99 490 q 110 500 109 498 q 113 511 113 505 q 115 522 113 517 q 127 549 126 540 q 132 570 129 559 q 137 578 133 576 q 145 583 141 579 q 151 598 146 593 q 153 614 155 604 q 159 621 160 616 q 161 631 159 627 q 165 637 163 635 q 171 644 168 640 q 180 659 176 651 q 193 670 183 667 q 193 689 194 680 q 202 697 199 692 q 212 705 205 703 q 231 731 212 723 q 241 755 232 746 q 251 779 251 764 q 264 795 259 785 q 275 814 270 804 q 290 826 292 822 q 289 836 288 830 q 304 848 297 842 q 315 867 312 854 q 345 897 336 878 q 366 907 351 899 q 384 922 381 916 q 400 928 392 925 q 411 941 408 930 q 437 947 422 941 q 461 960 453 954 q 491 965 484 962 q 509 966 498 968 q 526 956 519 963 q 538 941 532 948 q 536 926 534 935 q 538 909 538 917 q 532 893 534 899 q 528 886 529 887 q 519 881 525 883 q 519 872 514 879 q 503 873 510 879 q 492 859 496 867 q 484 861 490 864 q 475 859 477 859 q 431 844 452 861 q 397 817 411 826 q 387 800 395 806 q 376 784 378 795 q 367 779 368 785 q 357 774 366 772 q 353 760 358 765 q 345 747 347 754 l 336 734 q 326 703 327 719 q 319 697 320 701 q 312 694 319 693 q 306 682 313 685 q 301 670 298 680 q 277 641 286 656 q 260 609 269 625 q 246 578 252 593 q 243 556 240 563 q 222 517 228 537 q 206 476 216 496 q 199 465 203 469 q 193 453 195 460 q 191 438 190 446 q 184 423 191 430 q 186 414 187 419 q 187 407 184 408 q 178 365 179 384 q 176 326 178 346 q 172 288 174 307 q 167 256 170 269 q 171 244 168 250 q 176 232 174 239 q 179 213 179 222 q 182 195 179 203 q 193 174 191 180 q 198 160 194 167 q 208 147 208 157 q 220 137 209 137 q 223 122 218 126 q 231 110 228 118 q 243 106 237 109 q 259 104 250 103 q 264 96 259 98 q 270 88 269 95 q 290 81 281 85 q 309 76 298 77 q 317 67 313 71 q 326 60 321 64 q 340 61 332 62 q 355 57 349 60 q 361 61 357 61 q 371 60 366 61 q 379 60 376 60 q 384 68 382 61 q 410 65 397 65 q 434 76 423 65 q 442 73 439 76 q 450 73 445 71 q 465 83 457 76 q 483 84 473 90 q 502 96 494 90 q 522 107 510 103 q 545 124 537 117 q 564 134 553 132 q 574 149 566 145 q 581 165 582 153 q 587 169 585 167 q 594 174 590 171 q 598 191 597 190 q 605 195 600 193 q 617 218 606 209 q 631 229 628 228 l 631 245 q 642 258 640 248 q 650 275 643 269 q 648 284 652 282 q 644 293 644 286 q 655 306 655 293 q 658 326 655 319 q 661 341 663 335 q 658 354 658 347 q 659 366 656 361 q 661 378 661 372 q 654 388 659 385 q 655 400 650 391 q 648 418 643 416 q 655 423 652 419 q 647 432 651 429 q 642 442 643 435 q 633 445 637 444 q 625 448 629 446 q 613 463 621 456 q 596 474 605 469 q 581 482 587 479 q 572 490 574 486 q 556 490 564 486 q 541 498 548 495 q 509 494 528 494 q 480 484 490 494 q 463 485 471 487 q 445 484 454 483 q 422 476 429 476 q 411 473 416 476 q 397 459 403 469 q 381 445 392 449 q 372 427 381 431 q 357 415 363 422 q 345 390 349 399 q 342 370 340 381 q 346 357 342 363 q 353 343 350 351 q 334 328 338 343 q 336 319 331 320 q 342 312 340 317 q 350 288 343 301 q 369 286 359 283 q 387 285 378 288 q 396 290 393 286 q 403 298 399 294 q 425 301 408 296 q 450 304 441 307 q 463 292 461 301 q 475 279 464 283 q 458 248 461 267 q 444 241 452 244 q 434 229 437 237 q 401 217 414 228 q 365 209 389 206 q 358 205 362 209 q 350 201 354 202 q 334 201 339 206 q 323 198 330 197 q 307 203 313 198 q 289 209 300 209 q 274 221 278 221 q 267 224 270 221 q 256 239 260 231 q 240 248 251 247 q 228 268 233 255 q 220 290 222 281 q 230 327 227 313 q 231 351 233 340 q 235 359 232 355 q 237 365 237 362 q 238 381 239 372 q 235 397 237 391 q 243 404 240 399 q 248 414 245 408 q 252 425 250 420 q 259 431 254 430 q 268 451 264 448 q 270 461 271 454 q 289 474 281 465 q 307 490 297 483 q 311 505 308 498 q 315 522 315 513 q 334 533 326 528 q 353 545 343 538 q 403 575 387 559 q 413 577 408 575 q 420 572 418 579 q 439 576 427 574 q 463 581 450 579 q 486 585 475 583 q 503 586 496 586 q 513 583 509 585 q 522 583 517 582 q 539 586 530 583 q 556 589 548 589 q 566 585 562 587 q 575 583 570 583 q 583 583 579 582 q 591 583 587 583 q 608 576 600 581 q 625 572 616 572 q 648 549 640 557 q 671 537 656 540 q 677 525 675 524 q 681 525 680 526 q 688 515 686 514 q 692 514 689 515 q 703 503 694 511 q 713 492 711 495 q 728 465 724 481 q 735 434 732 449 q 741 417 736 423 q 739 400 746 411 q 746 382 742 392 q 745 365 750 373 q 743 353 743 362 q 742 340 742 345 q 744 331 742 336 q 745 323 746 326 z "},"7":{"ha":656,"x_min":33,"x_max":666,"o":"m 662 840 q 654 832 655 838 q 646 826 654 826 q 639 806 644 815 q 632 787 633 798 q 623 782 624 788 q 616 773 623 776 q 609 755 612 761 q 605 747 606 751 q 601 739 604 743 q 589 722 595 731 q 576 707 583 713 q 575 699 578 701 q 574 689 572 696 q 559 674 566 684 q 551 656 553 665 q 539 631 545 636 q 534 617 533 625 q 526 609 528 614 q 518 601 525 604 q 503 572 514 585 q 490 543 492 559 q 477 531 483 536 q 468 515 471 526 q 458 511 463 514 q 449 505 454 507 q 450 495 453 498 q 444 489 448 492 q 436 481 439 486 q 435 468 433 476 q 427 456 430 463 q 426 444 425 450 q 418 435 423 444 q 415 423 412 426 q 409 418 410 422 q 401 415 408 414 q 400 404 403 408 q 399 393 397 400 q 394 389 397 391 q 388 382 391 387 q 381 363 381 368 q 380 357 381 359 q 372 348 377 351 q 365 340 368 345 q 363 326 366 331 q 357 315 359 321 q 355 304 354 309 q 354 296 355 300 q 343 270 343 278 q 349 255 343 262 q 337 238 340 248 q 327 221 334 228 q 326 203 326 212 q 321 187 327 195 q 324 175 324 180 q 327 163 324 170 q 319 132 317 149 q 327 102 321 115 q 334 90 330 95 q 340 77 338 84 q 345 63 346 69 q 343 54 345 57 q 326 42 330 50 q 313 30 323 34 q 300 23 304 28 q 290 16 297 18 q 264 35 271 28 q 247 41 258 41 q 237 57 241 49 q 227 72 233 65 q 222 99 227 92 q 216 113 217 106 q 216 124 214 119 q 210 133 217 129 q 216 157 214 144 q 224 179 217 170 q 220 190 220 183 q 218 202 221 197 q 222 212 220 208 q 227 221 225 216 q 224 233 228 229 q 221 243 221 236 q 234 254 229 244 q 235 271 239 264 q 241 282 237 277 q 247 293 244 288 q 256 327 255 313 q 263 351 256 340 q 280 373 277 365 q 290 385 283 381 q 290 397 286 392 q 293 410 293 403 q 307 431 304 418 q 321 452 311 444 q 335 479 330 469 q 345 500 340 490 q 354 519 349 510 q 369 534 359 529 q 374 552 372 544 q 380 568 377 560 q 390 576 387 571 q 396 587 393 581 q 404 592 401 589 q 412 598 407 595 q 418 625 416 610 q 430 631 426 629 q 435 636 434 633 q 437 644 437 639 q 441 656 438 648 q 456 680 449 675 q 463 696 464 685 q 469 703 467 699 q 476 709 472 707 q 490 731 481 724 q 506 758 499 751 q 515 770 513 764 q 520 787 517 787 q 521 792 524 788 q 507 798 518 799 q 491 792 495 798 q 475 795 484 795 q 463 806 465 796 q 437 800 448 800 q 420 806 426 800 q 412 806 416 806 q 404 803 407 806 q 391 810 396 804 q 377 811 387 817 q 372 820 377 818 q 365 826 368 822 q 355 825 359 823 q 346 826 350 827 q 338 824 342 826 q 330 821 334 822 q 318 822 323 821 q 305 821 313 823 q 288 819 290 821 q 282 817 285 817 q 260 813 264 815 q 252 811 256 811 q 227 808 240 808 q 202 806 214 808 q 186 800 194 803 q 171 798 179 798 q 159 800 164 798 q 149 800 155 803 q 144 765 141 781 q 144 739 146 749 q 148 730 145 734 q 152 720 151 726 q 148 709 149 713 q 149 696 146 705 q 138 684 144 688 q 130 675 133 681 q 119 671 122 673 q 117 665 117 669 q 106 665 110 669 q 88 673 103 662 q 79 678 81 677 q 72 686 77 680 q 67 699 69 689 q 63 719 65 708 q 60 739 61 730 q 58 753 58 749 q 62 777 61 764 q 53 798 64 789 q 49 827 52 818 q 41 840 46 836 q 44 848 39 846 q 46 856 49 849 q 39 869 46 867 q 35 883 33 872 q 45 900 37 894 q 56 917 53 906 q 73 916 65 910 q 88 922 80 922 q 109 916 99 922 q 127 903 118 910 q 148 901 138 905 q 168 895 157 897 q 180 897 174 895 q 191 895 186 899 q 200 899 198 895 q 208 903 202 903 q 223 904 213 905 q 237 898 233 903 q 249 903 241 902 q 264 903 256 903 q 279 905 273 903 q 290 911 286 906 q 315 911 302 907 q 340 917 328 916 q 353 916 347 917 q 365 914 358 914 q 382 915 380 917 q 388 911 385 913 q 409 909 397 909 q 427 901 420 909 q 449 901 438 903 q 471 895 460 898 q 479 897 477 894 q 487 901 481 899 q 527 900 514 891 q 555 906 540 909 q 564 904 560 906 q 571 901 567 902 q 593 901 589 903 q 601 898 597 899 q 621 899 618 901 q 627 895 624 897 q 635 897 631 895 q 643 898 639 899 q 653 894 650 898 q 662 887 656 890 q 663 864 666 876 q 662 840 659 852 z "},"8":{"ha":708,"x_min":49,"x_max":677,"o":"m 673 358 q 669 338 670 340 q 667 334 667 336 q 669 324 667 328 q 665 317 671 320 q 667 300 669 311 q 656 286 665 290 q 654 264 656 275 q 640 250 651 254 q 631 215 640 224 q 620 193 623 206 q 612 190 613 194 q 606 186 612 186 q 576 153 589 161 q 562 125 563 145 q 545 121 548 123 q 540 117 543 118 l 526 106 q 512 101 521 102 q 503 87 503 100 q 494 86 496 91 q 490 79 492 81 q 480 75 486 76 q 471 71 475 73 q 464 64 467 68 q 457 58 461 61 q 450 55 456 57 q 437 51 444 53 q 425 47 431 49 q 418 45 419 45 l 388 37 q 370 30 380 37 q 351 26 361 23 q 332 18 340 28 q 321 19 330 19 q 302 18 312 19 q 286 16 293 18 q 279 9 279 14 q 249 10 264 12 q 218 15 233 8 q 174 32 198 22 q 141 53 149 42 q 125 58 129 50 q 110 65 121 66 q 103 80 110 76 q 88 90 96 84 q 89 99 87 95 q 88 106 91 103 q 82 116 87 113 q 72 125 77 119 q 72 136 76 132 q 65 145 68 140 q 66 157 68 152 q 63 167 65 161 q 60 177 61 172 q 62 189 60 182 q 56 199 61 195 q 60 209 50 203 q 49 228 56 218 q 58 268 54 245 q 72 305 61 290 q 75 323 72 315 q 77 342 79 332 q 90 361 88 349 q 102 378 91 373 q 104 395 100 389 q 115 406 109 400 q 116 420 114 419 q 121 425 118 422 q 128 440 123 430 q 136 456 133 450 q 143 465 138 461 q 146 475 148 468 q 157 480 155 473 q 165 488 159 487 q 166 496 164 494 q 168 505 168 499 q 176 510 172 507 q 187 514 180 513 q 202 544 199 529 q 184 555 193 549 q 165 566 175 560 q 149 586 165 579 q 144 602 145 594 q 136 616 144 609 q 134 631 133 623 q 129 642 136 639 q 130 655 133 648 q 129 669 127 662 q 132 687 129 678 q 133 705 134 696 q 134 730 132 722 q 140 748 137 739 q 146 765 142 757 q 152 774 149 773 q 153 785 151 781 q 155 796 156 789 q 163 798 160 795 q 171 802 165 802 q 172 809 170 807 q 174 818 175 811 q 193 841 186 826 q 203 849 199 842 q 213 860 206 856 q 229 868 222 867 q 245 882 236 869 q 268 892 260 888 q 285 897 275 895 q 302 902 294 899 q 317 910 311 905 q 333 910 324 906 q 349 918 342 914 q 418 921 388 933 q 430 926 425 922 q 442 929 435 929 q 449 924 449 929 q 452 916 449 918 q 466 913 458 917 q 481 910 473 910 q 507 907 500 911 q 521 899 514 903 q 545 897 540 899 q 556 891 551 895 q 566 885 567 888 q 567 879 566 882 q 577 873 574 878 q 590 871 581 868 q 599 859 594 864 q 612 854 604 854 q 615 836 612 840 q 620 827 618 833 q 627 823 623 825 q 633 818 631 822 q 633 804 632 812 q 631 793 633 796 q 640 783 633 787 q 648 769 646 779 q 650 747 652 758 q 651 724 647 735 q 643 718 647 722 q 633 711 639 713 q 623 685 629 697 q 606 663 617 673 q 600 651 601 655 q 595 647 600 647 q 592 637 598 642 q 590 631 586 633 q 545 597 566 621 q 561 584 552 589 q 574 570 570 579 q 587 565 582 570 q 598 560 591 560 q 613 541 604 549 q 632 524 623 533 q 648 506 642 515 q 654 491 654 496 q 658 484 656 488 q 665 480 659 480 q 671 441 665 463 q 667 406 677 420 q 673 382 674 393 q 673 358 671 372 m 537 758 q 532 765 533 761 q 526 772 530 769 q 522 789 526 785 q 511 796 517 793 q 504 809 510 806 q 495 819 498 812 q 478 824 486 819 q 463 830 471 829 q 435 831 450 833 q 410 833 420 829 q 391 830 404 826 q 370 833 377 834 q 357 829 363 833 q 343 822 350 825 l 327 818 q 314 809 316 812 q 309 804 312 806 q 288 791 292 795 q 277 788 285 787 q 266 772 274 777 q 251 761 258 768 q 243 740 248 747 q 229 722 237 732 q 231 691 232 707 q 229 661 231 675 q 243 651 236 654 q 248 633 251 648 q 265 625 256 629 q 285 624 274 620 q 294 618 285 617 q 307 616 304 620 q 338 625 320 627 q 373 627 357 623 q 393 631 389 632 q 399 629 396 629 q 414 629 404 628 q 429 633 425 631 q 439 637 434 636 q 449 642 445 639 q 480 667 475 659 q 500 680 486 674 q 503 693 500 686 q 511 703 505 700 q 534 728 530 715 q 532 754 538 741 l 537 758 m 579 358 q 576 367 576 362 q 574 377 576 372 q 570 385 572 380 q 567 392 567 389 q 572 412 575 403 q 572 430 570 420 q 562 440 568 437 q 559 456 556 444 q 539 475 548 465 q 521 496 530 486 q 500 514 507 500 q 481 521 490 515 q 463 530 472 526 q 444 535 453 534 q 423 530 434 536 q 406 534 414 537 q 388 533 397 530 q 377 524 381 528 q 362 522 373 519 q 334 507 351 511 q 304 496 317 503 q 290 478 293 486 q 277 472 288 471 q 260 456 271 461 q 243 441 250 450 q 235 432 239 435 q 227 425 231 429 q 232 408 224 412 q 222 408 225 410 q 216 402 218 406 q 210 395 213 399 q 202 392 208 392 q 202 382 202 388 q 205 374 202 377 q 197 370 198 377 q 197 358 195 362 q 176 323 182 340 q 174 300 171 307 q 167 292 167 298 q 165 281 167 285 q 159 265 159 270 q 157 254 159 260 q 154 243 156 251 q 152 233 152 236 q 156 211 153 216 q 157 201 159 206 q 166 179 161 197 q 168 156 171 161 q 184 137 178 151 q 202 125 195 134 q 218 114 209 117 q 228 112 224 111 q 237 111 232 113 q 258 101 250 102 q 277 100 267 100 q 294 99 286 99 q 304 100 302 99 q 317 108 311 104 q 330 114 323 111 q 370 117 357 111 q 401 125 384 123 q 414 133 406 130 q 431 145 423 136 q 446 151 441 145 q 458 163 452 156 q 473 176 465 170 q 484 186 480 183 q 498 192 495 193 q 503 193 500 191 q 514 203 507 195 q 528 221 521 212 q 540 239 534 231 q 545 254 545 248 q 558 269 553 263 q 564 283 563 275 q 563 300 566 292 q 562 315 560 308 q 574 324 572 319 q 576 335 576 330 q 576 346 576 340 q 579 358 575 351 z "},"9":{"ha":689,"x_min":26,"x_max":669,"o":"m 669 524 q 663 512 666 521 q 658 493 661 503 q 652 473 655 483 q 647 457 650 463 q 640 447 643 450 q 639 434 636 444 q 631 422 631 431 q 623 412 631 414 q 605 368 620 385 l 605 349 q 599 343 601 347 q 596 334 597 339 q 593 326 595 330 q 586 321 591 321 q 587 312 583 315 q 589 304 590 309 q 575 290 583 302 q 564 271 567 277 q 557 250 556 255 q 556 240 559 245 q 549 229 552 236 q 541 221 545 221 l 541 202 q 532 201 534 203 q 528 193 529 198 q 526 184 526 189 q 522 176 525 179 q 508 170 513 178 q 498 157 503 163 q 486 144 486 146 q 483 138 486 141 q 461 120 469 126 q 450 102 453 114 q 425 86 435 91 q 411 69 415 81 q 392 54 393 66 q 380 50 385 54 q 368 43 374 46 q 359 30 362 41 q 346 22 350 28 q 331 16 342 16 q 319 8 324 14 q 307 0 313 3 q 282 9 294 4 q 259 22 270 15 q 249 48 252 37 q 248 77 245 60 q 260 83 258 76 q 273 88 263 90 q 279 94 275 91 q 286 102 283 98 q 320 119 308 115 q 339 136 332 123 q 349 140 343 137 q 361 146 355 142 q 370 155 366 151 q 373 165 374 160 q 384 168 380 164 q 395 171 388 172 q 399 180 397 176 q 400 189 400 183 q 407 194 404 191 q 416 197 410 197 q 428 214 419 208 q 439 232 437 220 q 466 258 458 248 q 477 282 473 269 q 489 301 488 297 q 490 312 490 305 q 499 328 495 320 q 503 346 503 335 q 519 364 514 349 q 528 388 524 380 q 536 412 537 401 q 538 434 536 423 q 545 456 545 450 q 545 468 544 463 q 553 479 548 473 q 559 487 557 484 q 559 505 555 505 q 564 510 564 506 q 566 530 562 521 q 570 548 570 538 q 568 556 570 552 q 567 564 567 560 q 568 575 567 570 q 570 587 570 581 q 566 608 570 598 q 562 629 563 618 q 562 649 560 640 q 562 667 563 658 q 559 675 562 671 q 556 684 557 678 q 555 696 555 696 q 551 709 556 696 q 549 726 548 719 q 545 739 549 734 q 541 753 540 747 q 533 757 543 758 q 532 778 540 766 q 517 795 524 789 q 510 811 511 811 q 506 814 509 811 q 487 829 491 826 q 477 834 483 833 q 457 836 461 833 q 442 837 453 840 q 435 835 439 837 q 427 832 431 833 q 420 833 423 831 q 416 842 416 834 q 384 848 403 844 q 355 842 365 852 q 331 837 335 844 q 315 839 323 842 q 298 834 308 836 q 282 821 288 821 q 271 821 277 822 q 260 817 266 821 q 251 803 255 812 q 239 798 244 804 q 228 789 233 792 q 214 773 214 779 q 206 770 213 768 q 201 760 206 764 q 198 750 197 757 q 182 736 187 745 q 168 728 176 727 q 168 718 171 722 q 161 709 165 713 q 162 700 160 705 q 161 692 164 694 q 144 678 146 682 q 145 667 141 674 q 140 657 141 665 q 137 641 138 650 q 134 623 136 632 q 129 609 133 614 q 132 602 127 602 q 137 595 136 601 q 136 583 134 587 q 140 571 137 578 q 137 569 137 571 q 137 564 137 567 q 137 558 137 560 q 134 556 137 556 q 139 546 137 551 q 148 540 141 541 q 145 519 141 519 q 151 513 149 518 q 150 500 146 506 q 156 487 153 494 q 165 481 167 486 q 164 471 163 476 q 172 465 167 467 q 182 460 178 463 q 199 445 190 446 q 214 439 208 444 q 229 444 221 445 q 243 444 236 442 q 263 451 259 452 q 273 452 267 450 q 292 460 283 454 q 312 468 301 465 q 336 495 316 487 q 338 503 335 500 q 339 513 340 506 q 353 532 350 526 q 361 543 357 538 q 369 553 365 548 q 373 566 373 557 q 385 576 380 570 q 395 587 389 582 q 394 605 396 594 q 389 623 392 616 q 372 631 374 632 q 362 629 370 629 q 335 614 342 629 q 326 590 328 598 q 309 582 315 589 q 294 571 304 575 q 283 576 289 578 q 270 576 277 574 q 260 587 264 583 q 251 593 255 590 q 244 602 247 597 q 240 617 241 606 q 241 634 239 625 q 240 651 244 643 q 253 664 247 658 q 264 678 259 670 q 273 678 271 675 q 281 681 275 681 q 292 696 286 692 q 305 701 300 696 q 317 709 311 707 q 344 714 338 711 q 357 720 350 718 q 373 715 366 719 q 389 720 384 715 q 410 716 396 718 q 423 707 423 715 q 440 703 435 709 q 456 699 445 697 q 462 687 456 690 q 475 681 468 684 q 474 669 471 674 q 484 665 477 665 q 484 656 486 658 q 480 648 481 654 q 483 640 479 644 q 487 629 487 635 q 486 620 488 625 q 484 609 484 614 q 488 595 486 602 q 483 582 490 589 q 486 554 488 563 q 487 537 484 545 q 479 528 479 537 q 469 521 479 518 q 469 512 469 518 q 472 505 468 506 q 466 501 469 498 q 456 503 463 505 q 446 492 449 498 q 434 484 442 487 q 420 458 425 464 q 408 446 415 453 q 404 436 407 439 q 400 426 400 433 q 389 417 392 423 q 381 407 387 411 q 352 391 362 397 q 339 377 342 384 q 321 374 328 380 q 304 365 313 368 q 280 361 293 361 q 256 354 267 362 q 233 355 245 358 q 209 357 221 353 q 165 355 180 350 q 132 357 151 361 q 114 376 122 366 q 95 393 106 387 q 85 416 92 406 q 65 431 79 426 q 49 452 62 448 q 49 467 52 465 q 43 471 46 468 q 41 487 43 487 q 39 490 39 487 q 35 530 33 510 q 28 574 38 551 q 31 584 26 579 q 34 595 37 589 q 32 614 33 609 q 28 623 31 620 q 35 644 35 629 q 43 665 35 658 q 54 701 41 686 q 66 734 54 720 q 90 760 79 749 l 90 776 q 107 799 96 789 q 123 823 118 808 q 161 861 146 838 q 174 867 165 861 q 192 878 182 872 q 212 890 202 884 q 228 898 221 895 q 266 916 245 905 q 304 925 286 926 q 320 939 317 930 q 368 937 343 939 q 416 936 392 936 q 429 935 426 937 q 434 933 431 933 q 450 932 448 935 q 456 930 453 930 q 490 926 479 930 q 514 925 500 922 q 536 910 522 914 q 556 895 549 906 q 564 893 562 895 q 572 892 566 891 q 576 886 572 891 q 585 877 581 882 q 594 868 590 872 q 600 864 598 864 q 600 855 597 857 q 602 848 602 853 q 606 840 606 845 q 612 834 605 834 q 625 811 618 815 q 628 787 620 802 q 639 765 636 773 q 642 754 642 760 q 644 742 643 749 q 648 732 646 736 q 652 723 651 728 q 654 704 655 713 q 661 686 654 694 q 661 674 661 681 q 658 665 661 667 q 664 634 665 650 q 663 604 663 618 q 663 595 662 600 q 666 587 665 591 q 663 559 666 572 q 663 529 659 547 l 669 524 z "},"รฐ":{"ha":574,"x_min":34,"x_max":636,"o":"m 636 27 q 628 18 632 22 q 617 11 624 14 q 597 -28 614 -15 q 583 -26 590 -28 q 568 -26 575 -24 q 559 -31 560 -27 q 552 -38 559 -35 q 528 -37 541 -35 q 509 -31 515 -39 q 494 -33 500 -34 q 483 -28 488 -31 q 471 -21 477 -24 q 458 -18 465 -18 q 449 -3 457 -7 q 438 8 441 0 q 422 19 434 15 q 417 31 420 26 q 412 42 414 35 q 407 48 411 46 q 399 53 403 50 q 363 54 373 64 q 339 39 354 43 q 329 31 334 35 q 319 24 324 27 q 294 20 302 26 q 274 5 286 14 q 250 4 263 7 q 229 8 237 1 q 217 -1 224 0 q 185 3 201 0 q 155 8 170 5 q 149 14 155 14 q 144 19 144 14 q 132 20 137 15 q 123 27 127 26 q 104 35 111 28 q 91 52 98 42 q 78 69 84 61 q 69 81 72 77 q 64 86 66 84 q 58 92 61 88 q 48 124 52 104 q 35 161 45 144 q 37 176 41 168 q 35 191 34 184 q 40 213 41 209 q 39 222 39 217 q 46 255 47 250 q 61 271 45 260 q 62 281 58 273 q 69 300 65 290 q 77 320 73 311 q 81 334 81 330 q 89 339 87 336 q 98 342 91 342 l 98 359 q 110 372 106 363 q 117 388 114 380 q 125 404 121 396 q 136 416 129 411 q 138 426 136 423 q 138 435 141 429 q 155 450 151 438 q 170 467 159 461 q 193 470 190 464 q 203 479 197 476 q 235 484 220 480 q 266 487 250 487 q 275 490 273 487 q 282 495 277 492 q 299 492 289 492 q 316 498 309 492 q 342 487 330 492 q 370 476 355 481 q 376 488 378 480 q 373 503 373 496 q 374 525 373 514 q 373 548 376 536 q 355 549 369 549 q 327 546 342 548 q 299 541 312 544 q 282 537 286 538 q 265 548 274 544 q 245 556 256 552 q 242 569 245 564 q 235 578 239 574 q 229 589 232 583 q 227 604 227 594 q 240 610 233 606 q 245 621 247 613 q 264 627 255 625 q 283 631 274 628 q 296 637 290 633 q 309 642 302 640 q 328 643 324 640 q 338 640 331 646 q 348 645 343 644 q 358 651 353 646 q 355 677 354 667 q 353 697 357 688 q 359 703 355 700 q 362 712 362 707 q 354 724 358 718 q 342 727 350 730 q 337 770 343 750 q 315 808 331 791 q 334 826 323 817 q 343 849 346 836 q 357 854 349 853 q 376 854 366 854 q 396 852 387 853 q 410 853 406 852 q 418 848 412 852 q 425 841 423 844 q 428 821 429 834 q 420 803 427 808 q 425 796 422 799 q 430 791 427 793 q 431 783 431 787 q 431 776 430 779 q 447 752 445 761 q 457 741 449 743 q 456 732 458 735 q 454 723 454 728 q 460 718 461 724 q 464 711 458 711 q 456 688 454 704 q 461 663 458 671 q 467 658 463 659 q 475 656 472 656 q 495 661 487 662 q 500 667 503 661 q 517 664 510 665 q 533 669 525 663 q 559 658 543 665 q 582 643 576 651 q 582 632 583 640 q 585 614 581 624 q 574 595 583 608 q 560 581 566 583 q 552 578 557 578 q 543 575 547 578 q 494 565 514 564 q 460 568 475 566 q 462 549 457 556 q 469 530 467 541 q 469 522 471 525 q 467 513 467 518 q 468 486 469 494 q 469 469 467 477 q 471 430 472 454 q 469 391 471 406 q 467 357 467 373 q 469 326 468 342 q 468 296 469 311 q 461 274 467 282 q 468 248 467 262 q 468 220 469 233 q 465 197 467 208 q 467 180 464 186 q 470 172 472 175 q 469 164 468 168 q 478 144 472 153 q 484 123 484 134 q 498 98 494 104 q 507 85 502 91 q 515 73 511 79 q 515 58 518 66 q 532 54 522 56 q 547 45 543 52 l 591 45 q 600 50 600 45 q 608 53 601 54 q 627 38 625 45 q 636 27 629 31 m 376 305 q 370 338 370 327 q 370 359 370 349 q 351 375 362 370 q 328 388 339 380 q 291 396 309 389 q 254 401 273 403 q 243 391 247 395 q 228 388 239 387 q 216 370 224 377 q 206 351 209 362 q 197 344 201 349 q 189 336 194 339 q 179 309 189 317 q 170 282 170 300 q 157 267 161 275 q 141 255 152 258 q 138 243 141 250 q 133 229 136 236 q 129 216 130 221 q 132 206 127 210 q 130 190 132 198 q 129 175 127 182 q 132 163 130 163 q 132 146 134 163 q 146 123 144 138 q 163 111 157 119 q 178 96 170 103 q 217 87 197 98 q 235 89 227 91 q 254 90 244 87 q 264 93 259 91 q 274 96 269 95 q 290 99 282 99 q 305 102 298 99 q 320 111 313 104 q 336 115 327 118 q 351 133 342 126 q 370 146 361 140 q 369 201 368 174 q 373 256 370 229 q 376 281 374 267 q 376 305 377 294 z "},"ล":{"ha":597,"x_min":-111,"x_max":625,"o":"m 430 575 q 430 554 429 560 q 427 541 431 548 q 433 533 431 538 q 435 525 434 528 q 426 511 426 521 q 391 491 403 505 q 383 492 387 490 q 376 495 380 494 q 351 484 366 486 q 330 469 336 483 q 287 461 308 467 q 247 445 266 456 q 231 447 239 449 q 217 442 224 445 q 214 432 216 437 q 210 420 212 427 q 209 389 212 397 q 214 372 206 381 q 212 364 213 368 q 209 355 210 361 q 209 338 206 347 q 209 320 212 328 q 206 300 205 304 q 208 293 208 297 q 206 260 203 271 q 201 241 209 248 q 205 202 208 221 q 199 163 203 183 q 205 138 206 144 q 208 127 205 133 q 208 113 205 115 q 210 106 212 111 q 242 106 225 103 q 271 106 259 110 q 302 117 286 114 q 332 130 317 119 q 355 130 343 123 q 380 134 368 136 q 395 131 392 129 q 403 132 399 133 q 411 130 407 132 q 420 127 415 127 q 439 124 430 125 q 458 122 449 123 q 471 121 469 119 q 475 122 472 122 q 494 118 491 117 q 500 119 498 119 q 524 116 513 119 q 547 117 536 113 q 561 109 551 110 q 578 103 571 109 q 589 108 585 104 q 598 111 593 111 q 606 90 600 102 q 623 77 612 79 q 623 68 620 71 q 624 60 625 65 q 619 49 623 53 q 612 41 616 45 q 608 31 609 37 q 609 18 606 26 q 583 1 598 9 q 556 7 567 -7 q 536 5 545 3 q 517 4 526 8 q 507 14 514 11 q 496 23 499 16 q 490 19 492 22 q 481 18 487 16 q 475 22 479 19 q 468 26 471 24 q 439 28 448 31 q 422 34 430 26 q 412 31 416 33 q 404 28 408 28 q 378 35 393 38 q 350 38 362 31 q 338 36 345 37 q 328 31 331 35 q 302 33 315 37 q 277 28 290 30 q 269 26 275 23 q 258 20 263 28 q 249 20 254 20 q 241 23 244 20 q 219 14 233 16 q 194 12 205 11 q 178 3 183 9 q 161 0 168 4 q 144 -3 153 -4 q 136 3 137 -3 q 129 9 136 8 q 121 16 121 12 q 114 20 121 19 q 109 58 111 41 q 109 96 106 75 q 106 133 109 118 q 107 161 103 148 q 104 176 99 175 q 110 184 110 178 q 111 205 109 194 q 110 225 113 217 q 109 239 110 239 q 107 241 107 239 q 111 256 109 250 q 107 270 114 262 q 113 300 110 283 q 111 330 117 316 q 119 365 119 345 q 121 403 119 385 q 103 406 111 410 q 88 406 95 403 q 79 397 80 403 q 71 389 77 392 q 63 392 69 396 q 54 392 57 388 q 31 381 43 385 q 6 374 19 377 q -18 367 -7 372 q -39 353 -30 362 q -49 354 -45 357 q -58 351 -53 351 q -70 358 -65 353 q -81 361 -75 363 q -92 378 -85 370 q -109 388 -98 387 q -107 401 -110 395 q -111 415 -104 408 q -98 422 -104 418 q -92 434 -92 426 q -78 436 -87 435 q -72 446 -69 437 l -56 446 q -42 456 -45 450 q -26 458 -38 456 q 1 465 -14 461 q 28 473 15 469 q 43 479 41 476 q 64 481 54 472 q 84 495 75 491 q 95 498 90 498 q 104 500 100 498 q 118 510 114 510 q 119 519 118 515 q 121 525 121 522 q 120 545 122 536 q 126 564 118 555 q 122 578 121 571 q 122 593 123 586 q 120 600 122 597 q 118 608 118 604 q 121 625 118 617 q 123 642 123 633 q 123 663 123 652 q 121 684 122 673 q 118 692 119 688 q 117 700 117 696 q 117 743 114 722 q 117 785 119 764 q 114 795 117 791 q 110 806 111 800 q 111 814 110 810 q 111 822 113 818 q 106 862 104 846 q 100 894 107 878 q 92 913 91 905 q 92 928 92 921 q 98 956 92 948 q 106 972 103 963 q 115 979 113 972 q 125 983 117 985 q 140 987 133 990 q 153 981 146 985 q 166 972 160 977 q 175 967 172 968 q 189 944 183 948 q 197 933 194 940 q 198 902 195 910 q 201 884 201 894 q 202 865 202 869 q 203 854 202 860 q 206 844 205 849 q 203 837 208 840 q 206 826 205 831 q 210 817 208 821 q 203 791 202 798 q 206 766 205 784 q 205 747 208 757 q 205 728 203 738 q 208 711 205 723 q 210 697 210 700 q 209 681 208 685 q 212 673 210 677 q 210 660 212 666 q 209 647 209 654 q 213 633 210 640 q 216 618 216 625 q 214 611 216 614 q 212 604 212 608 q 214 590 212 597 q 216 576 216 583 q 213 569 214 572 q 212 562 212 566 q 212 548 212 555 q 214 534 213 541 q 224 541 224 537 q 229 548 225 544 q 245 549 245 547 q 247 551 244 551 q 262 554 259 555 q 267 555 264 553 q 303 568 288 564 q 326 578 319 572 q 338 593 334 585 q 345 605 342 602 q 368 611 365 608 q 380 616 370 614 q 404 596 396 605 q 425 586 412 587 l 430 575 z "},"ล":{"ha":255,"x_min":-153,"x_max":393,"o":"m 388 450 q 388 429 387 435 q 385 416 389 423 q 391 408 389 414 q 393 400 392 403 q 384 385 384 396 q 349 366 361 381 q 341 366 345 365 q 334 370 338 368 q 309 359 324 361 q 288 345 294 358 q 245 336 266 342 q 206 319 225 330 q 187 321 195 323 q 172 316 179 319 q 170 291 171 304 q 168 264 170 278 q 176 231 175 251 q 175 197 178 212 q 178 157 174 168 q 180 129 183 145 q 195 96 186 104 q 202 75 205 87 q 208 66 205 66 q 217 52 212 66 q 245 46 232 52 q 274 43 259 41 q 281 40 281 43 q 288 35 282 37 q 296 36 292 34 q 302 35 300 38 q 309 30 307 34 q 316 24 312 26 q 316 9 315 19 q 311 -4 317 -1 q 313 -14 313 -11 q 311 -24 312 -18 q 296 -32 300 -24 q 282 -42 292 -39 q 270 -39 277 -39 q 259 -33 263 -38 q 250 -34 255 -35 q 240 -33 245 -33 q 233 -33 236 -33 q 225 -33 229 -34 q 212 -30 218 -34 q 202 -24 206 -26 q 191 -24 197 -23 q 180 -22 184 -26 q 172 -16 175 -15 q 165 -14 168 -16 q 153 -5 159 -11 q 140 4 146 1 l 132 20 q 123 20 125 18 q 115 22 121 22 q 113 41 113 33 q 106 56 113 49 q 100 66 102 60 q 95 77 99 72 q 94 90 92 84 q 92 103 95 96 q 86 116 90 110 q 81 129 83 122 q 84 143 81 137 q 89 156 87 149 q 90 170 91 163 q 84 186 90 176 q 87 207 90 197 q 81 228 84 217 q 83 235 81 231 q 81 243 84 240 q 83 267 81 259 q 84 282 84 275 q 65 283 75 288 q 46 281 56 278 q 38 273 39 278 q 30 264 37 267 q 22 267 28 271 q 12 267 15 263 q -11 256 1 260 q -36 249 -23 252 q -60 241 -49 245 q -81 228 -72 236 q -91 229 -87 231 q -100 227 -95 227 q -111 233 -107 228 q -122 236 -115 239 q -134 252 -127 244 q -151 263 -140 260 q -149 277 -152 270 q -153 290 -146 283 q -140 297 -146 293 q -134 309 -133 301 q -120 311 -129 311 q -114 321 -111 312 q -98 320 -103 321 q -86 326 -87 324 q -84 330 -85 328 q -67 332 -80 330 q -40 339 -54 335 q -14 347 -26 343 q 1 354 -1 351 q 22 356 12 347 q 43 370 33 365 q 53 373 47 373 q 62 376 58 373 q 79 385 75 387 q 87 387 84 384 q 90 423 92 404 q 95 460 87 442 q 90 480 85 467 q 95 503 95 494 q 92 524 90 521 q 92 529 94 526 q 85 570 84 556 q 84 597 87 583 q 85 608 84 602 q 80 616 87 613 q 85 625 80 623 q 90 633 90 627 q 86 643 91 640 q 81 652 81 646 q 90 669 83 662 q 90 688 96 677 q 100 696 94 694 q 109 707 107 699 q 124 701 118 701 q 137 699 130 701 q 148 688 142 693 q 160 681 153 684 q 164 667 163 670 q 163 654 165 665 q 168 639 171 640 q 163 633 164 637 q 165 618 161 627 q 163 602 170 609 q 170 580 171 595 q 171 553 168 564 q 168 546 172 547 q 163 540 164 545 q 170 520 165 533 q 168 500 175 507 q 173 458 176 481 q 176 411 170 434 q 184 416 183 412 q 187 423 184 419 q 203 423 203 422 q 205 426 202 425 q 221 429 218 430 q 227 429 224 427 q 262 444 247 439 q 283 453 278 448 q 296 469 292 460 q 302 480 300 477 q 311 481 308 484 q 317 479 313 479 q 326 486 324 483 q 338 491 328 490 q 362 471 354 480 q 382 461 370 463 l 388 450 z "},"ล":{"ha":742,"x_min":18,"x_max":722,"o":"m 722 312 q 717 304 722 305 q 713 296 712 302 q 709 269 715 281 q 705 241 704 256 q 694 230 697 239 q 685 216 692 221 q 680 189 688 197 q 671 165 673 180 q 661 161 667 161 q 651 156 655 160 q 644 130 647 142 q 637 103 640 117 q 628 96 631 100 q 623 85 625 91 q 593 54 610 68 q 560 26 576 39 q 547 20 553 20 q 536 9 540 19 q 526 9 529 12 q 518 7 524 7 q 502 -5 506 3 q 490 -6 496 -5 q 481 -14 484 -7 q 464 -15 472 -11 q 448 -22 456 -19 q 436 -23 441 -23 q 425 -24 431 -23 q 382 -30 408 -27 q 342 -24 357 -33 q 326 -27 334 -28 q 311 -27 317 -26 q 285 -25 302 -31 q 260 -14 267 -19 q 228 -10 244 -9 q 195 -8 212 -11 q 176 -1 191 -7 q 156 7 160 4 q 150 14 153 9 q 144 20 146 18 q 115 40 129 33 q 88 65 102 47 q 75 83 76 79 q 71 94 73 88 q 58 117 64 104 q 45 140 52 129 q 43 161 47 153 q 34 179 39 168 q 28 196 30 195 q 24 199 26 197 q 22 239 18 213 q 31 278 26 264 q 37 286 34 282 q 42 293 39 289 q 45 305 45 300 q 47 317 45 311 q 58 332 50 326 q 65 349 65 338 q 81 361 75 354 q 87 380 87 369 q 102 382 95 378 q 118 389 110 387 q 123 396 122 392 q 127 403 125 400 q 145 407 136 406 q 161 415 155 408 q 174 414 168 412 q 184 415 179 416 q 195 420 190 418 q 203 426 201 422 q 243 433 221 426 q 281 434 266 441 q 290 439 286 435 q 297 445 293 442 q 319 442 307 442 q 339 449 331 442 q 373 444 353 442 q 408 439 393 445 q 420 433 415 437 q 435 429 426 429 q 464 392 444 406 q 469 373 460 381 q 481 355 477 365 q 484 349 484 353 q 484 340 483 345 q 492 326 487 334 q 500 312 498 317 q 500 303 500 308 q 500 293 499 298 q 502 286 500 290 q 502 278 503 281 q 498 268 502 271 q 492 259 495 264 q 490 246 490 252 q 487 233 490 240 q 472 222 479 229 q 458 208 465 214 q 436 197 444 198 q 419 194 429 197 q 389 190 399 187 q 370 193 380 193 q 355 189 362 191 q 342 187 349 187 q 299 196 317 187 q 260 216 281 205 q 256 227 258 221 q 250 236 254 232 q 241 245 247 243 q 232 252 235 247 q 229 278 229 259 q 232 307 229 297 q 240 310 237 307 q 247 315 243 313 q 267 313 258 317 q 286 315 275 308 q 296 306 293 312 q 308 298 300 300 q 315 278 313 285 q 323 277 320 279 q 331 273 327 274 q 350 269 346 267 q 357 270 354 270 q 374 269 368 270 q 391 278 381 269 q 394 302 393 289 q 391 327 395 316 q 382 333 388 332 q 374 338 377 334 q 371 345 374 342 q 365 351 368 349 l 346 346 q 334 349 343 347 q 313 353 324 351 q 292 354 302 354 q 278 353 282 354 q 267 347 271 351 q 255 343 262 343 q 229 335 239 335 q 212 332 220 335 q 194 324 202 330 q 178 315 186 319 q 145 283 153 301 q 122 244 137 264 q 122 231 122 239 q 127 221 122 224 q 120 204 126 213 q 133 184 114 195 q 138 156 129 168 q 152 130 146 144 q 168 115 159 121 q 180 99 176 110 q 189 100 186 98 q 198 99 193 102 q 203 90 198 92 q 209 80 208 87 q 262 72 229 76 q 312 62 296 68 q 336 56 330 56 q 349 57 342 57 q 359 54 354 56 q 370 54 363 53 q 393 65 380 56 q 440 73 418 64 q 484 94 463 83 q 500 106 495 98 q 518 117 505 114 q 541 144 532 129 q 564 171 549 160 q 571 189 564 183 q 578 208 578 195 q 588 219 585 212 q 594 233 591 227 q 607 247 601 239 q 614 262 613 255 q 614 270 614 266 q 614 278 613 274 q 623 310 617 293 q 627 343 629 327 q 622 356 627 350 q 614 369 617 362 q 610 382 612 374 q 601 392 608 389 q 595 420 601 408 q 580 440 589 431 q 562 458 571 449 q 547 479 552 467 q 523 488 532 481 q 498 494 514 495 q 490 499 495 498 q 481 505 484 500 q 463 505 472 498 q 442 511 453 511 q 428 510 435 513 q 414 505 420 507 q 389 511 403 507 q 365 507 376 514 q 349 512 357 510 q 334 517 340 514 q 323 517 327 519 q 312 514 319 514 q 267 528 278 524 q 243 533 255 532 q 224 532 232 533 q 209 541 216 530 q 180 545 197 538 q 153 559 164 552 q 150 566 151 562 q 146 574 149 571 q 134 583 141 581 q 122 593 127 586 q 119 600 119 595 q 115 608 118 605 q 104 625 110 617 q 91 639 98 632 q 81 655 85 647 q 71 670 76 663 q 71 701 76 686 q 68 731 66 715 q 73 749 71 746 q 76 757 75 753 q 76 767 77 762 q 76 777 75 772 q 79 787 77 783 q 84 798 81 792 q 87 819 87 808 q 91 840 88 829 q 97 859 98 854 q 99 868 96 864 q 106 880 102 875 q 115 891 111 886 q 118 900 118 895 q 121 907 118 905 q 126 916 126 914 q 127 921 126 918 q 136 926 132 925 q 144 936 140 926 q 170 953 155 947 q 198 970 184 959 q 224 976 210 972 q 247 987 239 979 q 264 990 256 986 q 281 1000 273 994 q 297 1010 289 1005 q 315 1017 305 1016 q 349 1019 330 1019 q 382 1032 369 1019 q 404 1028 391 1032 q 425 1029 418 1024 q 452 1031 438 1032 q 479 1032 467 1029 q 501 1035 492 1039 q 515 1032 510 1031 q 528 1033 526 1035 q 533 1029 530 1031 q 548 1025 540 1027 q 563 1019 556 1023 q 580 1009 572 1015 q 598 1001 587 1004 q 604 992 602 997 q 609 983 606 987 q 629 967 623 979 q 648 952 635 955 q 661 922 648 935 q 663 904 659 910 q 671 887 667 898 q 669 850 665 868 q 671 814 673 833 q 665 783 670 796 q 661 749 659 769 q 650 733 654 742 q 637 718 646 724 q 589 695 618 700 q 533 686 559 690 q 522 683 528 685 q 510 681 517 681 q 500 682 505 681 q 490 684 495 684 q 479 681 483 684 q 468 678 475 678 q 440 686 454 678 q 411 692 426 693 q 395 703 396 701 q 393 707 395 705 q 381 716 385 715 q 374 720 377 718 q 371 727 372 723 q 365 732 370 731 q 361 752 368 743 q 351 772 354 761 q 351 812 347 792 q 362 850 355 831 q 383 856 373 854 q 404 863 393 857 q 422 855 411 856 q 439 848 433 854 q 444 821 442 830 q 448 803 445 812 q 452 794 449 796 q 461 788 456 792 q 465 778 464 784 q 468 769 465 772 q 491 768 477 768 q 519 768 505 768 q 546 772 533 769 q 567 780 559 776 q 577 800 572 800 q 583 806 582 799 q 590 837 586 821 q 591 868 594 853 q 580 889 589 882 q 570 907 571 897 q 555 922 563 916 q 541 939 548 929 q 520 945 530 940 q 500 944 510 951 q 492 947 494 944 q 484 952 490 951 q 470 947 477 948 q 458 941 463 947 q 433 936 444 945 q 421 943 426 936 q 411 949 416 949 q 390 939 400 944 q 369 933 380 935 q 359 934 363 933 q 349 933 354 935 q 336 930 342 932 q 324 925 331 928 q 313 923 319 924 q 301 921 308 922 q 291 916 298 920 q 275 906 283 911 q 258 896 266 901 q 247 890 251 891 q 230 880 239 883 q 214 868 221 876 q 208 856 209 863 q 198 848 206 849 q 191 831 195 837 q 190 814 187 825 q 177 787 180 807 q 172 757 174 768 q 168 743 171 750 q 164 728 164 735 q 171 705 164 715 q 180 684 178 696 q 193 669 186 675 q 201 652 199 663 q 231 631 216 637 q 269 624 247 624 q 276 620 271 621 q 283 613 281 618 q 320 605 302 614 q 359 600 342 601 q 388 595 376 600 q 397 598 392 597 q 404 604 401 600 q 416 600 408 601 q 427 605 425 600 q 468 597 446 598 q 510 593 490 595 q 541 585 532 590 q 560 582 549 579 q 565 571 560 574 q 572 562 570 568 q 582 561 578 564 q 591 556 586 557 q 613 549 602 552 q 627 533 624 547 q 646 525 637 530 q 652 511 648 518 q 663 502 656 505 q 680 467 674 480 q 697 445 686 454 q 702 424 700 434 q 705 403 704 414 q 713 395 707 396 q 722 389 719 395 q 720 351 720 370 q 722 312 719 331 m 566 1314 q 553 1299 557 1308 q 540 1283 548 1290 q 539 1272 541 1276 q 537 1263 537 1268 q 517 1234 522 1244 q 500 1218 511 1223 q 494 1200 500 1206 q 480 1187 487 1194 q 475 1175 481 1177 q 472 1161 469 1172 l 457 1161 q 446 1147 450 1154 q 435 1135 442 1141 q 410 1127 422 1135 q 391 1128 395 1130 q 384 1124 387 1127 q 374 1136 376 1128 q 369 1150 373 1143 q 349 1172 361 1161 q 327 1190 338 1183 q 317 1204 327 1200 q 308 1218 308 1207 q 298 1222 305 1217 q 284 1234 292 1227 q 271 1248 277 1241 q 262 1257 264 1255 q 250 1269 250 1267 q 248 1272 251 1271 q 227 1289 235 1279 q 214 1303 218 1298 q 224 1325 217 1318 q 239 1343 232 1332 q 270 1346 254 1347 q 301 1345 286 1345 q 328 1324 316 1335 q 347 1297 340 1313 q 378 1282 369 1294 q 401 1260 387 1270 q 412 1266 410 1260 q 426 1270 415 1272 q 444 1291 434 1290 q 454 1306 445 1295 q 467 1320 463 1317 q 467 1329 465 1326 q 472 1335 469 1331 q 507 1343 483 1344 q 545 1343 530 1341 q 566 1314 562 1331 z "},"ลก":{"ha":486,"x_min":42,"x_max":487,"o":"m 483 206 q 486 145 486 178 q 472 87 487 113 q 465 62 467 71 q 456 50 464 53 q 452 34 457 38 q 441 22 446 30 q 423 19 433 22 q 407 14 414 16 q 399 5 401 3 q 391 5 396 8 q 366 -4 377 -4 q 347 -4 354 -4 q 337 -12 342 -8 q 331 -23 332 -15 q 323 -21 324 -26 q 316 -15 321 -16 q 299 -15 304 -20 q 285 -9 294 -9 q 273 -13 279 -9 q 261 -19 267 -16 q 249 -22 255 -22 q 237 -18 243 -23 q 229 -22 231 -18 q 220 -26 227 -26 q 191 -22 205 -24 q 163 -23 178 -20 q 151 -16 160 -16 q 137 -15 142 -15 q 131 -9 136 -9 q 126 -4 126 -9 q 111 -1 121 -7 q 95 8 100 5 q 80 24 90 15 q 69 37 71 34 q 67 47 66 41 q 61 56 68 53 q 60 68 61 65 q 58 74 60 72 q 54 78 57 76 q 47 87 52 80 q 47 101 50 94 q 47 115 43 109 q 43 130 43 119 q 43 151 42 140 q 46 174 43 163 q 50 190 49 184 q 72 207 62 197 q 95 224 81 217 q 123 215 107 218 q 146 201 138 212 q 146 185 142 191 q 144 174 149 179 q 134 159 144 160 q 135 145 133 152 q 132 133 137 138 q 135 120 137 122 q 134 115 133 118 q 141 104 136 109 q 146 90 146 99 q 174 75 159 79 q 203 65 190 71 q 214 66 208 66 q 220 73 220 66 q 236 71 227 71 q 251 79 245 72 q 269 77 259 79 q 290 76 279 76 q 309 79 300 76 q 321 91 317 81 q 348 96 339 91 q 362 109 357 102 q 372 124 368 117 q 387 136 377 132 q 390 149 387 144 q 391 164 393 153 q 381 174 389 172 q 368 180 373 175 q 354 201 365 195 q 334 217 343 206 q 311 218 317 214 q 290 229 304 222 q 279 233 285 232 q 269 237 274 235 q 259 236 262 239 q 251 229 256 233 q 243 238 248 236 q 232 243 237 240 q 199 243 217 243 q 170 255 182 244 q 159 256 164 256 q 149 258 155 256 q 132 271 145 271 q 127 281 129 277 q 118 283 125 285 q 114 297 117 290 q 103 305 111 304 q 96 328 102 317 q 90 351 91 339 q 91 371 92 368 q 90 377 90 374 q 98 411 91 395 q 106 445 104 427 q 117 456 114 448 q 121 471 119 464 q 134 490 134 475 q 149 494 145 488 q 160 505 153 499 q 171 506 167 502 q 180 513 175 510 q 193 514 187 515 q 203 515 198 513 q 216 522 210 518 q 228 526 221 525 q 235 527 228 526 q 252 528 243 528 q 270 528 262 528 q 279 529 278 529 q 300 525 290 528 q 321 524 311 522 q 338 528 330 524 q 355 529 346 532 q 365 515 361 524 q 377 513 373 515 q 385 506 381 510 q 391 498 388 502 q 401 495 395 495 q 406 485 401 490 q 412 476 410 480 q 421 454 420 468 q 423 430 422 441 q 414 422 419 426 q 407 414 410 419 q 402 404 404 410 q 393 399 400 397 q 382 389 384 385 q 378 395 380 392 q 372 398 376 397 q 358 391 368 399 q 340 408 349 401 q 328 430 331 414 q 313 435 323 435 q 297 442 302 435 q 277 437 290 441 q 256 439 263 433 q 248 435 250 441 q 235 433 245 430 q 229 426 231 430 q 225 419 228 422 q 203 404 213 418 q 197 377 194 389 q 189 355 186 358 q 197 346 193 351 q 214 334 208 332 q 235 328 221 335 q 256 326 250 330 q 269 320 263 323 q 279 324 274 323 q 288 328 283 326 q 315 318 301 321 q 342 308 328 315 q 353 302 349 305 q 365 297 358 300 q 382 292 377 293 q 387 283 387 290 q 407 279 400 286 q 425 271 414 273 q 442 251 431 264 q 461 235 453 237 q 469 219 463 224 q 483 206 476 214 m 427 815 q 414 800 419 808 q 401 784 410 791 q 401 773 403 777 q 399 764 399 769 q 378 734 384 745 q 362 719 373 724 q 355 701 362 707 q 342 688 349 694 q 337 675 343 678 q 334 662 331 673 l 319 662 q 308 648 312 655 q 297 636 304 642 q 271 628 283 636 q 252 629 256 631 q 245 625 248 628 q 236 637 237 629 q 231 651 235 644 q 211 673 222 662 q 189 690 199 684 q 179 705 189 701 q 170 719 170 708 q 160 723 167 718 q 146 735 153 728 q 132 749 138 742 q 123 758 126 755 q 112 770 111 768 q 110 773 113 772 q 88 789 96 780 q 76 804 80 799 q 86 826 79 819 q 100 844 94 833 q 132 847 115 848 q 163 846 148 846 q 190 825 178 836 q 209 798 202 814 q 239 783 231 795 q 263 761 248 770 q 274 767 271 761 q 288 770 277 773 q 305 792 296 791 q 315 807 307 796 q 328 821 324 818 q 329 829 327 827 q 334 836 331 831 q 368 844 345 845 q 407 844 392 842 q 427 815 423 831 z "},"ร":{"ha":1004,"x_min":-114,"x_max":990,"o":"m 989 244 q 985 218 983 224 q 985 208 986 213 q 977 182 982 201 q 967 160 972 164 q 964 142 966 148 q 955 136 962 136 q 952 123 958 129 q 954 113 947 118 q 943 105 951 106 q 939 91 936 104 q 924 78 926 84 q 918 66 922 72 q 910 54 914 60 q 903 47 906 49 q 898 40 901 43 q 894 33 895 37 q 871 15 879 26 q 845 1 863 4 q 842 -6 844 -4 q 841 -15 840 -8 q 821 -17 834 -11 q 802 -28 807 -23 q 774 -44 791 -41 q 746 -60 757 -47 q 737 -62 742 -61 q 730 -65 732 -62 q 719 -69 726 -68 q 705 -72 712 -71 q 693 -77 699 -73 q 686 -85 688 -80 q 673 -82 680 -76 q 659 -91 666 -88 q 646 -91 652 -94 q 632 -85 639 -88 q 603 -100 612 -96 q 585 -104 594 -103 q 566 -107 570 -106 q 560 -110 563 -109 q 549 -109 555 -110 q 538 -107 544 -107 q 519 -108 532 -107 q 493 -108 506 -109 q 469 -104 480 -107 q 452 -96 457 -102 q 425 -95 433 -99 q 411 -91 418 -91 q 381 -93 396 -91 q 355 -80 366 -95 q 332 -75 340 -80 q 312 -62 323 -69 q 306 -52 309 -56 q 300 -41 302 -47 q 282 -33 288 -41 q 263 -26 277 -24 q 255 -12 259 -19 q 241 -4 251 -5 q 237 3 241 -3 q 228 14 233 8 q 218 25 222 20 q 212 30 213 30 q 193 77 209 58 q 194 101 197 92 q 189 122 191 110 q 185 144 187 140 q 183 153 183 148 q 184 162 183 157 q 186 171 186 167 q 184 184 186 178 q 189 198 182 191 q 188 220 183 209 q 195 243 193 232 q 209 254 205 245 q 220 269 213 262 q 237 264 231 266 q 256 266 244 263 q 260 250 258 259 q 273 240 262 240 q 273 223 274 235 q 272 201 273 212 q 272 182 271 190 q 278 174 273 174 q 276 149 277 155 q 278 140 275 142 q 281 131 282 134 q 279 125 279 127 q 284 113 281 118 q 290 103 288 109 q 297 81 293 83 q 304 75 301 80 q 309 64 307 71 q 319 58 311 58 q 323 44 319 49 q 334 36 328 39 q 346 29 340 33 q 355 19 351 26 q 378 15 370 15 q 389 8 385 15 q 397 9 395 7 q 406 11 400 12 q 429 -3 420 -4 q 445 -4 437 -1 q 454 1 450 -3 q 464 5 457 4 q 486 -7 477 -5 q 502 -11 494 -9 q 516 -11 510 -12 q 526 -1 522 -9 q 537 -5 532 -4 q 548 -9 543 -7 q 561 -9 555 -7 q 570 -4 567 -11 q 585 -9 585 -9 q 589 -7 586 -8 q 595 -8 594 -7 q 604 -7 597 -9 q 612 -3 604 -4 q 623 1 620 -3 q 665 8 646 -3 q 705 22 684 19 q 712 29 709 24 q 718 38 715 34 q 727 36 720 31 q 742 41 734 41 q 761 57 755 56 q 773 61 766 58 q 788 73 781 65 q 804 83 795 80 q 819 102 817 98 q 830 110 822 107 q 834 115 834 111 q 835 121 834 118 q 838 127 836 125 q 849 127 841 129 q 857 140 850 130 q 869 161 863 151 q 882 182 876 172 q 887 194 887 191 q 890 211 888 210 q 892 214 892 212 q 890 238 894 222 q 898 262 887 254 q 895 277 894 269 q 892 292 895 285 q 889 299 891 296 q 886 307 887 302 l 880 323 q 878 340 878 334 q 871 357 878 347 q 870 369 868 359 q 865 381 872 378 q 861 401 865 392 q 854 422 856 411 q 848 431 852 426 q 841 439 845 435 q 833 418 829 433 q 826 411 827 416 q 826 400 825 406 q 819 395 822 397 q 811 389 815 392 q 804 367 812 374 q 795 345 795 359 q 773 313 776 336 q 764 310 765 316 q 755 305 762 304 q 744 291 753 302 q 734 279 735 279 q 722 260 724 263 q 709 252 711 251 q 705 250 707 252 q 690 235 690 244 q 674 229 685 232 q 662 218 663 227 q 629 214 646 220 q 594 208 613 209 q 585 203 589 208 q 575 198 581 199 q 559 203 570 203 q 544 201 549 203 q 532 210 541 206 q 519 210 524 214 q 439 240 471 214 q 425 242 431 239 q 412 250 419 245 q 399 258 406 254 q 384 263 392 262 q 370 279 377 271 q 353 289 363 286 q 350 294 350 293 q 350 297 350 296 q 349 300 350 298 q 345 308 349 302 q 333 331 342 323 q 321 350 324 339 q 319 376 321 368 q 309 392 316 385 q 309 407 312 399 q 301 420 307 415 q 303 429 300 427 q 307 437 307 430 q 307 461 307 446 q 309 484 307 476 q 302 500 304 496 q 297 505 300 503 q 305 541 308 526 q 309 566 302 556 q 307 572 309 570 q 307 581 305 574 q 311 597 308 594 q 313 605 313 601 q 315 629 316 621 q 313 652 313 637 q 316 663 315 658 q 316 675 317 669 q 311 717 309 703 q 307 743 313 731 q 311 758 313 749 q 309 773 308 766 q 311 781 309 777 q 313 788 313 784 q 312 814 315 800 q 316 838 309 827 q 309 857 316 846 q 309 869 313 869 q 300 872 305 868 q 294 886 298 880 q 288 899 289 891 q 273 905 281 902 q 260 914 266 907 q 248 913 254 913 q 236 920 241 913 q 210 916 227 917 q 186 925 193 916 q 167 920 178 922 q 152 909 156 918 q 121 909 137 911 q 94 897 106 906 q 79 896 84 898 q 68 890 73 894 q 59 884 64 887 q 46 880 54 880 q 28 863 31 872 q 14 844 26 853 q 4 831 5 836 q 2 821 3 826 q 1 810 1 815 q -4 804 0 806 q -16 777 -7 789 q -22 747 -26 764 q -23 732 -20 742 q -19 720 -26 723 q -19 705 -22 712 q -16 689 -16 697 q 2 667 -1 670 q 9 664 5 663 q 16 667 12 665 q 22 670 19 670 q 24 663 22 665 q 31 662 27 662 q 37 661 34 662 q 41 656 41 661 q 60 657 52 663 q 79 656 69 651 q 86 660 84 659 q 90 661 88 661 q 92 661 91 661 q 99 662 94 661 q 109 668 106 663 q 118 675 113 673 q 124 699 115 693 q 134 718 133 705 q 135 728 136 722 q 130 736 134 734 q 135 745 133 743 q 138 747 137 746 q 138 751 138 747 q 133 765 137 754 q 104 767 121 762 q 81 783 88 772 q 75 801 77 799 q 75 807 73 803 l 81 821 q 98 834 91 833 q 102 844 104 836 q 116 849 113 844 q 137 852 119 854 q 151 855 146 854 q 161 854 156 856 q 177 844 168 852 q 190 830 186 836 q 210 802 205 817 q 215 773 214 788 q 214 742 216 758 q 214 709 213 726 q 205 686 202 704 q 196 671 197 686 q 193 650 195 655 q 182 633 190 643 q 171 616 174 624 q 146 597 153 616 q 142 598 144 600 q 137 595 140 597 q 131 592 134 593 q 125 594 127 591 q 85 574 107 574 q 39 576 62 575 q 25 576 33 576 q 11 575 18 575 q 3 578 8 575 q -4 583 -1 581 q -47 594 -26 595 q -61 612 -52 605 q -76 612 -69 610 q -80 625 -77 625 q -85 633 -83 625 q -94 654 -90 650 q -94 662 -95 658 q -94 670 -92 666 q -104 684 -95 677 q -109 697 -114 690 q -102 714 -102 713 q -106 722 -103 715 q -106 736 -103 730 q -111 750 -109 743 q -104 762 -113 757 q -102 773 -96 768 q -97 796 -99 781 q -96 819 -95 811 q -85 839 -85 826 q -80 861 -84 852 q -73 867 -77 865 q -72 875 -69 869 q -66 881 -69 878 q -58 886 -62 884 q -55 896 -58 892 q -53 906 -52 899 q -43 908 -45 905 q -39 916 -41 911 q -35 922 -38 920 q -23 924 -31 925 q -13 933 -20 925 q -7 944 -5 941 q 8 945 4 944 q 14 947 12 945 q 16 953 15 949 q 22 960 16 956 q 37 970 26 962 q 47 983 49 979 q 66 985 58 977 q 84 990 75 993 q 114 1002 109 998 q 130 1009 119 1005 q 163 1010 151 1008 q 189 1015 176 1012 q 217 1015 212 1009 q 227 1010 221 1008 q 239 1012 232 1012 q 262 1006 256 1012 q 275 1006 269 1001 q 302 994 292 993 q 312 983 312 994 q 355 959 339 967 q 374 947 372 952 q 387 941 377 941 q 399 914 389 926 q 406 886 410 902 l 412 869 q 410 856 410 863 q 406 844 410 849 q 410 821 407 833 q 412 799 414 810 q 410 791 412 795 q 408 783 408 788 q 410 775 408 779 q 411 768 411 772 q 406 751 404 754 q 408 746 408 749 q 409 709 404 723 q 412 681 414 696 q 412 656 412 669 q 411 631 411 643 q 410 620 411 627 q 407 605 408 613 q 405 590 406 597 q 406 581 404 583 q 411 563 407 568 q 406 528 404 538 q 400 507 407 518 q 405 469 403 481 q 406 442 407 456 q 412 418 410 425 q 420 406 415 411 q 420 391 418 396 q 425 378 422 387 q 433 374 430 376 q 442 373 435 372 q 443 355 441 365 q 452 339 445 346 q 458 338 454 336 q 467 336 463 339 q 478 328 471 330 q 492 324 486 327 q 502 313 495 317 q 514 308 509 309 q 521 310 518 307 q 529 313 524 313 q 541 310 536 313 q 553 305 547 307 q 587 306 574 311 q 613 305 600 301 q 631 312 628 312 q 637 313 635 312 q 658 332 648 319 q 677 345 667 345 q 678 355 678 350 q 681 363 678 359 q 693 371 688 368 q 705 376 699 374 q 709 390 708 382 q 718 400 711 397 q 720 415 715 411 q 734 434 732 429 q 736 445 736 439 q 746 456 745 448 q 755 468 747 465 q 754 481 754 477 q 755 487 754 486 q 757 489 755 488 q 758 494 758 490 q 757 505 760 500 q 755 521 754 510 q 760 530 758 528 q 765 538 762 533 q 766 568 764 552 q 765 594 769 583 q 766 616 762 605 q 776 636 770 628 q 772 652 773 643 q 765 667 770 661 q 769 677 768 673 q 773 689 770 682 q 773 698 776 694 q 770 707 770 701 q 771 724 773 722 q 768 731 769 727 q 769 768 770 754 q 758 788 768 781 q 761 811 765 798 q 755 836 757 825 q 753 879 753 859 q 749 922 754 899 q 751 939 746 930 q 745 947 747 943 q 739 956 742 952 q 743 972 745 963 q 739 987 742 981 q 747 1013 743 1001 q 751 1035 751 1024 q 788 1036 769 1040 q 817 1029 807 1032 q 823 1023 822 1028 q 826 1015 823 1019 q 831 1008 830 1012 q 836 1001 833 1004 q 836 972 838 989 q 841 945 834 956 q 836 929 834 941 q 842 911 838 917 q 840 901 841 906 q 838 891 838 897 q 842 880 838 884 q 841 869 846 876 q 848 848 848 860 q 850 822 848 836 q 855 798 852 808 q 863 785 859 787 q 857 765 857 774 q 861 751 857 758 q 865 736 864 743 q 865 715 867 726 q 867 694 863 704 q 861 671 860 685 q 875 655 863 658 q 875 626 872 635 q 879 610 878 617 q 880 576 882 587 q 898 547 879 566 q 901 531 899 533 q 906 529 902 529 q 905 515 903 525 q 910 502 907 506 q 916 496 913 498 q 922 490 920 494 q 928 476 926 476 q 932 473 930 476 q 935 465 935 469 q 943 457 936 460 q 949 435 941 446 q 959 411 956 423 q 966 378 962 395 q 975 350 971 361 q 977 341 974 345 q 982 334 981 338 q 984 319 983 330 q 985 296 985 308 q 986 274 986 283 q 986 264 986 264 q 989 249 989 251 q 989 244 990 247 m 765 1295 q 755 1287 761 1294 q 754 1278 750 1280 q 739 1267 747 1271 q 728 1252 730 1263 q 715 1246 719 1248 q 711 1244 712 1245 q 709 1240 711 1242 q 703 1236 708 1238 q 691 1230 690 1232 q 689 1226 692 1227 q 678 1219 680 1223 q 674 1213 677 1215 q 656 1195 661 1202 q 646 1181 651 1188 q 623 1175 636 1184 q 612 1156 610 1165 q 597 1147 602 1153 q 583 1137 591 1141 q 570 1128 574 1131 q 559 1127 566 1126 q 544 1116 551 1123 q 528 1105 537 1109 q 503 1105 510 1107 q 490 1105 496 1103 q 481 1113 484 1108 q 473 1116 479 1118 q 471 1130 476 1126 q 471 1139 465 1134 q 467 1167 460 1153 q 479 1195 475 1181 q 489 1198 484 1195 q 499 1202 494 1200 q 521 1211 509 1206 q 533 1226 533 1217 q 549 1237 549 1233 q 552 1244 549 1241 q 562 1249 559 1245 q 572 1255 566 1253 q 582 1261 578 1259 q 586 1272 586 1264 q 595 1276 593 1271 q 604 1283 597 1280 q 614 1294 610 1291 q 621 1301 618 1297 q 627 1308 624 1305 q 635 1314 629 1312 q 665 1337 654 1326 q 684 1363 675 1348 q 702 1362 693 1360 q 718 1358 711 1364 q 726 1361 722 1360 q 728 1369 730 1362 q 754 1348 739 1351 q 766 1322 762 1335 q 765 1295 769 1310 z "},"รฝ":{"ha":604,"x_min":41,"x_max":576,"o":"m 576 -193 q 568 -207 570 -199 q 571 -216 567 -214 q 565 -222 570 -221 q 557 -228 560 -224 q 556 -235 555 -231 q 555 -244 557 -240 q 528 -273 540 -262 q 515 -301 517 -285 q 507 -306 510 -302 q 499 -309 505 -309 q 490 -317 496 -312 q 477 -328 484 -321 q 463 -338 469 -334 q 453 -345 456 -343 q 446 -354 450 -351 q 439 -363 441 -357 q 392 -389 414 -368 q 357 -389 376 -391 q 347 -393 350 -388 q 339 -400 345 -397 q 330 -400 335 -401 q 323 -401 326 -399 q 283 -412 301 -414 q 245 -410 264 -410 q 222 -410 235 -410 q 198 -410 210 -411 q 175 -406 186 -410 q 157 -392 164 -401 q 147 -393 152 -395 q 138 -390 142 -392 q 127 -387 133 -388 q 117 -389 122 -385 q 109 -380 115 -382 q 100 -373 103 -378 q 83 -363 88 -365 q 76 -357 79 -361 q 71 -351 73 -354 q 64 -347 69 -347 q 57 -323 64 -340 q 47 -298 50 -305 q 43 -285 41 -286 q 45 -281 45 -283 l 47 -259 q 60 -233 50 -239 q 66 -213 69 -228 q 76 -194 79 -209 l 95 -184 q 119 -164 100 -168 q 128 -151 122 -155 q 133 -136 134 -146 q 149 -132 141 -133 q 164 -127 157 -130 q 174 -120 168 -122 q 178 -109 179 -118 q 205 -107 193 -110 q 232 -106 218 -104 q 245 -111 239 -107 q 258 -111 251 -114 q 273 -123 262 -121 q 290 -127 283 -125 q 291 -138 289 -133 q 293 -148 293 -142 q 297 -157 293 -155 q 304 -164 301 -159 q 305 -174 307 -168 q 309 -184 304 -180 q 302 -195 309 -191 q 290 -202 294 -199 q 283 -212 288 -205 q 274 -221 278 -218 q 232 -210 241 -228 q 212 -209 214 -205 q 205 -218 209 -213 q 198 -216 202 -214 q 189 -218 194 -218 l 152 -241 q 150 -260 152 -256 q 145 -265 148 -264 q 140 -269 142 -266 q 138 -282 138 -271 q 141 -290 136 -289 q 149 -293 146 -290 q 159 -309 156 -308 q 164 -312 161 -309 q 182 -317 178 -319 q 199 -319 187 -316 q 251 -328 229 -328 q 290 -324 273 -327 q 311 -315 304 -316 q 323 -313 317 -315 q 334 -308 330 -311 q 339 -301 339 -305 q 355 -302 347 -305 q 371 -294 363 -300 q 385 -281 378 -288 q 397 -270 392 -274 q 408 -266 401 -267 q 414 -256 415 -264 q 421 -254 419 -258 q 429 -252 423 -251 q 433 -240 429 -244 q 437 -228 438 -236 q 454 -219 448 -227 q 465 -201 461 -212 q 470 -180 468 -191 q 475 -161 472 -170 q 469 -141 472 -153 q 475 -122 467 -129 q 468 -96 469 -110 q 461 -71 467 -83 q 450 -33 452 -47 q 437 -11 449 -19 q 433 20 442 5 q 425 49 425 34 q 420 56 423 56 q 416 62 416 57 q 416 71 414 66 q 411 80 418 76 q 397 78 403 84 q 384 69 392 72 q 356 49 365 56 q 339 35 347 42 q 320 35 328 38 q 301 30 312 31 q 267 31 277 34 q 245 30 256 27 q 210 41 227 38 q 186 43 194 43 q 178 47 179 43 q 174 54 178 52 q 157 54 164 50 q 142 65 151 57 q 124 83 133 73 q 108 102 115 92 q 96 118 100 111 q 94 130 95 129 q 91 134 92 132 q 83 155 85 144 q 77 175 80 165 q 82 195 84 182 q 80 217 80 209 q 84 241 80 229 q 88 266 88 254 q 87 288 88 277 q 96 308 85 300 q 95 339 96 323 q 96 370 94 355 q 102 396 98 381 q 96 419 106 411 q 99 427 99 422 q 100 435 99 431 q 106 445 107 442 q 106 450 104 448 q 123 464 118 460 q 138 471 129 468 q 149 467 144 471 q 157 464 153 464 q 172 463 164 463 q 186 461 179 463 l 197 448 q 203 425 203 438 q 197 401 203 411 q 198 382 197 393 q 191 365 199 370 q 194 344 193 351 q 194 331 195 336 q 191 319 194 327 q 191 308 189 311 q 180 275 183 286 q 184 254 178 264 q 176 233 175 244 q 171 212 178 221 q 178 197 176 206 q 180 178 179 187 q 185 162 182 170 q 199 155 189 155 q 210 137 202 148 q 233 134 222 138 q 253 126 243 130 q 273 120 263 122 q 298 121 283 118 q 313 126 305 123 q 326 134 320 129 q 336 143 330 142 q 345 149 342 144 q 350 162 346 157 q 358 172 354 167 q 366 184 362 178 q 368 199 369 190 q 387 237 381 221 q 392 271 392 254 q 391 288 389 288 q 392 292 392 289 q 389 311 387 308 q 389 316 391 313 q 385 332 384 328 q 384 339 385 336 q 377 358 381 349 q 373 378 373 368 q 376 393 380 388 q 373 404 372 397 q 360 416 363 411 q 357 427 357 422 q 360 439 358 433 q 365 456 362 445 q 368 478 368 471 q 365 492 369 486 q 373 494 372 490 q 378 502 374 499 q 387 503 381 505 q 395 502 392 502 q 402 505 400 503 q 411 507 404 507 q 435 503 423 507 q 458 495 448 498 q 468 477 463 484 q 476 455 477 461 q 472 445 475 449 q 475 433 476 441 q 481 425 475 425 q 481 403 479 410 q 486 389 483 396 l 486 346 q 488 311 491 324 q 486 285 486 298 q 487 277 486 281 q 488 270 488 274 q 488 258 487 264 q 486 247 488 252 q 489 226 488 235 q 486 206 490 217 q 492 195 488 199 q 496 184 495 191 q 496 160 491 164 q 499 146 500 156 q 500 136 502 142 q 505 127 498 129 q 508 108 503 123 q 515 88 513 92 q 525 75 517 83 q 523 56 519 62 q 530 43 526 50 q 536 28 534 35 q 533 12 537 20 q 542 -7 536 4 q 544 -26 548 -18 q 553 -37 548 -33 q 563 -47 559 -41 q 563 -56 563 -50 q 560 -65 563 -62 q 570 -101 568 -83 q 576 -137 571 -119 q 572 -165 570 -152 q 576 -193 574 -178 m 529 838 q 519 830 525 837 q 518 821 514 823 q 503 810 511 814 q 492 795 494 806 q 479 789 483 791 q 475 787 476 788 q 473 783 475 785 q 467 779 472 781 q 455 772 454 774 q 453 769 456 770 q 442 762 444 766 q 438 755 441 758 q 420 738 425 745 q 410 724 415 731 q 387 718 400 727 q 376 699 374 708 q 361 690 366 696 q 347 680 355 684 q 334 671 338 674 q 323 670 330 669 q 308 659 315 666 q 292 648 301 652 q 267 648 274 650 q 254 648 260 646 q 245 656 248 651 q 237 659 243 661 q 235 673 240 669 q 235 682 229 677 q 231 710 224 696 q 243 738 239 724 q 253 741 248 738 q 263 745 258 743 q 285 754 273 749 q 297 769 297 760 q 313 780 313 776 q 316 787 313 784 q 326 792 323 788 q 336 798 330 796 q 346 804 342 802 q 350 815 350 807 q 359 819 357 814 q 368 826 361 823 q 378 837 374 834 q 385 844 382 840 q 391 851 388 848 q 399 857 393 854 q 429 880 418 869 q 448 906 439 891 q 466 905 457 903 q 481 901 475 907 q 490 904 486 903 q 492 911 494 905 q 518 891 503 894 q 530 865 526 878 q 529 838 533 853 z "},"ร":{"ha":827,"x_min":-167,"x_max":868,"o":"m 868 487 q 861 466 861 477 q 859 444 860 454 q 864 435 860 439 q 864 427 868 431 q 859 420 865 420 q 850 416 853 419 q 848 397 846 401 q 848 388 849 393 q 844 375 846 381 q 840 362 841 369 q 841 347 842 349 q 840 342 840 345 q 837 320 834 328 q 827 312 830 317 q 819 302 825 307 q 812 286 819 292 q 804 269 806 279 q 789 252 793 255 q 785 243 784 250 q 779 239 780 241 q 770 237 777 236 q 766 227 769 231 q 760 217 762 224 q 741 199 747 201 q 734 191 734 198 q 724 184 731 190 q 710 173 718 179 q 696 161 703 167 q 689 152 690 155 q 669 148 681 152 q 650 146 656 144 q 627 134 637 137 q 601 126 616 130 q 591 121 595 123 q 583 118 587 119 q 568 117 576 115 q 556 110 560 118 q 545 109 549 115 q 528 110 540 103 q 509 105 513 104 q 499 104 505 106 q 475 97 487 102 q 450 90 463 92 q 453 45 454 65 q 456 28 452 38 q 458 14 460 19 q 453 -2 453 0 q 452 -7 453 -4 q 427 -22 437 -15 q 415 -31 418 -30 l 399 -23 q 385 -14 389 -22 q 373 -7 380 -7 q 370 16 373 0 q 365 48 368 31 q 359 81 362 65 q 354 102 355 96 q 344 106 349 104 q 332 107 339 107 q 302 134 317 125 q 270 144 286 144 q 256 157 266 153 q 241 172 245 161 q 234 175 239 175 q 227 178 229 175 q 232 197 227 186 q 235 214 237 208 q 256 222 251 224 q 267 224 262 220 q 275 220 271 222 q 281 217 278 218 q 311 212 296 214 q 338 201 326 209 q 344 196 340 198 q 351 193 347 194 q 355 205 354 195 q 356 224 357 214 q 353 243 355 235 q 349 254 351 252 q 351 271 355 266 q 346 286 347 277 q 347 296 346 292 q 349 305 349 300 q 347 313 349 309 q 343 320 345 316 q 344 345 346 340 q 349 354 342 350 q 345 375 342 370 q 349 385 349 380 q 345 422 349 404 q 343 458 342 439 q 345 471 343 465 q 346 481 347 476 q 344 491 346 487 q 340 500 342 495 q 344 511 339 507 q 349 521 349 514 q 347 525 349 524 q 351 537 345 526 q 349 550 351 544 q 346 563 346 556 q 347 570 346 567 q 349 578 349 574 q 346 600 343 595 q 346 606 349 604 q 342 616 346 613 q 338 625 338 618 q 343 640 343 629 q 342 666 343 650 q 338 692 340 682 q 335 701 338 697 q 332 711 332 705 q 338 720 334 716 q 340 736 342 724 q 338 746 339 742 q 335 755 336 750 q 337 766 332 762 q 342 776 342 769 q 319 783 330 783 q 298 787 309 783 q 288 781 293 784 q 278 776 283 779 q 242 774 262 781 q 205 765 222 768 q 186 766 197 765 q 170 761 176 768 q 136 765 156 765 q 107 753 117 765 q 98 755 100 750 q 91 758 96 760 q 77 754 85 757 q 58 748 68 751 q 39 741 47 745 q 26 734 30 736 q 5 715 14 726 q -19 699 -4 705 q -22 691 -20 693 q -23 682 -24 689 q -37 674 -34 681 q -47 665 -39 667 q -57 640 -45 647 q -56 633 -60 635 q -54 625 -53 631 q -60 618 -61 625 q -65 612 -58 612 q -72 587 -65 598 q -79 563 -79 575 q -75 553 -77 557 q -71 544 -72 549 q -61 522 -68 528 q -54 509 -54 517 q -23 490 -38 500 q 8 472 -8 480 q 30 474 18 471 q 49 475 42 477 q 56 481 50 480 q 67 483 61 481 q 78 489 73 484 q 83 506 83 494 q 92 507 90 503 q 96 515 94 511 q 102 541 106 530 q 91 566 98 551 q 77 570 84 570 q 62 575 69 571 q 53 589 54 589 q 49 591 52 589 q 31 612 33 605 q 39 643 30 620 q 47 646 42 646 q 54 648 52 646 q 73 656 68 658 q 80 656 77 655 q 95 655 91 656 q 102 651 99 654 q 123 644 114 650 q 145 635 133 637 q 154 623 149 628 q 167 614 159 617 q 177 587 170 600 q 187 560 184 575 q 186 539 189 549 q 187 518 183 529 q 180 509 180 517 q 176 495 179 500 q 162 474 165 487 q 151 450 159 461 q 139 437 141 438 q 140 427 137 435 q 132 427 137 427 q 125 425 127 427 q 114 412 118 412 q 107 410 110 411 q 83 397 90 401 q 73 396 76 392 q 57 385 61 392 q 40 387 50 389 q 26 378 30 385 q 8 382 16 378 q -11 382 0 387 q -31 396 -16 396 q -40 406 -34 403 q -50 416 -46 410 q -60 418 -56 414 q -68 425 -64 422 q -87 435 -76 430 q -104 445 -98 439 q -110 454 -109 449 q -119 458 -111 460 q -144 487 -123 479 q -167 526 -151 509 q -165 543 -163 536 q -167 557 -167 549 q -164 565 -167 562 q -161 572 -161 568 q -159 595 -163 590 q -159 606 -156 600 q -152 614 -155 610 q -145 623 -149 618 q -142 644 -148 637 q -138 665 -136 650 q -122 692 -127 677 q -114 722 -117 707 q -96 736 -106 726 q -77 758 -87 746 q -55 781 -66 770 q -31 796 -43 792 q 0 816 -14 811 q 26 827 14 821 q 33 833 30 830 q 39 838 35 836 q 54 842 46 841 q 71 846 62 844 q 96 852 80 846 q 119 861 111 859 q 128 857 122 857 q 138 854 134 857 q 157 857 151 860 q 161 861 163 854 q 174 852 168 860 q 183 854 179 852 q 193 859 187 857 q 207 860 199 861 q 221 859 214 859 q 237 863 229 860 q 252 867 244 867 q 281 867 273 864 q 297 869 289 869 q 304 868 301 869 q 312 867 308 867 q 323 869 319 867 q 335 872 328 871 q 336 899 339 886 q 335 921 334 913 q 332 948 336 933 q 329 956 331 951 q 327 966 327 962 q 333 981 334 979 q 335 986 332 983 q 355 998 350 994 q 363 1005 359 1001 q 373 1010 369 1009 q 384 1008 377 1010 q 401 994 397 1001 q 412 986 406 986 q 417 957 414 971 q 418 926 420 943 q 422 912 416 922 q 418 895 429 902 q 422 873 422 884 q 437 867 430 872 q 460 866 448 868 q 484 867 473 864 q 502 857 490 861 q 528 850 514 853 q 554 846 541 848 q 575 844 567 845 q 600 831 595 836 q 614 827 605 827 q 634 812 621 817 q 658 804 647 807 q 680 784 675 792 q 697 776 685 776 q 718 761 704 764 q 728 743 723 747 q 739 736 732 739 q 757 720 751 724 q 765 713 762 716 q 772 702 769 708 q 783 693 776 696 q 787 677 783 682 q 796 665 791 673 q 798 651 793 655 q 806 640 802 647 q 830 600 822 621 q 841 587 836 593 q 853 575 846 582 q 857 548 853 562 q 856 521 860 534 q 860 511 859 517 q 867 503 861 506 q 863 495 863 500 q 868 487 864 490 m 774 487 q 772 510 776 496 q 768 534 769 524 l 757 549 q 748 564 750 555 q 743 575 746 572 q 734 590 734 586 q 734 597 735 594 q 723 616 731 604 q 708 631 715 628 q 708 640 708 635 q 705 648 708 644 q 691 661 701 652 q 670 678 681 669 q 651 696 659 688 q 643 708 643 704 q 629 716 639 711 q 610 726 620 722 q 592 735 601 731 q 581 739 583 739 q 563 753 574 749 q 539 759 552 757 q 513 764 526 761 q 491 773 500 766 q 457 777 473 769 q 422 784 441 784 q 422 765 420 776 q 418 747 423 754 q 422 726 425 736 q 423 705 419 715 q 426 688 426 694 q 425 671 426 682 q 429 659 423 666 q 426 643 434 651 q 430 600 429 621 q 431 557 431 579 q 429 536 431 547 q 426 515 426 526 q 427 504 426 509 q 425 492 429 499 q 427 474 430 481 q 426 456 425 467 q 429 441 427 445 q 431 435 431 438 q 431 427 433 431 q 429 419 430 423 q 431 392 427 406 q 434 365 434 378 q 433 357 434 361 q 431 350 431 353 q 435 335 433 342 q 437 320 437 328 q 435 312 437 316 q 434 302 434 308 q 435 283 437 286 q 434 277 434 279 q 435 262 434 267 q 438 252 437 256 q 439 242 439 248 q 434 224 438 236 q 441 193 439 205 q 450 178 442 180 q 465 183 460 178 q 479 191 471 189 q 518 191 498 195 q 553 203 538 187 q 578 203 564 199 q 598 217 591 206 q 608 216 604 212 q 618 222 613 220 q 629 222 624 224 q 640 224 635 221 q 659 240 651 229 q 678 254 666 251 q 683 263 680 260 q 684 274 686 266 q 707 290 700 277 q 728 308 713 302 q 732 318 730 315 q 739 326 735 321 q 744 349 741 343 q 746 365 747 355 q 757 397 755 384 q 765 422 758 411 q 762 431 765 429 q 762 438 758 434 q 768 454 761 446 q 773 472 776 461 q 771 481 768 479 q 774 487 774 483 z "},"รพ":{"ha":533,"x_min":56,"x_max":534,"o":"m 526 269 q 526 247 533 258 q 521 225 519 236 q 513 216 514 222 q 509 206 511 210 q 509 199 506 201 q 511 191 513 197 q 503 181 506 187 q 495 172 500 175 q 496 163 499 165 q 490 155 492 160 q 489 137 494 138 q 481 133 484 136 q 482 125 484 127 q 480 118 480 123 q 469 110 472 115 q 461 100 467 104 q 435 78 441 88 q 419 61 429 68 q 387 52 396 58 q 373 35 377 46 q 346 26 358 33 q 319 16 334 19 q 290 9 298 12 q 271 8 281 7 q 264 5 264 9 q 256 1 263 0 q 250 9 255 7 q 237 14 244 12 q 224 16 231 15 q 214 19 217 16 q 210 24 212 22 q 203 30 208 27 q 191 33 198 33 q 180 38 184 33 q 173 28 174 30 q 167 16 172 26 q 161 -7 160 1 q 163 -26 163 -16 q 160 -55 163 -37 q 167 -83 157 -73 q 167 -120 170 -104 q 170 -148 164 -136 q 163 -162 165 -157 q 163 -179 160 -167 q 148 -184 155 -180 q 134 -191 141 -189 q 113 -190 118 -195 q 102 -182 109 -184 q 96 -181 98 -175 q 87 -182 94 -187 q 80 -173 83 -176 q 79 -163 77 -170 q 71 -162 76 -159 q 64 -160 66 -165 q 64 -149 58 -153 q 73 -140 71 -145 q 63 -111 64 -129 q 69 -80 62 -94 q 65 -50 64 -60 q 64 -30 66 -41 q 59 -12 57 -16 q 61 -1 61 -7 q 59 29 57 19 q 56 50 61 39 q 63 65 60 58 q 64 81 66 72 q 73 107 75 99 q 64 118 72 115 q 65 127 68 122 q 64 138 62 133 q 66 146 64 142 q 69 155 68 151 q 68 174 71 163 q 69 191 65 184 q 61 203 66 199 q 66 228 56 208 q 65 244 64 236 q 66 260 66 252 q 63 269 65 266 q 61 277 61 273 q 63 291 60 283 q 66 305 66 298 q 64 315 65 311 q 61 323 62 319 q 66 338 69 327 q 64 357 62 350 q 66 366 64 362 q 69 373 68 369 q 68 381 69 377 q 66 388 66 385 q 84 450 64 423 q 79 456 83 456 q 76 464 76 457 q 77 473 77 468 q 76 481 76 477 q 81 501 83 499 q 79 506 79 503 q 86 534 87 525 q 92 549 85 543 q 98 581 88 567 q 96 597 92 590 q 100 612 99 604 q 98 631 100 628 q 98 639 96 635 q 104 654 99 647 q 107 670 109 661 q 133 685 119 680 q 163 688 146 690 q 184 675 176 685 q 201 656 191 665 q 200 630 198 646 q 191 608 202 614 q 192 594 193 604 q 189 575 191 585 q 184 557 187 566 q 178 547 180 548 q 178 518 180 533 q 172 493 171 499 q 172 480 174 487 q 170 472 172 476 q 167 464 167 468 q 167 444 170 449 q 165 435 164 439 q 185 427 176 426 q 197 438 194 429 q 210 441 205 437 q 225 444 214 446 q 235 452 232 446 q 245 461 239 458 q 271 463 259 460 q 292 477 283 467 q 323 476 305 475 q 353 469 342 477 q 373 475 363 473 q 393 480 382 476 q 419 468 408 475 q 449 467 430 461 q 459 448 453 452 q 467 438 465 445 l 481 438 q 492 425 490 429 q 498 410 495 422 q 506 399 499 404 q 515 388 513 395 q 516 376 518 384 q 524 370 514 369 q 524 350 521 363 q 530 321 526 336 q 534 291 533 305 q 526 269 534 277 m 433 313 q 425 337 429 327 q 425 354 422 347 q 410 366 412 363 q 404 373 407 369 q 378 378 393 376 q 355 373 363 381 q 345 379 351 378 q 330 378 338 380 q 314 373 321 376 q 302 370 307 370 q 292 376 301 376 q 279 376 283 377 q 273 371 275 374 q 266 365 270 368 q 220 338 240 354 q 178 305 201 321 q 168 281 175 292 q 160 256 160 270 q 164 233 159 244 q 170 212 170 222 q 168 201 171 208 q 167 191 165 194 q 176 173 178 178 q 175 164 174 168 q 185 150 176 160 q 197 133 194 140 q 206 131 199 130 q 212 123 213 132 l 228 123 q 239 112 232 115 q 254 102 247 109 q 267 104 260 109 q 279 100 273 99 q 290 103 286 100 q 300 107 294 106 q 327 117 320 110 q 345 126 334 123 q 388 163 362 148 q 391 170 391 165 q 393 178 391 174 q 399 183 396 180 q 404 189 403 186 l 410 203 q 410 218 415 216 q 407 225 404 220 q 412 231 408 228 q 419 237 416 233 q 423 254 425 250 q 422 263 422 259 q 426 274 423 270 q 430 285 429 278 q 433 299 433 292 q 433 313 433 307 z "},"ลฝ":{"ha":543,"x_min":-42,"x_max":578,"o":"m 564 990 q 577 958 576 970 q 573 937 578 945 q 561 922 568 929 q 549 902 553 914 q 525 888 533 899 q 502 873 517 878 q 496 863 499 868 q 491 852 494 859 q 467 831 472 841 q 453 806 463 821 q 441 793 448 799 q 431 777 434 787 q 421 770 425 774 q 411 764 418 766 q 406 742 410 753 q 396 722 401 731 q 386 709 385 712 q 385 704 387 707 q 376 690 376 693 q 372 689 376 688 q 361 658 369 671 q 351 628 354 644 q 336 613 339 625 q 323 595 334 601 q 315 572 323 581 q 307 551 308 564 q 301 545 301 551 q 294 540 301 538 q 289 518 293 529 q 283 496 285 507 q 273 486 277 492 q 266 475 270 480 q 262 452 266 461 q 254 433 259 442 q 245 416 250 425 q 239 395 240 407 q 227 384 235 392 q 220 357 224 372 q 206 335 217 342 q 205 326 206 332 q 208 319 205 319 q 196 300 198 312 q 182 285 194 289 q 171 243 180 260 q 154 197 161 220 q 142 151 146 174 q 157 144 148 144 q 177 148 167 145 q 197 153 187 151 q 216 151 208 155 q 243 155 225 157 q 273 148 262 152 q 291 153 283 155 q 309 148 298 151 q 321 146 316 145 q 332 148 327 148 q 354 146 350 149 q 362 142 358 142 q 374 144 370 142 q 382 145 378 145 q 397 142 389 145 q 411 148 404 140 q 424 144 416 144 q 434 140 431 145 q 468 136 457 144 q 490 126 479 127 q 503 130 496 126 q 515 134 509 133 q 522 130 522 136 q 525 121 522 123 q 533 117 529 119 q 541 114 537 114 q 542 104 540 107 q 547 100 544 102 q 553 96 551 98 q 556 90 556 94 q 538 58 552 69 q 513 30 524 47 q 460 24 491 22 q 411 41 430 26 q 364 44 388 39 q 317 46 340 49 q 284 54 298 53 q 263 49 270 54 q 239 50 245 52 q 227 54 233 47 q 208 47 221 49 q 181 43 195 46 q 154 35 167 41 q 136 18 141 30 q 112 9 123 14 q 99 -11 100 4 q 85 -18 88 -9 q 76 -33 83 -27 q 62 -38 62 -37 q 60 -39 62 -39 q 52 -39 58 -39 q 37 -38 45 -39 q 23 -36 30 -37 q 16 -35 16 -35 q 11 -27 12 -33 q 3 -24 9 -22 q -3 -5 0 -14 q -8 15 -5 4 q -13 24 -9 22 q -18 33 -16 26 q -16 45 -14 41 q -14 58 -19 49 q 5 80 -4 71 q 9 98 3 91 q 11 111 15 104 l 23 132 q 22 140 24 136 q 20 147 20 144 q 22 155 20 151 q 34 163 24 159 q 39 182 34 174 q 42 199 45 190 q 49 204 46 201 q 54 210 52 208 q 62 240 58 228 q 76 262 66 252 q 76 270 73 267 q 79 278 79 273 q 84 283 83 279 q 91 288 85 288 q 88 308 87 301 q 93 318 90 315 q 98 324 96 321 q 99 335 100 327 q 115 361 109 351 q 122 387 122 372 q 134 406 133 397 q 141 418 134 415 q 142 431 140 420 q 151 454 145 442 q 162 477 156 467 q 172 491 168 488 q 173 505 171 499 q 178 517 175 511 q 184 528 182 522 q 184 543 186 534 q 199 564 194 556 q 208 582 205 572 q 214 601 212 590 q 227 616 216 612 q 234 637 227 631 q 250 655 241 644 l 250 670 q 271 707 266 684 q 292 746 277 730 q 292 755 290 751 q 294 764 293 758 q 307 774 302 772 q 315 791 308 785 q 323 808 321 798 q 331 810 330 806 q 338 817 332 814 q 345 837 339 829 q 358 852 351 845 q 371 868 365 860 q 380 888 377 876 q 373 888 377 892 q 363 883 369 883 q 347 883 355 883 q 331 876 338 883 q 300 875 316 880 q 270 876 285 869 q 252 864 259 867 q 237 863 244 861 q 220 863 224 865 q 213 860 217 861 q 174 860 194 856 q 133 857 153 864 q 120 864 129 864 q 107 871 111 864 q 91 868 99 865 q 76 873 83 871 q 56 874 66 875 q 37 876 45 873 q 7 886 19 886 q -14 886 -4 886 q -28 902 -18 898 q -36 925 -30 918 q -42 954 -42 932 q -37 962 -41 963 q -28 964 -33 960 q -25 977 -28 978 q -23 982 -22 977 q -9 983 -19 982 q 13 985 1 985 q 34 986 24 986 q 47 985 43 986 q 71 973 60 981 q 96 967 81 966 q 100 960 98 963 q 104 954 102 958 q 119 958 111 956 q 133 959 126 960 q 161 953 149 954 q 188 952 174 952 q 215 953 202 952 q 232 954 228 954 q 242 956 237 955 q 252 959 247 958 q 262 959 258 960 q 273 959 267 958 q 296 964 292 966 q 307 964 301 963 q 324 968 323 970 q 328 967 326 967 q 339 972 339 974 q 343 970 339 970 q 353 974 346 970 q 366 979 361 978 q 390 982 376 982 q 411 979 404 982 q 431 996 426 985 q 450 996 442 991 q 468 998 458 1000 q 479 1006 472 1005 q 491 1010 486 1008 q 507 1009 499 1010 q 521 1016 515 1008 q 564 990 538 994 m 441 1272 q 428 1257 433 1265 q 415 1241 423 1248 q 414 1230 416 1234 q 412 1221 412 1226 q 392 1192 397 1202 q 376 1176 387 1181 q 369 1158 376 1164 q 355 1145 362 1152 q 351 1133 357 1135 q 347 1119 345 1130 l 332 1119 q 321 1105 326 1112 q 311 1093 317 1099 q 285 1085 297 1093 q 266 1086 270 1088 q 259 1082 262 1085 q 250 1094 251 1086 q 244 1108 248 1101 q 224 1130 236 1119 q 202 1147 213 1141 q 193 1162 202 1158 q 183 1176 183 1165 q 174 1180 180 1175 q 159 1192 167 1185 q 146 1206 152 1199 q 137 1215 140 1213 q 125 1227 125 1225 q 123 1230 126 1229 q 102 1246 110 1237 q 90 1261 94 1256 q 100 1283 92 1276 q 114 1301 107 1290 q 145 1304 129 1305 q 176 1303 161 1303 q 203 1282 191 1293 q 222 1255 216 1271 q 253 1240 244 1252 q 277 1218 262 1227 q 288 1224 285 1218 q 301 1227 290 1230 q 319 1249 309 1248 q 329 1264 320 1253 q 342 1278 338 1275 q 342 1286 340 1284 q 347 1293 345 1289 q 382 1301 358 1302 q 420 1301 406 1299 q 441 1272 437 1289 z "},"ลพ":{"ha":488,"x_min":31,"x_max":515,"o":"m 515 61 q 511 43 511 50 q 513 24 511 35 q 501 21 505 26 q 491 15 498 16 q 474 9 477 8 q 468 8 471 9 q 442 -5 454 3 q 415 -11 430 -14 q 386 -18 403 -19 q 355 -18 369 -18 q 334 -20 342 -20 q 319 -14 324 -14 q 311 -14 315 -15 q 284 -8 292 -7 q 270 -9 277 -9 q 241 -6 255 -8 q 212 -4 227 -4 q 190 -4 206 -4 q 155 -4 174 -4 q 121 -3 137 -4 q 103 -1 106 -3 q 93 -6 100 -7 q 81 -8 85 -5 q 68 -3 76 -4 q 56 5 61 -1 q 52 12 53 8 q 49 19 52 16 q 37 38 42 30 q 37 61 31 46 q 44 74 39 69 q 50 90 49 79 q 69 99 58 91 q 77 115 75 114 q 83 122 80 115 q 99 143 91 137 q 110 164 107 149 q 128 183 121 174 q 140 205 136 193 q 155 219 151 209 q 167 237 160 229 q 171 253 164 255 q 182 258 178 251 l 183 275 q 193 283 190 278 q 202 290 195 289 q 203 300 199 298 q 208 309 208 302 q 214 314 213 308 q 220 319 214 320 q 221 328 218 326 q 224 336 224 331 q 234 344 228 342 q 247 349 240 346 q 258 371 251 362 q 269 395 266 380 q 288 406 283 396 q 298 427 293 416 q 288 430 294 434 q 278 423 282 426 q 256 421 270 426 q 231 416 241 416 q 214 419 224 418 q 197 418 203 420 q 176 414 182 416 q 165 410 171 411 q 146 410 148 414 q 142 406 145 407 q 124 408 129 406 q 113 414 119 411 q 102 421 107 418 q 98 426 98 425 q 95 439 98 434 q 89 451 92 445 q 85 465 85 457 q 90 483 84 472 q 102 496 100 492 q 113 503 104 500 q 132 505 119 505 q 157 504 144 505 q 183 503 170 503 q 205 502 197 502 q 225 504 216 502 q 245 505 235 506 q 263 505 251 505 q 288 508 275 506 q 313 512 301 510 q 330 517 326 514 q 350 515 342 513 q 372 517 358 518 q 391 521 385 524 q 403 518 396 518 q 414 521 408 518 q 426 522 419 524 q 435 519 429 522 q 444 514 442 515 q 452 486 453 496 q 456 464 450 475 q 448 452 454 454 q 434 444 441 449 q 428 428 430 431 q 418 427 426 425 q 410 415 415 419 q 400 404 404 411 q 391 391 393 393 q 387 387 389 389 q 377 374 384 382 q 364 358 370 366 q 353 342 358 350 q 349 331 349 335 q 334 319 338 328 q 319 307 330 309 q 315 296 319 300 q 311 286 311 293 q 300 279 301 286 q 292 269 298 273 q 282 236 290 250 q 259 210 274 222 q 254 194 260 199 q 251 179 247 189 q 240 161 237 175 q 218 132 222 151 q 206 117 210 126 q 197 100 202 109 q 212 92 210 94 q 217 90 214 91 q 256 90 243 92 q 282 87 269 87 q 298 87 290 87 q 313 88 305 88 q 332 83 323 87 q 350 79 340 80 q 368 76 359 76 q 385 72 377 76 q 403 77 396 77 q 415 77 410 77 q 428 81 420 77 q 449 98 435 85 q 480 94 464 95 q 511 92 496 94 q 513 75 515 83 q 515 61 510 68 m 441 815 q 428 800 433 808 q 415 784 423 791 q 414 773 416 777 q 412 764 412 769 q 392 734 397 745 q 376 719 387 724 q 369 701 376 707 q 355 688 362 694 q 351 675 357 678 q 347 662 345 673 l 332 662 q 321 648 326 655 q 311 636 317 642 q 285 628 297 636 q 266 629 270 631 q 259 625 262 628 q 250 637 251 629 q 244 651 248 644 q 224 673 236 662 q 202 690 213 684 q 193 705 202 701 q 183 719 183 708 q 174 723 180 718 q 159 735 167 728 q 146 749 152 742 q 137 758 140 755 q 125 770 125 768 q 123 773 126 772 q 102 789 110 780 q 90 804 94 799 q 100 826 92 819 q 114 844 107 833 q 145 847 129 848 q 176 846 161 846 q 203 825 191 836 q 222 798 216 814 q 253 783 244 795 q 277 761 262 770 q 288 767 285 761 q 301 770 290 773 q 319 792 309 791 q 329 807 320 796 q 342 821 338 818 q 342 829 340 827 q 347 836 345 831 q 382 844 358 845 q 420 844 406 842 q 441 815 437 831 z "},"ยฝ":{"ha":777,"x_min":49,"x_max":785,"o":"m 784 141 q 778 136 780 138 q 769 137 776 134 q 762 130 764 136 q 758 121 761 125 q 748 117 751 121 q 738 113 745 114 q 715 96 728 102 q 690 81 703 90 q 671 82 680 85 q 654 75 663 79 q 633 81 647 80 q 610 79 618 83 q 601 82 604 79 q 594 87 598 85 q 563 92 574 91 q 543 98 552 92 q 514 100 524 98 q 500 98 507 98 q 486 95 492 98 q 464 92 472 90 q 433 97 445 95 q 412 103 422 99 q 411 113 414 110 q 410 123 408 117 q 395 140 401 129 q 429 189 401 174 q 430 201 426 197 q 433 212 434 205 q 455 235 448 221 q 477 256 463 250 l 477 271 q 489 279 483 277 q 500 285 495 281 q 519 305 511 293 q 540 324 528 317 q 544 337 543 330 q 553 345 545 345 q 562 367 559 363 q 566 376 564 370 q 566 416 576 408 q 526 427 555 423 q 514 415 515 425 q 494 408 500 415 q 477 396 488 400 q 454 368 461 378 q 438 347 448 358 q 422 336 426 345 q 412 330 419 327 q 392 317 399 316 q 376 319 385 317 q 365 334 373 328 q 350 347 357 340 q 350 356 350 351 q 347 363 350 361 q 347 378 350 372 q 345 395 345 384 q 352 399 350 397 q 361 399 354 401 q 370 418 366 412 q 404 442 395 426 q 426 469 414 458 q 435 476 430 473 q 446 483 441 479 q 456 490 449 484 q 463 498 463 495 q 482 502 476 496 q 498 514 488 507 q 532 517 515 513 q 566 519 549 522 q 610 500 591 505 q 614 493 613 496 q 618 486 616 490 q 626 483 623 484 q 633 480 629 481 q 648 460 642 468 q 654 435 655 453 q 659 428 656 431 q 665 420 662 425 q 664 403 665 411 q 667 387 663 395 q 656 342 658 362 q 648 335 650 340 q 647 324 647 330 q 625 290 627 309 q 618 286 623 290 q 609 275 614 281 q 600 262 604 269 q 597 254 597 256 q 586 245 590 251 q 576 233 582 239 q 556 217 567 224 q 543 197 545 210 q 579 186 556 183 q 605 174 590 176 q 633 175 620 172 q 640 172 640 178 q 647 165 640 165 q 666 163 654 164 q 681 174 678 163 q 695 182 688 178 q 701 197 703 186 q 712 197 708 191 q 719 205 716 202 q 737 210 731 206 q 746 217 743 214 q 762 210 755 216 q 777 202 768 205 q 774 180 777 190 q 769 160 770 171 q 777 151 768 151 q 784 141 785 151 m 189 574 q 173 542 176 552 q 168 521 170 532 q 156 517 159 522 q 146 506 153 511 q 130 507 132 506 q 126 509 129 509 q 108 513 114 506 q 87 517 102 519 q 83 526 85 519 q 80 539 81 532 q 77 552 79 547 q 77 560 76 557 q 73 583 72 576 q 66 591 73 589 q 69 616 66 602 q 72 636 72 631 q 69 648 72 643 q 66 659 66 652 q 68 669 66 665 q 72 678 71 673 q 68 698 73 689 q 64 716 64 707 q 66 725 64 722 q 69 732 68 728 q 68 741 69 736 q 66 750 66 746 q 67 766 66 761 q 68 774 68 770 q 66 784 68 779 q 58 800 64 789 q 62 811 62 806 q 64 821 61 817 q 71 824 65 823 q 72 834 76 825 q 83 836 79 833 q 92 841 87 838 q 103 843 98 844 q 114 844 109 842 q 143 833 130 838 q 165 810 156 829 q 166 793 168 804 q 163 768 164 781 q 162 743 161 755 q 171 724 163 731 q 165 678 168 696 q 165 642 163 661 q 171 622 174 623 q 176 610 168 621 q 178 594 176 594 q 180 591 180 594 q 183 582 183 587 q 189 574 183 576 m 491 750 q 486 743 492 743 q 477 739 480 743 q 466 728 471 734 q 454 719 461 722 q 452 711 452 715 q 449 703 452 707 q 428 683 430 692 q 418 669 426 674 q 395 620 399 642 q 380 596 384 610 q 369 575 377 582 q 361 561 366 567 q 353 547 357 555 q 337 511 345 530 q 316 479 330 492 q 301 416 301 446 q 294 411 297 414 q 285 407 290 408 q 283 393 289 400 q 273 380 277 385 q 258 345 264 361 q 247 326 252 328 q 243 311 250 315 q 239 297 237 308 q 222 277 225 292 q 205 258 218 263 q 201 245 208 247 q 197 232 194 243 q 190 227 193 231 q 184 220 187 222 q 172 201 176 206 q 166 191 168 197 q 162 179 164 184 q 153 172 160 174 q 152 157 159 161 q 148 141 145 152 q 131 134 140 138 q 117 123 122 130 q 98 123 99 125 q 92 121 98 121 q 52 144 68 121 q 52 161 52 151 q 49 178 52 171 q 67 202 57 191 q 85 227 77 213 q 93 230 90 231 q 100 232 96 229 q 99 241 100 236 q 95 251 98 247 q 107 265 103 256 q 122 277 111 274 q 133 302 125 290 q 140 328 141 313 q 160 348 151 335 q 165 376 170 361 q 172 379 168 378 q 179 382 176 380 q 181 391 180 385 q 184 399 182 396 q 191 411 191 404 q 191 425 191 418 q 205 442 201 431 q 208 464 210 453 q 214 469 210 464 q 221 482 217 475 q 229 496 225 490 q 236 506 233 503 q 239 515 239 510 q 241 524 239 519 q 252 534 250 530 q 259 538 254 538 q 267 575 264 556 q 278 589 274 581 q 286 605 282 597 q 296 621 290 613 q 309 632 301 628 q 309 642 307 639 q 313 651 312 646 q 315 661 316 655 q 316 669 315 666 q 332 692 327 682 q 338 708 338 703 q 352 721 349 711 q 366 734 355 731 q 366 743 363 741 q 369 753 368 746 q 376 758 372 753 q 387 771 381 764 q 396 785 392 779 q 403 793 400 791 q 437 801 419 800 q 472 799 454 802 q 474 787 468 789 q 483 779 480 784 q 488 764 486 774 q 491 750 490 754 z "},"ยผ":{"ha":688,"x_min":49,"x_max":681,"o":"m 681 289 q 673 279 678 282 q 666 269 669 275 q 652 239 662 243 q 631 233 643 236 q 620 226 624 232 q 609 224 616 220 q 607 200 606 213 q 613 178 608 187 q 612 167 610 172 q 616 156 613 161 q 636 136 629 138 q 648 129 643 134 q 663 103 652 114 q 659 86 662 92 q 656 68 655 80 q 642 61 643 60 q 640 64 640 62 q 638 68 639 66 q 633 68 637 69 q 626 66 629 69 q 618 62 623 64 q 599 62 609 60 q 579 62 589 65 q 562 77 567 68 q 541 88 556 87 q 521 130 541 117 q 515 167 519 149 q 506 203 510 184 q 465 202 484 203 q 433 189 446 201 q 405 186 414 187 q 385 186 396 186 q 374 199 378 193 q 361 209 369 206 q 360 222 361 216 q 355 233 359 228 q 368 264 359 247 q 376 293 376 281 q 379 300 376 300 q 382 307 382 301 q 382 324 380 315 q 381 343 384 334 q 393 395 389 369 q 396 437 396 422 q 395 444 396 441 q 393 452 393 448 q 398 475 393 464 q 400 499 403 487 q 414 514 410 503 q 433 517 422 517 q 450 524 444 518 q 471 514 463 521 q 494 506 479 507 q 488 490 491 498 q 486 472 486 481 q 487 458 486 465 q 486 444 488 450 q 483 427 484 431 q 480 419 481 423 q 481 401 483 404 q 479 396 479 399 q 478 382 480 385 q 476 376 476 380 q 476 343 479 354 q 476 319 473 332 q 474 309 477 312 q 468 301 471 307 q 509 316 498 288 q 509 339 511 326 q 509 363 507 353 q 515 414 510 391 q 530 461 519 437 q 547 477 540 475 q 553 487 553 479 q 576 492 564 487 q 598 494 589 496 q 617 484 610 487 q 627 473 624 480 q 621 442 629 460 q 612 408 612 425 q 602 391 605 396 q 604 378 600 385 q 597 368 601 372 q 591 358 593 365 q 593 349 590 351 q 595 342 597 347 q 595 325 595 331 q 601 309 594 319 q 614 315 608 312 q 628 321 621 319 q 651 318 636 315 q 677 319 666 321 l 681 289 m 189 574 q 173 542 176 552 q 168 521 170 532 q 156 517 159 522 q 146 506 153 511 q 130 507 132 506 q 126 509 129 509 q 108 513 114 506 q 87 517 102 519 q 83 526 85 519 q 80 539 81 532 q 77 552 79 547 q 77 560 76 557 q 73 583 72 576 q 66 591 73 589 q 69 616 66 602 q 72 636 72 631 q 69 648 72 643 q 66 659 66 652 q 68 669 66 665 q 72 678 71 673 q 68 698 73 689 q 64 716 64 707 q 66 725 64 722 q 69 732 68 728 q 68 741 69 736 q 66 750 66 746 q 67 766 66 761 q 68 776 68 772 q 66 785 68 780 q 58 800 64 789 q 62 811 62 806 q 64 821 61 817 q 71 824 65 823 q 72 834 76 825 q 83 836 79 833 q 92 841 87 838 q 103 843 98 844 q 114 844 109 842 q 143 833 130 838 q 165 810 156 829 q 166 793 168 804 q 163 768 164 781 q 162 743 161 755 q 171 724 163 731 q 165 678 168 696 q 165 642 163 661 q 171 622 174 623 q 176 610 168 621 q 178 594 176 594 q 180 591 180 594 q 183 582 183 587 q 189 574 183 576 m 491 750 q 486 743 492 743 q 477 739 480 743 q 466 728 471 734 q 454 719 461 722 q 452 711 452 715 q 449 703 452 707 q 428 683 430 692 q 418 669 426 674 q 395 620 399 642 q 380 596 384 610 q 369 575 377 582 q 361 561 366 567 q 353 547 357 555 q 337 511 345 530 q 316 479 330 492 q 301 416 301 446 q 294 411 297 414 q 285 407 290 408 q 283 393 289 400 q 273 380 277 385 q 258 345 264 361 q 247 326 252 328 q 243 311 250 315 q 239 297 237 308 q 222 277 225 292 q 205 258 218 263 q 201 245 208 247 q 197 232 194 243 q 190 227 193 231 q 184 220 187 222 q 172 201 176 206 q 166 191 168 197 q 162 179 164 184 q 153 172 160 174 q 152 157 159 161 q 148 141 145 152 q 131 134 140 138 q 117 123 122 130 q 98 123 99 125 q 92 121 98 121 q 52 144 68 121 q 52 161 52 151 q 49 178 52 171 q 67 202 57 191 q 85 227 77 213 q 93 230 90 231 q 100 232 96 229 q 99 241 100 236 q 95 251 98 247 q 107 265 103 256 q 122 277 111 274 q 133 302 125 290 q 140 328 141 313 q 160 348 151 335 q 165 376 170 361 q 172 379 168 378 q 179 382 176 380 q 181 391 180 385 q 184 399 182 396 q 191 411 191 404 q 191 425 191 418 q 205 442 201 431 q 208 464 210 453 q 214 469 210 464 q 221 482 217 475 q 229 496 225 490 q 236 506 233 503 q 239 515 239 510 q 241 524 239 519 q 252 534 250 530 q 259 538 254 538 q 267 575 264 556 q 278 589 274 581 q 286 605 282 597 q 296 621 290 613 q 309 632 301 628 q 309 642 307 639 q 313 651 312 646 q 315 661 316 655 q 316 669 315 666 q 332 692 327 682 q 338 708 338 703 q 352 721 349 711 q 366 734 355 731 q 366 743 363 741 q 369 753 368 746 q 376 758 372 753 q 387 771 381 764 q 396 785 392 779 q 403 793 400 791 q 437 801 419 800 q 472 799 454 802 q 474 787 468 789 q 483 779 480 784 q 488 764 486 774 q 491 750 490 754 z "},"ยน":{"ha":199,"x_min":35,"x_max":164,"o":"m 164 574 q 149 542 153 552 q 144 521 145 532 q 132 517 134 522 q 123 506 129 511 q 106 507 107 506 q 102 509 104 509 q 84 513 91 506 q 64 517 77 519 q 56 539 61 522 q 53 560 52 556 q 49 583 47 576 q 42 591 50 589 q 45 616 42 602 q 47 636 47 631 q 45 648 47 643 q 42 659 42 652 q 45 669 42 665 q 47 678 47 673 q 44 698 49 689 q 39 716 39 707 q 42 725 39 722 q 45 732 45 728 q 44 741 46 736 q 42 750 42 746 q 43 766 42 761 q 45 774 45 770 q 43 784 45 779 q 35 800 41 789 q 37 811 38 806 q 39 821 37 817 q 46 824 41 823 q 47 834 52 825 q 59 836 54 833 q 69 841 64 838 q 79 843 73 844 q 90 844 84 842 q 120 833 107 838 q 141 810 133 829 q 142 793 144 804 q 138 768 140 781 q 138 743 137 755 q 146 724 138 731 q 141 678 144 696 q 141 642 138 661 q 146 622 149 623 q 152 610 144 621 q 155 594 153 594 q 157 591 156 594 q 159 582 160 587 q 164 574 159 576 z "},"ยพ":{"ha":956,"x_min":46,"x_max":922,"o":"m 922 279 q 914 269 920 273 q 906 259 909 266 q 892 229 902 232 q 869 222 883 225 q 859 214 863 220 q 846 212 854 208 q 845 188 844 201 q 852 165 846 175 q 854 141 846 156 q 875 121 868 123 q 888 113 882 119 q 903 87 892 100 q 898 69 902 76 q 895 50 894 62 q 879 47 879 41 q 872 50 879 53 q 865 50 868 53 q 857 46 861 46 q 836 45 846 43 q 815 46 826 47 q 798 61 804 52 q 776 72 791 71 q 755 115 776 100 q 749 153 754 134 q 739 191 745 172 q 697 191 716 191 q 665 175 678 190 q 635 174 644 174 q 614 174 625 174 q 603 187 608 180 q 589 197 598 194 q 588 210 589 203 q 583 222 587 217 q 596 254 587 236 q 605 285 605 271 q 608 292 605 292 q 612 298 612 293 q 611 317 609 307 q 610 336 613 327 q 622 389 618 361 q 625 433 625 418 q 624 441 625 437 q 623 449 623 445 q 628 473 624 461 q 631 498 632 486 q 643 514 640 502 q 664 517 652 517 q 682 524 675 518 q 704 513 696 521 q 727 506 712 506 q 722 488 724 496 q 719 469 719 479 q 720 455 719 463 q 719 441 722 448 q 716 425 718 429 q 713 415 715 420 q 713 397 716 399 q 711 392 711 395 q 711 378 713 381 q 708 370 709 374 q 709 336 711 347 q 708 311 707 324 q 707 301 709 304 q 701 293 704 298 q 726 290 715 286 q 742 308 736 293 q 744 333 746 319 q 742 358 742 347 q 749 409 745 385 q 766 458 754 433 q 782 475 776 473 q 789 486 788 477 q 812 490 800 486 q 836 492 825 495 q 856 482 849 486 q 864 472 863 479 q 859 439 868 457 q 849 404 849 420 q 840 385 844 391 q 841 373 837 380 q 834 363 838 366 q 829 353 830 359 q 830 343 826 346 q 833 334 834 340 q 832 317 833 323 q 838 300 831 311 q 852 308 845 305 q 867 313 860 311 q 890 310 875 307 q 917 311 906 313 l 922 279 m 749 821 q 745 810 747 812 q 735 803 742 807 q 734 795 734 799 q 732 787 735 791 q 718 766 723 774 q 707 747 712 758 q 694 727 700 730 q 692 716 688 724 q 685 712 686 716 q 678 707 684 708 l 678 688 q 659 664 667 670 q 652 644 651 658 q 634 613 643 623 q 624 589 625 604 q 605 564 612 575 q 601 545 598 552 q 591 536 594 543 q 582 526 587 530 q 575 505 581 514 q 562 486 570 495 q 556 477 559 477 q 551 475 553 477 q 541 456 544 463 q 525 438 537 449 q 524 428 526 431 q 522 418 522 425 q 496 380 507 400 q 471 345 486 361 q 469 338 471 340 q 468 330 467 335 q 456 315 460 324 q 445 300 453 305 q 435 275 438 282 q 429 259 431 267 q 414 241 420 252 q 401 220 407 231 q 391 199 396 209 q 380 186 385 190 q 370 164 376 167 q 361 157 365 161 q 363 152 365 155 q 360 146 362 149 q 357 140 358 144 q 358 134 355 137 q 347 115 351 118 q 351 109 342 111 q 337 93 343 102 q 324 77 331 84 q 303 80 305 76 q 296 87 301 84 q 289 81 290 85 q 281 79 288 77 q 270 86 277 85 q 264 98 263 87 q 250 106 258 100 q 241 118 243 111 q 243 127 240 122 q 241 134 245 132 q 252 149 248 141 q 262 165 256 157 q 271 176 271 175 q 273 180 271 178 l 283 194 q 289 203 286 197 q 290 214 292 210 q 307 231 301 228 q 309 245 312 235 q 323 269 320 254 q 338 290 326 283 q 345 313 338 305 q 353 334 353 320 q 363 344 361 336 q 369 358 366 351 q 378 359 374 357 q 387 363 382 361 q 389 372 385 368 q 387 378 393 376 q 394 393 393 385 q 406 404 395 400 q 413 417 411 411 q 423 426 415 423 q 429 439 423 430 q 442 458 435 448 q 454 479 449 469 q 457 492 458 488 l 471 506 q 478 519 473 513 q 483 532 483 525 q 491 538 488 534 q 499 545 494 543 q 500 557 498 552 q 502 568 503 562 q 528 608 518 594 q 551 636 538 623 q 555 649 551 646 q 564 659 560 652 q 570 687 562 674 q 587 711 579 700 q 607 754 597 736 q 624 792 617 772 q 640 810 635 799 q 651 832 646 822 q 665 850 656 842 q 692 857 674 857 q 717 848 708 849 q 733 845 726 848 q 745 837 741 842 q 749 821 750 831 m 391 537 q 386 518 385 528 q 384 498 387 509 q 374 488 376 492 q 370 479 373 483 q 359 463 365 471 q 347 446 353 456 q 323 434 332 439 q 304 424 315 429 q 283 416 293 419 q 266 410 273 412 q 258 404 262 407 q 248 399 254 401 q 224 396 237 396 q 201 389 212 396 q 182 393 191 392 q 163 396 174 395 q 155 402 156 397 q 146 407 153 407 q 139 412 144 412 q 132 415 134 412 q 123 429 125 422 q 110 438 121 437 q 104 455 109 448 q 100 472 100 463 q 102 484 99 479 q 103 495 106 490 q 113 509 114 498 q 141 517 127 507 q 157 511 148 511 q 172 509 165 511 q 177 496 176 503 q 180 483 178 490 q 202 470 199 471 q 205 470 205 469 q 208 472 206 471 q 217 475 210 473 q 257 492 244 479 q 285 509 270 505 q 289 519 282 515 q 297 526 296 522 q 295 538 294 532 q 296 550 296 545 q 294 559 296 555 q 288 563 293 563 q 284 586 289 582 q 277 597 279 590 q 266 599 271 594 q 256 600 260 604 q 228 588 235 594 q 212 582 221 582 q 201 585 205 581 q 191 591 198 590 q 176 593 182 590 q 163 597 171 597 q 156 614 165 605 q 149 644 146 623 q 164 665 157 655 q 186 680 171 675 q 193 690 187 686 q 199 701 198 694 q 213 711 209 704 q 228 722 217 719 q 232 734 227 730 q 237 745 237 738 q 252 760 250 754 q 254 772 255 765 q 239 779 248 777 q 218 781 229 781 q 197 779 208 781 q 180 774 186 777 q 157 760 163 762 q 144 750 151 757 q 131 735 136 736 q 123 732 126 734 q 106 722 111 722 q 95 719 100 722 q 75 715 80 716 q 64 716 71 713 q 51 745 56 731 q 50 774 46 758 q 70 793 62 781 q 84 815 77 804 q 99 821 95 815 q 110 831 103 826 q 138 842 127 838 q 155 854 148 845 q 188 862 170 857 q 225 869 206 867 q 261 869 244 872 q 290 852 278 865 q 300 850 296 852 q 311 849 304 848 q 339 826 320 836 q 353 807 343 812 q 353 787 349 798 q 355 766 357 777 q 347 744 354 754 q 342 722 340 734 q 332 714 336 718 q 326 704 328 711 q 311 685 313 700 q 319 679 312 678 q 328 675 326 680 q 343 669 338 669 q 355 657 351 665 q 362 644 358 650 q 378 616 374 632 q 389 589 381 600 q 385 576 388 583 q 389 566 382 570 q 387 545 382 547 q 391 537 392 544 z "},"ยณ":{"ha":399,"x_min":18,"x_max":365,"o":"m 363 537 q 359 518 358 528 q 355 498 359 509 q 347 488 347 492 q 343 479 346 483 q 330 463 336 471 q 319 446 324 456 q 296 434 305 439 q 277 424 288 429 q 256 416 266 419 q 239 410 245 412 q 229 404 233 407 q 220 399 225 401 q 197 396 209 396 q 174 389 184 396 q 155 393 164 392 q 134 396 145 395 q 127 402 129 397 q 119 407 125 407 q 111 412 117 412 q 103 415 106 412 q 95 429 96 422 q 83 438 94 437 q 77 455 81 448 q 72 472 73 463 q 75 484 72 479 q 75 495 77 490 q 85 509 85 496 q 114 517 100 507 q 129 511 119 511 q 145 509 138 511 q 150 496 149 503 q 153 483 151 490 q 174 470 171 471 q 178 470 178 469 q 180 472 179 471 q 189 475 182 473 q 229 492 216 479 q 256 509 241 505 q 261 519 254 515 q 270 526 269 522 q 268 538 267 532 q 269 550 269 545 q 267 559 269 555 q 259 563 266 563 q 256 586 260 582 q 250 597 252 590 q 239 599 244 594 q 228 600 233 604 q 199 588 206 594 q 184 582 193 582 q 174 585 178 581 q 163 591 170 590 q 148 593 153 590 q 134 597 142 597 q 133 605 136 601 q 127 614 130 609 q 122 626 125 618 q 122 644 119 633 q 136 665 130 655 q 157 680 142 675 q 165 690 160 686 q 171 701 170 694 q 185 711 180 704 q 199 722 190 719 q 204 734 199 730 q 210 745 209 738 q 224 760 221 754 q 225 772 227 765 q 211 779 221 777 q 190 781 201 781 q 169 779 179 781 q 153 774 159 777 q 129 760 136 762 q 117 750 122 757 q 102 735 107 736 q 95 732 98 734 q 78 722 84 722 q 66 719 72 722 q 47 715 53 716 q 35 716 42 713 q 23 745 28 731 q 23 774 18 758 q 42 793 34 781 q 57 815 50 804 q 71 821 68 815 q 83 831 75 826 q 110 842 99 838 q 126 854 121 845 q 159 862 141 857 q 197 869 178 867 q 233 869 216 872 q 262 852 250 865 q 272 850 269 852 q 282 849 275 848 q 312 826 296 833 q 324 807 315 812 q 325 787 321 798 q 327 766 328 777 q 319 744 326 754 q 315 722 313 734 q 304 714 309 718 q 298 704 300 711 q 282 685 286 700 q 291 679 283 678 q 301 675 298 680 q 315 669 311 669 q 327 657 324 665 q 335 644 330 650 q 349 616 346 632 q 361 589 353 600 q 357 576 359 583 q 361 566 354 570 q 359 545 354 547 q 363 537 365 544 z "},"ยฒ":{"ha":498,"x_min":50,"x_max":491,"o":"m 491 490 q 484 484 486 487 q 475 484 481 481 q 469 477 469 483 q 465 468 468 472 q 454 465 458 468 q 444 461 450 463 q 422 443 435 449 q 397 430 408 437 q 378 429 387 433 q 361 422 369 426 q 340 429 354 427 q 316 427 326 430 q 307 430 309 427 q 301 434 305 433 q 269 439 279 438 q 250 445 259 439 q 220 448 231 446 q 205 445 213 445 q 191 442 198 445 q 171 439 176 437 q 139 445 151 442 q 119 450 127 448 q 118 460 121 457 q 117 471 115 464 q 100 487 106 476 q 134 536 107 519 q 136 548 132 544 q 140 559 141 552 q 161 583 153 568 q 184 604 170 597 l 184 620 q 195 626 189 624 q 208 632 202 628 q 226 653 218 642 q 247 671 233 665 q 250 684 250 677 q 259 692 251 692 q 267 714 264 711 q 273 723 270 718 q 273 763 283 755 q 233 776 262 770 q 220 762 224 772 q 201 755 206 762 q 184 745 195 749 q 161 717 168 727 q 145 694 153 707 q 130 683 133 692 q 119 677 126 674 q 98 664 106 663 q 83 666 91 665 q 71 682 79 675 q 57 694 64 688 q 56 703 56 699 q 54 711 57 708 q 54 725 57 719 q 52 742 50 731 q 58 747 56 745 q 66 747 60 749 q 77 765 71 757 q 111 789 102 773 q 132 817 119 806 q 142 823 137 821 q 153 830 148 826 q 162 838 156 833 q 168 845 168 844 q 189 849 183 844 q 205 861 194 854 q 239 865 222 860 q 273 867 255 869 q 296 855 288 860 q 316 848 305 850 q 320 840 319 844 q 324 833 321 837 q 340 827 335 830 q 355 808 347 815 q 361 783 362 800 q 366 775 363 779 q 372 768 369 772 q 370 750 372 758 q 374 734 369 742 q 368 712 370 723 q 363 689 365 701 q 355 682 357 688 q 353 671 353 677 q 332 637 334 658 q 326 633 330 637 q 316 622 321 628 q 307 610 311 616 q 304 601 304 604 q 292 592 296 598 q 282 581 289 586 q 262 564 273 571 q 250 544 252 557 q 266 535 256 537 q 285 533 275 533 q 311 522 296 524 q 340 524 326 521 q 347 519 347 525 q 353 513 347 513 q 372 511 361 511 q 387 521 384 510 q 401 530 393 526 q 407 544 410 533 q 418 545 415 540 q 426 552 422 551 q 444 557 438 553 q 452 564 449 562 q 468 557 461 563 q 483 549 475 552 q 481 528 484 537 q 475 507 477 518 q 477 501 475 503 q 483 498 480 499 q 488 496 486 498 q 491 490 491 494 z "},"ยฆ":{"ha":243,"x_min":62,"x_max":195,"o":"m 194 727 q 191 707 195 716 q 193 689 187 699 q 183 648 183 666 q 178 616 183 629 q 163 587 171 597 q 146 566 156 576 q 129 562 137 568 q 111 556 121 555 q 93 579 100 567 q 72 600 85 591 q 77 618 81 609 q 65 633 72 627 q 83 657 79 640 q 80 686 87 674 q 66 707 66 700 q 62 720 65 713 q 78 741 73 726 q 68 762 83 755 q 70 785 75 773 q 76 808 65 798 q 73 825 73 817 q 69 842 73 834 q 75 860 75 850 q 79 879 75 869 q 71 949 84 916 q 83 962 80 952 q 92 979 85 972 q 107 991 99 987 q 122 1004 115 996 q 138 995 130 1001 q 153 989 145 989 q 166 968 157 979 q 182 949 175 956 q 176 944 176 948 q 178 935 176 940 q 179 924 179 929 q 175 914 179 918 q 182 905 180 910 q 187 895 184 901 q 178 880 179 887 q 179 864 178 872 q 182 847 180 856 q 179 829 183 838 q 190 815 182 819 q 185 797 184 802 q 189 785 186 792 q 186 755 182 765 q 193 738 190 745 l 194 727 m 194 277 q 186 249 190 259 q 183 232 182 239 q 185 224 183 228 q 189 217 187 221 q 185 206 186 212 q 183 194 184 201 q 179 175 182 183 q 182 157 183 165 q 179 140 180 148 q 178 123 178 132 q 187 107 179 115 q 182 97 184 102 q 175 88 180 92 q 179 79 179 84 q 178 68 179 73 q 176 59 176 64 q 182 53 176 54 q 166 35 175 46 q 153 14 157 23 q 138 7 145 14 q 122 -1 130 1 q 107 12 115 7 q 92 23 99 16 q 83 40 85 30 q 71 54 80 50 q 77 83 77 69 q 69 113 77 98 q 75 142 75 133 q 69 161 75 152 q 73 178 73 170 q 76 195 73 186 q 70 218 65 206 q 68 241 75 231 q 78 262 83 248 q 62 283 73 277 q 66 296 65 289 q 69 308 66 302 q 83 345 87 328 q 65 369 79 362 q 77 385 72 376 q 72 403 81 395 q 93 423 85 411 q 111 446 100 435 q 129 441 121 448 q 146 437 137 434 q 163 417 156 427 q 182 400 171 407 q 183 356 183 374 q 186 323 183 338 q 191 295 187 304 q 194 277 195 286 z "},"โ":{"ha":652,"x_min":62,"x_max":632,"o":"m 632 396 q 625 376 625 382 q 618 365 625 369 q 621 356 621 362 q 621 347 621 350 q 609 336 612 347 q 570 328 589 339 q 563 331 566 328 q 556 336 560 334 q 544 333 551 334 q 530 332 537 332 q 516 332 522 332 q 505 326 510 331 q 462 330 483 328 q 419 326 441 331 q 396 333 410 331 q 377 328 382 335 q 369 332 372 328 q 362 336 366 336 q 332 334 351 336 q 302 328 312 332 q 280 333 294 336 q 255 336 266 330 q 244 332 247 336 q 235 326 241 327 q 228 330 236 332 q 218 334 220 328 q 193 330 206 330 q 167 331 180 331 q 141 330 153 331 q 117 323 129 328 q 109 327 114 328 q 99 328 103 326 q 91 338 94 331 q 81 345 88 345 q 75 363 79 354 q 62 378 72 373 q 68 391 64 385 q 68 404 72 397 q 82 408 75 406 q 91 416 90 410 q 106 414 98 416 q 114 422 114 412 q 130 416 119 422 q 145 422 141 418 q 162 420 149 420 q 190 418 175 419 q 218 418 205 418 q 235 419 231 418 q 255 415 243 410 q 278 422 267 420 q 289 422 283 423 q 300 422 294 420 q 317 427 313 429 q 326 425 321 425 q 333 426 330 425 q 340 427 336 427 q 353 425 347 427 q 366 422 359 422 q 378 425 373 422 q 388 427 382 427 q 406 425 404 431 q 416 422 408 419 q 425 424 423 420 q 431 430 427 427 q 448 426 448 425 q 450 427 448 427 q 466 427 464 429 q 471 425 468 425 q 510 428 494 429 q 533 430 526 427 q 549 441 543 433 q 559 450 556 449 q 583 450 579 448 q 595 450 586 453 q 614 425 609 435 q 629 410 618 414 l 632 396 z "},"ร":{"ha":586,"x_min":49,"x_max":593,"o":"m 593 146 q 583 140 589 141 q 572 138 578 138 q 561 138 567 138 q 551 133 555 137 q 563 130 553 130 q 571 123 572 130 q 557 107 571 117 q 537 98 543 98 q 517 110 528 104 q 502 126 507 115 q 475 137 487 132 q 449 144 464 142 q 439 159 444 156 q 429 167 434 163 q 420 176 425 171 q 415 183 416 180 q 397 189 408 186 q 372 212 391 212 q 364 226 370 221 q 350 235 358 231 q 346 245 351 243 q 343 256 340 247 q 322 264 328 260 q 311 268 316 267 q 302 265 305 269 q 298 254 298 262 q 280 235 283 250 q 267 212 277 221 q 265 199 270 202 q 262 189 260 195 q 251 180 256 184 q 250 167 245 175 q 241 163 243 168 q 233 157 239 159 q 218 126 228 138 q 202 99 208 114 q 204 91 199 92 q 208 84 209 90 q 201 76 201 81 q 202 64 201 71 q 193 58 199 64 q 181 49 187 53 q 170 43 175 45 q 165 50 165 42 q 149 43 157 46 q 132 37 141 39 q 113 47 123 43 q 92 56 103 52 q 83 89 85 73 q 83 123 80 104 q 93 123 90 118 q 103 129 96 127 q 110 139 106 136 q 114 152 114 142 q 131 171 127 156 q 145 194 134 186 q 153 209 146 206 q 163 217 159 212 q 167 225 165 220 q 171 235 168 231 q 178 248 175 244 q 182 263 182 252 q 197 279 193 267 q 213 294 202 290 q 213 307 212 301 q 216 320 214 313 q 231 338 232 327 q 222 359 229 349 q 204 380 214 370 q 191 393 194 389 q 182 392 186 389 q 175 398 179 395 q 167 405 171 401 q 155 407 163 408 q 148 418 152 412 q 137 422 144 423 q 122 442 134 437 q 103 458 110 448 q 93 474 94 472 q 91 479 92 476 q 76 492 84 487 q 61 506 68 498 q 56 515 58 510 q 49 524 53 519 q 56 542 52 534 q 60 563 61 549 q 101 570 76 576 q 142 555 126 564 q 149 545 144 548 q 153 532 155 543 q 180 515 165 522 q 202 492 195 507 q 213 479 213 487 q 244 461 227 465 q 263 437 251 446 q 290 422 275 427 q 298 428 293 422 q 306 441 302 434 q 312 456 309 449 q 313 467 315 463 q 328 479 319 469 q 340 487 336 488 q 345 500 338 498 q 350 510 351 502 q 368 539 362 529 q 372 563 373 549 q 389 573 384 568 q 395 589 395 578 q 402 595 400 591 q 407 602 404 600 q 410 612 407 608 q 410 623 412 616 q 425 625 415 623 q 444 627 434 627 q 460 626 453 628 q 471 617 468 624 q 481 613 479 618 q 494 609 484 608 q 492 566 496 590 q 471 529 488 543 q 469 519 469 524 q 468 509 469 514 q 457 504 461 507 q 446 498 453 500 q 444 484 449 491 q 444 475 439 477 q 431 462 438 465 q 426 444 423 458 q 416 435 419 441 q 406 427 412 430 q 398 412 400 415 q 397 404 396 410 q 378 384 387 395 q 358 362 369 373 q 368 350 363 355 q 381 342 373 345 q 388 330 384 335 q 400 323 392 326 q 414 306 400 316 q 434 294 427 296 q 452 275 442 283 q 477 263 463 266 q 491 243 480 248 q 509 227 502 237 l 530 227 q 543 212 537 218 q 562 203 549 205 l 576 183 q 587 172 587 178 q 593 170 586 167 q 590 159 587 165 q 593 146 593 152 z "}," ":{"ha":361,"x_min":0,"x_max":0,"o":""},"!":{"ha":254,"x_min":61,"x_max":206,"o":"m 206 947 q 197 916 197 932 q 196 895 198 899 q 201 890 194 890 q 197 882 201 884 q 194 873 194 879 q 198 857 195 867 q 198 840 201 848 q 193 830 197 833 q 186 824 190 827 q 183 814 183 821 q 187 796 183 808 q 183 777 182 789 q 183 757 184 765 q 181 732 179 738 q 176 722 183 726 q 182 683 183 705 q 170 646 180 661 q 172 631 171 639 q 171 617 172 624 q 168 610 171 613 q 165 602 165 606 q 165 590 167 591 q 164 586 164 589 q 165 575 164 581 q 165 563 167 570 q 159 545 163 552 q 167 526 156 538 q 167 511 163 518 q 171 498 171 505 q 171 473 168 480 q 174 458 174 467 q 172 448 174 453 q 170 438 170 444 q 174 416 171 423 q 174 393 178 410 q 179 374 183 376 q 176 365 175 372 q 179 351 174 358 q 183 338 184 345 q 180 331 183 334 q 178 323 178 328 q 180 305 178 316 q 189 290 182 294 q 189 281 189 288 q 183 275 189 275 q 182 245 184 254 q 178 229 180 237 q 164 213 167 217 q 156 206 161 209 q 140 206 149 208 q 127 213 130 205 q 102 221 111 210 q 90 247 92 232 q 79 266 80 255 q 79 289 77 277 q 80 300 80 297 q 79 306 80 304 q 78 310 79 308 q 76 317 77 312 q 76 326 75 321 q 76 332 77 330 q 71 351 71 347 q 72 357 72 354 q 70 367 72 362 q 68 377 68 372 q 70 389 68 384 q 72 401 72 395 q 68 409 71 406 q 65 416 66 412 q 66 434 61 434 q 69 441 71 434 q 64 471 64 456 q 66 503 65 486 q 65 525 66 514 q 66 547 64 536 q 71 568 73 563 q 71 578 68 572 q 66 585 71 583 q 62 591 62 586 q 77 644 75 625 q 85 686 79 663 q 83 694 88 693 q 79 703 77 696 q 87 724 87 709 q 90 749 87 738 q 93 762 91 755 q 95 774 95 768 q 94 784 96 780 q 91 793 92 788 q 94 826 90 808 q 95 859 98 844 q 97 891 98 879 q 98 914 96 903 q 99 924 98 920 q 100 933 100 928 q 99 941 102 937 q 94 947 96 944 q 98 956 95 954 q 100 967 102 959 q 113 978 109 970 q 125 990 117 986 q 125 998 123 997 q 130 1005 127 1000 l 164 996 q 181 984 165 993 q 199 975 197 975 q 197 959 197 964 q 206 947 197 954 m 182 58 q 188 43 184 47 q 180 27 191 38 q 171 14 172 19 q 165 5 170 8 q 155 5 159 3 q 144 -1 151 7 q 121 1 127 3 q 113 0 115 -1 q 105 5 109 3 q 96 9 102 7 q 91 24 91 16 q 81 35 91 33 q 83 57 80 46 q 83 77 87 68 q 92 90 85 84 q 92 102 99 95 q 102 105 96 104 q 113 106 107 106 q 137 98 133 91 q 152 104 141 104 q 153 96 151 99 q 156 90 155 94 q 176 81 171 94 q 182 58 180 68 z "},"\"":{"ha":378,"x_min":20,"x_max":359,"o":"m 358 817 q 349 789 354 799 q 346 772 345 779 q 349 764 347 768 q 353 757 351 761 q 348 746 349 751 q 347 734 347 741 q 342 715 345 723 q 345 696 346 705 q 342 680 343 688 q 342 664 342 671 q 351 648 343 656 q 339 628 347 636 q 342 618 343 624 q 341 608 342 613 q 340 599 340 604 q 346 593 340 594 q 330 574 339 586 q 317 555 321 563 q 302 548 309 555 q 286 538 294 541 q 271 551 279 547 q 256 563 263 556 q 247 580 250 570 q 235 594 244 590 q 241 623 240 609 q 233 652 241 637 q 239 682 239 673 q 233 701 239 692 q 237 718 237 709 q 240 735 237 727 q 234 747 235 741 q 234 758 233 753 q 235 770 235 764 q 231 781 235 776 q 241 802 245 788 q 227 823 237 817 q 229 836 228 830 q 233 848 231 842 q 246 885 251 868 q 229 909 241 902 q 240 925 236 916 q 236 943 244 935 q 256 964 248 951 q 275 986 264 977 q 293 981 285 987 q 311 977 301 974 q 326 957 319 967 q 345 940 334 947 q 347 896 347 914 q 349 863 346 878 q 355 836 351 845 q 358 817 359 826 m 152 709 q 149 690 153 699 q 152 671 145 681 q 142 629 141 648 q 137 598 142 610 q 121 568 129 578 q 106 548 114 559 q 88 544 96 551 q 71 538 80 537 q 52 562 60 549 q 30 582 43 574 q 35 600 39 591 q 24 616 31 609 q 41 640 37 623 q 38 667 46 656 q 24 689 24 682 q 20 703 23 696 q 37 723 33 708 q 26 745 41 738 q 28 767 33 755 q 34 789 24 779 q 31 808 31 799 q 28 823 31 817 q 33 842 33 833 q 37 861 34 852 q 35 901 35 887 q 30 930 35 916 q 41 945 39 935 q 50 962 43 955 q 66 974 57 970 q 81 986 75 978 q 96 977 88 983 q 111 971 103 971 q 124 950 115 962 q 140 932 133 939 q 134 925 134 929 q 136 916 134 921 q 138 906 137 911 q 134 897 138 901 q 141 888 138 892 q 146 878 144 883 q 138 861 138 869 q 138 845 137 853 q 140 828 138 837 q 137 810 141 819 q 148 798 140 802 q 143 779 142 784 q 146 768 144 773 q 144 760 146 764 q 141 753 141 757 q 144 736 140 746 q 151 719 149 727 l 152 709 z "},"#":{"ha":783,"x_min":49,"x_max":762,"o":"m 760 605 q 742 581 754 589 q 714 571 730 574 q 682 570 699 568 q 654 575 666 572 q 622 572 632 572 q 602 571 612 571 q 597 561 600 566 q 591 552 595 556 q 589 536 591 538 q 583 529 586 533 l 583 514 l 575 480 q 574 461 575 464 q 566 449 564 453 q 563 442 567 445 q 559 415 563 419 q 560 406 559 410 q 563 399 562 403 q 556 394 559 397 q 551 388 553 391 q 549 370 553 381 q 572 372 566 370 q 583 378 579 374 q 591 386 587 382 q 601 392 594 389 q 627 391 623 388 q 640 391 631 393 q 659 363 654 374 q 677 347 665 353 q 676 330 678 331 q 673 327 674 330 q 670 313 673 320 q 663 304 667 307 q 666 295 666 301 q 666 285 666 289 q 651 275 655 285 q 608 269 625 278 q 600 272 602 270 q 594 277 597 274 q 564 275 581 271 q 536 269 547 278 q 524 259 525 264 q 517 251 522 254 q 518 235 521 244 q 511 220 515 227 q 510 202 514 209 q 505 186 506 195 q 507 163 509 168 q 505 152 505 159 q 507 131 505 144 q 502 111 509 118 q 509 104 505 106 q 513 96 514 103 q 504 91 507 95 q 494 92 500 87 q 487 80 490 85 q 484 68 484 75 q 471 64 477 69 q 457 58 464 60 q 431 60 444 56 q 406 68 419 65 q 399 92 406 88 q 396 107 393 95 q 395 122 389 117 q 389 129 400 127 q 398 134 393 132 q 407 141 403 137 q 408 164 407 152 q 414 187 410 176 q 416 208 416 197 q 422 228 415 218 q 421 238 420 231 q 418 247 422 245 q 431 266 422 256 q 433 281 431 277 q 413 281 426 279 q 395 277 400 282 q 385 281 388 277 q 378 285 382 285 q 345 283 366 285 q 312 279 323 282 q 295 286 305 286 q 278 285 285 285 q 273 277 275 281 q 271 267 271 273 q 268 257 270 262 q 262 251 266 252 q 264 235 266 244 q 256 220 262 227 q 255 202 259 209 q 251 186 251 195 q 252 163 255 168 q 251 152 250 159 q 253 131 251 144 q 248 111 255 118 q 255 104 251 106 q 259 96 259 103 q 249 91 252 95 q 239 92 245 87 q 233 80 236 85 q 231 68 231 75 q 216 64 222 69 q 203 58 210 60 q 177 62 190 57 q 152 69 164 66 q 145 92 151 88 q 141 107 140 95 q 140 123 134 118 q 136 129 145 127 q 143 134 138 132 q 152 141 148 137 q 159 187 152 163 q 161 208 163 197 q 167 228 160 218 q 166 238 165 231 q 163 247 167 245 q 169 258 165 252 q 178 266 172 263 q 180 285 176 274 q 143 287 161 286 q 107 281 125 288 q 98 286 103 286 q 87 288 92 285 q 78 296 81 290 q 68 304 75 302 q 62 323 65 313 q 49 338 58 332 q 55 351 50 345 q 56 363 60 357 q 71 366 62 365 q 81 376 79 368 q 97 372 88 374 q 107 380 106 370 q 125 374 118 377 q 138 376 136 374 q 142 378 140 377 q 177 375 165 374 q 201 373 189 376 q 205 397 205 385 q 203 418 206 408 q 209 427 206 419 q 214 446 212 435 q 218 465 217 456 q 220 479 220 475 q 224 487 225 481 q 229 495 224 492 q 229 511 224 503 q 237 526 235 519 q 239 541 240 533 q 240 556 237 549 q 234 559 241 560 q 218 556 227 557 q 203 555 210 555 q 194 555 197 555 q 165 555 174 557 q 145 553 156 552 q 130 558 137 555 q 113 563 122 562 q 102 587 106 574 q 92 612 98 600 q 106 634 100 623 q 126 650 111 646 q 170 644 146 647 q 213 642 193 642 q 229 648 220 643 q 247 654 239 652 q 264 653 255 655 q 281 654 273 651 q 285 663 283 658 q 283 674 286 669 q 289 682 288 677 q 296 690 290 688 q 297 705 294 693 q 304 731 300 718 q 313 756 308 745 q 321 770 319 768 q 323 783 321 783 q 327 787 326 784 q 333 801 332 793 q 340 815 334 808 q 339 824 338 819 q 344 833 340 829 q 352 842 347 838 q 359 846 357 846 q 387 844 376 852 q 414 830 399 836 q 416 814 412 817 q 420 808 419 812 q 419 789 422 799 q 407 777 416 780 q 406 765 406 772 q 400 757 407 758 q 399 742 400 745 q 393 738 397 739 q 393 722 396 727 q 385 707 389 716 q 384 693 382 701 q 382 678 385 685 q 378 671 381 674 q 373 663 376 667 q 389 665 381 665 q 407 665 397 665 q 436 656 420 662 q 465 662 452 651 q 502 661 484 661 q 538 663 519 661 q 543 682 543 677 q 549 690 544 688 q 551 705 548 693 q 559 731 555 718 q 568 756 563 745 q 575 770 572 768 q 578 783 576 783 q 582 787 581 784 q 587 801 586 793 q 595 815 589 808 q 598 833 590 822 q 613 846 606 845 q 642 844 631 852 q 669 830 654 836 q 671 814 667 817 q 674 808 674 812 q 674 789 677 799 q 661 776 671 780 q 661 765 661 772 q 655 757 662 758 q 653 742 655 745 q 648 738 651 739 q 647 722 651 727 q 640 707 643 716 q 638 691 637 700 q 636 674 639 682 q 655 673 643 673 q 674 667 667 674 q 690 672 684 671 q 700 671 696 673 q 709 667 704 670 q 722 661 713 665 q 736 656 728 658 q 751 650 745 655 q 762 629 761 642 q 760 605 762 616 m 506 571 q 480 571 494 568 q 456 568 467 574 q 437 571 450 570 q 408 572 423 572 q 381 570 393 572 q 368 564 369 568 q 346 567 359 571 q 342 559 345 563 q 336 552 339 556 q 334 536 338 540 q 328 529 331 533 l 330 514 l 321 480 q 320 461 321 464 q 311 449 309 453 q 308 442 313 445 q 309 422 309 426 q 305 415 308 418 q 305 406 304 410 q 308 399 307 403 q 296 373 298 384 q 313 374 311 372 q 324 377 316 377 q 332 376 328 378 q 340 374 336 374 q 349 376 345 374 q 358 377 354 377 q 372 374 365 377 q 387 370 380 370 q 398 372 393 370 q 410 374 403 374 q 435 370 429 377 q 454 373 441 362 q 460 397 460 385 q 457 418 460 408 q 463 427 460 419 q 469 446 467 435 q 473 465 472 456 q 475 479 475 475 q 479 487 480 481 q 483 495 477 492 q 483 511 477 503 q 491 526 488 519 q 493 541 494 533 q 495 555 492 548 q 501 562 498 557 q 506 571 505 567 z "},"$":{"ha":718,"x_min":49,"x_max":697,"o":"m 697 339 q 692 326 697 332 q 694 313 688 320 q 684 296 682 304 q 681 277 685 288 q 675 267 678 271 q 669 256 671 262 q 658 235 662 245 q 647 214 654 225 q 638 200 637 203 q 637 194 639 197 q 631 186 636 191 q 621 174 627 180 q 610 163 616 168 q 604 157 605 157 q 602 144 605 148 q 598 134 598 141 q 579 121 586 133 q 561 117 570 121 q 545 106 552 114 q 519 99 530 104 q 494 87 507 94 q 477 85 483 87 q 467 83 471 84 q 458 80 463 81 q 448 77 454 79 q 422 76 437 75 q 400 69 408 77 q 404 45 406 56 q 403 22 403 35 q 410 7 403 14 q 408 -9 416 1 l 420 -30 q 417 -39 418 -37 q 418 -47 416 -41 q 410 -56 414 -53 q 406 -66 407 -60 q 382 -80 392 -66 q 363 -80 373 -77 q 346 -81 354 -83 q 332 -72 336 -81 q 317 -61 328 -62 q 317 -51 320 -56 q 312 -41 313 -46 q 310 -30 309 -35 q 309 -19 311 -24 q 302 3 307 -8 q 298 24 298 14 q 300 36 298 31 q 296 46 302 41 q 300 62 298 53 q 296 77 301 71 q 264 85 283 84 q 231 84 245 85 q 206 101 220 92 q 182 110 193 110 q 162 130 174 122 q 137 142 151 137 q 131 156 138 153 q 122 168 123 159 q 103 168 113 167 q 102 178 104 175 q 96 184 99 182 q 87 187 92 186 q 80 191 83 189 q 80 201 81 197 q 77 212 79 206 q 71 225 71 222 q 69 231 72 228 q 64 238 66 235 q 60 245 61 241 q 56 269 56 256 q 49 290 57 281 q 56 328 54 313 q 72 350 57 343 q 75 357 72 355 q 75 365 77 359 q 114 404 99 381 q 130 414 123 407 q 140 427 136 420 q 155 433 146 431 q 165 444 163 435 q 194 454 189 449 q 210 461 199 458 q 223 466 218 467 q 231 467 228 465 q 243 473 239 469 q 253 478 248 476 q 264 479 258 480 q 278 472 270 479 q 294 472 289 475 q 307 467 298 469 q 325 460 321 465 q 335 458 328 454 q 363 412 346 431 q 376 397 377 401 q 382 395 376 392 q 382 360 384 374 q 380 336 381 346 q 361 311 365 320 q 346 298 357 301 q 324 274 339 282 q 301 257 315 262 q 281 259 288 252 q 271 265 275 266 q 264 267 267 264 q 258 278 260 279 q 255 279 256 277 q 249 296 250 286 q 252 313 248 307 q 265 332 258 328 q 278 336 273 335 q 282 353 277 346 q 281 368 288 361 q 253 375 273 378 q 228 361 233 372 q 218 357 222 363 q 210 350 214 351 l 195 342 q 182 336 184 339 q 174 334 180 332 q 163 313 171 321 q 145 296 155 304 q 149 275 142 279 q 163 259 156 270 q 174 231 163 239 q 190 209 184 224 q 198 209 195 212 q 205 206 201 206 q 212 197 205 199 q 224 191 218 195 q 233 182 231 182 q 239 180 236 182 q 257 174 252 172 q 267 174 262 175 q 277 168 273 171 q 286 163 281 164 q 305 168 305 174 q 309 163 305 163 q 325 170 323 171 q 330 168 327 168 q 346 169 339 168 q 361 163 353 170 q 386 164 381 167 q 397 160 391 161 q 432 167 422 167 q 452 175 442 167 q 481 176 471 172 q 500 185 492 179 q 512 197 507 191 q 525 206 517 203 q 528 216 526 213 q 528 225 529 218 q 555 252 547 233 q 574 285 563 270 l 574 302 q 579 311 578 305 q 587 316 581 316 q 588 323 585 320 q 593 332 591 327 q 592 340 594 335 q 590 350 590 346 q 592 363 590 357 q 587 373 594 370 q 591 397 594 384 q 582 420 587 410 q 582 441 587 431 q 570 458 576 450 q 554 507 568 491 q 525 548 540 524 q 504 553 514 549 q 483 557 494 557 q 470 569 472 567 q 465 574 468 571 q 418 575 442 572 q 372 571 395 578 q 357 578 361 574 q 340 579 353 582 q 325 587 330 589 q 315 586 320 586 q 291 593 300 593 q 278 594 282 594 q 270 592 274 594 q 262 589 266 590 q 231 589 247 586 q 199 589 214 591 q 179 589 183 587 q 171 591 175 591 q 158 591 164 593 q 145 591 152 590 q 132 596 137 593 q 117 597 127 600 q 109 606 115 604 q 100 616 103 609 q 91 619 92 613 q 80 623 90 625 l 80 642 q 71 661 69 654 q 65 665 72 667 l 65 680 q 52 701 58 692 q 54 714 57 708 q 52 727 50 720 q 57 749 58 745 q 57 758 56 754 q 66 783 60 770 q 68 807 73 795 q 74 813 68 814 q 83 812 80 812 q 88 825 85 819 q 94 837 91 830 q 106 854 100 850 q 122 868 111 859 q 127 876 125 871 q 137 880 130 882 q 153 896 142 891 q 165 914 163 901 q 185 920 178 914 q 199 935 193 925 l 224 937 q 234 942 227 937 q 244 948 241 947 q 254 951 248 951 q 258 959 259 952 q 280 958 270 952 q 293 977 290 963 q 293 985 294 979 q 290 996 292 991 q 292 1004 290 1000 q 293 1013 293 1008 q 292 1023 293 1019 q 290 1034 290 1028 q 294 1051 292 1043 q 296 1067 297 1059 q 307 1073 302 1067 q 317 1081 311 1078 l 335 1084 q 359 1082 351 1084 q 372 1078 368 1081 q 380 1070 376 1074 q 395 1062 384 1066 q 393 1048 389 1055 q 392 1034 397 1040 q 400 1013 400 1020 q 399 996 400 1005 q 397 980 397 987 q 395 968 396 972 q 407 960 397 960 q 420 954 416 960 q 445 958 433 959 q 468 953 457 958 q 490 942 479 948 q 511 932 500 936 q 519 924 519 929 q 525 917 519 920 q 545 907 530 918 q 564 891 560 897 q 567 883 567 887 q 570 875 567 879 q 576 863 576 867 q 579 857 575 859 q 576 843 576 850 q 572 829 575 836 q 560 820 566 825 q 548 812 555 815 q 536 801 537 800 q 530 804 534 802 q 516 806 524 804 q 502 807 509 808 q 498 821 503 818 q 486 831 492 825 q 481 846 488 844 q 468 854 473 848 l 449 860 q 433 865 434 857 q 429 872 433 872 q 416 872 423 873 q 403 871 410 871 q 399 866 401 865 q 393 869 396 867 q 386 871 389 871 q 380 868 382 872 q 365 869 369 864 q 351 868 361 873 q 337 871 345 875 q 323 869 330 867 q 306 869 316 871 q 284 864 296 867 q 262 857 273 861 q 247 849 252 853 q 239 843 241 846 q 231 837 236 840 q 222 833 228 834 q 213 829 216 831 q 205 821 208 826 q 202 810 203 815 q 190 804 193 811 q 179 795 187 796 q 173 779 176 787 q 163 766 170 770 q 161 751 164 761 q 156 730 157 741 q 158 712 155 720 q 176 701 161 704 q 192 685 179 692 q 208 675 205 678 q 240 677 224 675 q 273 678 256 678 q 281 676 277 678 q 289 675 285 674 q 300 679 296 675 q 312 682 305 682 q 338 679 331 680 q 351 670 345 678 q 370 669 361 673 q 389 665 380 666 q 404 665 396 663 q 418 665 411 666 q 429 662 425 663 q 439 659 433 661 q 454 660 446 658 q 468 659 461 662 q 488 648 480 656 q 505 648 496 654 q 522 648 514 643 q 559 623 537 632 q 601 608 581 614 q 625 577 616 590 q 647 553 635 564 q 650 541 647 544 q 658 532 652 538 q 659 524 661 528 q 658 517 656 521 q 668 490 666 495 q 669 475 670 484 q 673 463 671 468 q 681 454 675 457 q 682 437 678 445 q 686 420 686 429 q 684 401 686 410 q 684 381 682 392 q 690 360 685 370 q 697 339 696 350 z "},"%":{"ha":875,"x_min":20,"x_max":854,"o":"m 416 680 q 404 643 414 661 q 391 605 393 625 q 374 591 380 602 q 357 576 368 581 q 340 572 349 574 q 323 566 331 570 q 310 557 316 563 q 297 548 304 551 q 285 545 290 545 q 273 543 279 544 q 262 538 267 540 q 252 534 258 536 q 239 533 245 533 q 227 532 233 533 q 216 528 221 530 q 206 526 212 526 q 191 529 198 526 q 176 532 184 532 q 169 529 172 532 q 161 526 165 526 q 154 529 157 526 q 145 529 151 532 q 121 545 137 540 q 94 552 106 549 q 81 560 85 555 q 68 563 77 566 q 56 576 62 571 q 42 586 49 581 q 33 608 39 600 q 23 628 26 617 q 25 638 22 633 q 28 648 28 643 q 24 661 28 654 q 20 675 20 667 q 25 696 20 678 q 31 716 30 713 q 41 732 39 727 q 54 735 43 736 q 68 752 58 746 q 80 769 77 758 q 100 772 91 765 q 119 787 110 779 q 140 800 129 795 q 164 795 151 804 q 177 802 171 798 q 187 812 183 806 q 216 820 202 814 q 244 829 229 826 q 261 829 248 831 q 281 829 274 827 q 307 825 298 826 q 323 819 315 823 q 339 809 331 814 q 357 804 347 804 q 363 793 358 798 q 374 787 368 789 q 386 783 380 785 q 396 776 392 780 q 405 750 403 760 q 416 738 407 741 q 416 709 414 723 q 416 680 419 694 m 312 678 q 309 689 313 684 q 307 701 305 694 q 299 730 305 720 q 283 745 293 739 q 258 742 269 747 q 237 741 247 736 q 227 726 232 734 q 213 716 221 719 q 206 720 208 715 q 198 722 205 724 q 189 717 193 720 q 182 711 186 713 q 156 707 167 712 q 143 697 148 700 q 133 685 138 694 q 123 670 130 681 q 119 654 117 659 q 132 641 127 642 q 138 639 136 640 q 149 629 144 631 q 156 623 153 627 q 191 619 174 624 q 227 617 209 614 l 255 625 q 286 642 269 635 q 300 659 290 652 q 312 678 309 666 m 854 288 q 844 271 853 278 q 848 257 849 264 q 844 243 846 250 q 846 224 850 225 q 840 222 842 224 q 834 209 840 218 q 823 189 829 199 q 810 170 817 179 q 800 160 804 161 q 772 127 781 140 q 743 110 762 114 q 716 92 735 95 q 685 76 697 88 q 663 78 674 81 q 642 69 651 75 q 631 70 639 69 q 614 71 623 71 q 600 73 606 72 q 594 79 594 75 q 585 77 590 77 q 574 76 579 77 q 545 85 552 83 q 532 90 538 87 q 519 96 526 94 q 503 98 513 99 q 492 108 500 107 q 477 113 484 109 q 452 144 460 125 q 427 178 444 164 q 429 186 431 182 q 427 194 427 190 q 431 213 429 210 q 433 220 433 216 q 431 241 434 231 q 438 259 427 252 q 439 271 439 266 q 441 282 439 275 q 447 291 446 285 q 454 298 448 297 l 454 313 q 463 316 458 316 q 472 319 468 316 q 476 330 475 324 q 480 342 477 335 q 494 352 487 349 q 503 365 500 355 q 522 374 515 366 q 540 384 528 382 q 545 389 543 387 q 551 396 548 392 q 574 404 567 396 q 597 415 582 412 q 607 423 602 419 q 616 433 612 427 q 629 432 623 435 q 642 427 635 429 q 660 427 651 426 q 678 427 669 429 q 701 428 697 426 q 712 427 705 430 q 743 413 730 420 q 776 407 757 406 q 798 391 787 399 q 821 378 808 384 q 821 366 818 368 q 826 362 823 365 q 832 346 830 347 q 837 342 834 345 q 841 329 838 338 q 846 311 844 320 q 850 296 848 302 q 854 288 852 289 m 750 282 q 750 299 753 293 q 743 309 747 305 q 734 317 739 313 q 724 330 728 321 q 696 334 709 331 q 667 331 682 338 q 657 337 665 335 q 647 334 650 339 q 636 328 646 334 q 616 317 627 323 q 595 307 605 312 q 586 302 586 302 q 560 279 576 288 q 543 254 556 273 q 529 231 530 236 q 532 217 530 220 q 534 212 533 214 q 535 203 536 208 q 537 197 534 199 q 546 193 543 197 q 553 186 549 189 q 561 184 556 183 q 568 183 566 186 q 578 180 575 178 q 586 180 582 182 q 603 171 593 174 q 623 168 613 168 q 631 173 629 168 q 639 175 632 178 q 654 169 646 170 q 670 171 662 168 q 682 182 677 178 q 699 189 688 187 q 709 205 701 199 q 713 225 716 210 q 726 229 724 222 q 735 237 728 236 q 740 261 732 252 q 750 282 747 270 m 720 787 q 715 770 712 773 q 716 762 718 768 q 707 745 713 753 q 690 736 701 736 q 685 725 688 732 q 675 719 682 718 q 667 704 670 707 q 662 703 665 701 q 653 686 659 692 q 640 674 647 681 q 632 661 635 669 q 624 647 629 654 q 616 641 621 643 q 609 636 612 639 q 597 618 602 628 q 585 601 591 609 q 576 588 575 591 q 574 582 576 585 q 565 572 571 579 q 551 559 559 566 q 537 546 544 552 q 526 538 530 540 q 516 523 521 525 q 507 518 511 521 l 503 503 q 496 499 499 500 q 490 496 492 498 l 480 472 q 471 454 473 457 q 458 445 458 449 q 452 438 457 441 q 444 420 446 423 q 437 414 441 416 q 434 405 434 408 q 433 396 434 401 q 416 391 427 396 q 412 377 418 382 q 403 365 406 372 q 399 356 400 361 q 396 349 399 351 q 390 344 393 346 q 384 339 387 342 q 368 317 372 321 q 361 308 365 312 q 355 300 357 304 q 355 290 353 296 q 347 287 350 290 q 340 279 343 283 q 334 270 338 274 q 324 266 330 266 q 319 249 327 258 q 305 237 312 240 q 297 220 304 227 q 286 206 290 214 q 277 182 281 186 q 271 172 274 178 q 264 151 267 164 q 251 133 260 137 q 254 123 251 126 q 255 114 258 121 q 243 113 250 115 q 233 117 237 110 q 223 107 228 111 q 216 96 218 103 q 201 97 209 100 q 184 96 193 94 q 161 108 171 99 q 140 123 151 117 q 143 149 146 142 q 146 165 140 155 q 152 181 145 178 q 149 189 159 184 q 160 192 155 191 q 171 195 165 193 q 198 237 182 218 q 208 258 205 247 q 222 275 212 269 q 227 286 224 279 q 228 296 231 293 q 250 311 236 307 q 258 325 252 319 q 266 340 263 331 q 273 343 269 339 q 279 349 277 347 q 288 366 277 355 q 302 380 300 376 q 305 387 305 382 q 308 395 305 391 q 315 402 311 400 q 317 412 319 404 q 332 430 327 419 q 340 452 338 441 q 350 459 343 452 q 363 475 357 467 q 374 493 369 484 q 381 506 380 502 q 390 513 388 506 q 397 519 392 519 q 405 535 396 529 q 419 548 414 541 q 427 562 425 555 q 434 575 429 568 q 451 587 449 581 q 457 597 453 593 q 465 606 458 598 q 473 613 472 613 q 493 634 487 631 q 500 648 499 637 q 517 660 507 652 q 528 677 528 667 q 536 684 533 680 q 545 689 538 689 q 553 704 545 693 q 572 727 562 715 q 591 749 582 739 q 605 760 601 758 q 613 772 610 772 q 618 773 616 772 q 629 787 625 780 q 643 798 633 793 q 646 806 642 802 q 654 814 650 811 q 665 820 659 818 q 674 822 671 822 q 701 809 693 821 q 720 787 708 798 z "},"&":{"ha":765,"x_min":20,"x_max":746,"o":"m 745 33 q 732 20 738 26 q 723 7 727 14 q 703 -7 708 4 q 688 -6 694 -8 q 677 -2 682 -4 q 666 2 671 0 q 652 4 661 4 q 644 21 647 12 q 637 38 642 30 q 628 47 635 45 q 621 58 621 49 q 612 64 617 62 q 604 69 608 65 q 592 92 605 80 q 570 109 579 104 q 560 120 563 118 q 555 123 557 122 q 525 111 538 119 q 496 95 511 102 q 488 91 492 92 q 479 87 483 90 q 466 77 472 83 q 453 66 460 71 q 431 65 435 69 q 414 56 427 61 q 401 53 407 53 q 388 50 395 53 q 365 41 376 47 q 340 33 354 34 q 334 28 338 30 q 328 22 330 27 q 307 20 315 24 q 289 9 298 16 q 264 5 275 9 q 241 -3 252 1 q 218 -9 231 -7 q 190 -9 205 -12 q 173 -4 176 -3 q 167 -4 170 -5 q 146 10 160 4 q 127 16 133 16 q 119 30 125 24 q 108 39 114 35 q 96 47 102 43 q 85 58 90 52 q 75 57 79 56 q 65 61 72 58 q 47 87 58 76 q 28 113 37 99 q 26 142 30 127 q 20 171 23 156 q 27 205 31 187 q 28 240 23 222 q 37 255 38 254 q 37 259 35 256 q 42 269 43 266 q 42 277 41 273 q 50 292 49 288 q 54 300 50 297 q 54 310 54 304 q 57 319 54 316 q 65 328 60 326 q 68 342 71 331 q 96 373 85 354 q 119 393 111 380 q 141 415 127 407 q 144 422 140 422 q 145 430 148 423 q 154 435 151 433 q 161 441 157 438 q 179 486 175 464 q 205 506 191 496 q 216 534 218 515 q 236 543 233 537 q 241 555 239 549 q 235 569 241 566 q 232 585 229 572 q 218 606 220 600 q 210 616 216 613 q 203 638 208 632 q 195 651 198 644 q 194 666 193 661 q 187 680 195 671 q 184 692 186 684 q 180 710 182 701 q 176 727 178 719 q 172 738 174 735 q 168 750 164 746 q 175 758 172 754 q 176 773 178 766 q 175 787 175 780 q 182 810 186 793 q 187 815 184 812 q 193 821 190 818 q 195 829 195 825 q 198 838 195 834 q 214 852 205 848 q 229 865 222 857 q 252 888 241 883 q 270 899 262 894 q 283 910 278 903 q 294 922 288 917 q 307 926 300 925 q 320 930 313 926 q 332 936 327 937 q 340 940 338 935 q 363 938 358 935 q 372 943 368 941 q 384 939 380 941 q 397 937 388 936 q 424 946 403 948 q 456 943 445 944 q 462 936 458 940 q 468 928 465 932 q 494 918 484 925 q 518 903 503 910 q 549 871 536 884 q 575 846 562 857 q 578 832 575 840 q 583 817 581 825 q 585 802 585 810 q 578 789 585 795 q 574 772 581 777 q 570 753 567 766 q 561 746 567 753 q 549 732 555 739 q 537 717 543 724 q 530 707 532 709 q 520 700 524 704 q 510 693 517 696 q 503 680 509 685 q 496 665 498 674 q 468 638 480 654 q 437 616 456 623 q 419 591 426 598 q 411 571 412 583 q 401 566 404 571 q 391 560 397 560 q 380 547 384 555 q 369 537 377 540 q 372 522 369 530 q 376 507 374 511 q 381 500 378 502 q 388 495 384 498 q 397 486 392 492 q 410 469 407 475 q 427 449 412 463 q 437 425 430 429 q 448 415 444 422 q 451 404 450 411 q 458 396 452 397 q 459 384 457 388 q 465 377 461 380 q 471 370 468 374 q 473 361 473 366 q 492 341 486 354 q 507 319 498 328 q 517 298 510 300 q 528 279 524 296 q 533 274 529 275 q 541 271 537 273 q 543 264 540 266 q 544 256 545 262 q 553 250 549 254 q 564 245 557 247 q 586 274 579 255 q 603 294 597 282 q 621 313 609 307 q 625 340 624 324 q 635 363 625 357 q 638 389 637 382 q 635 415 639 396 q 643 433 644 429 q 640 444 642 438 q 650 448 647 446 q 661 444 654 449 q 694 453 680 449 q 726 441 708 457 q 735 426 732 434 q 745 412 738 418 q 741 402 742 408 q 740 390 741 396 q 737 379 739 384 q 731 373 735 374 q 732 353 735 362 q 728 332 728 343 q 726 308 730 313 q 726 298 723 302 q 718 294 719 298 q 711 288 716 290 q 706 271 708 281 q 694 259 704 262 q 692 247 697 250 q 684 237 688 244 q 668 219 670 225 q 663 209 666 213 q 656 205 661 206 q 652 197 652 203 q 640 183 640 190 q 635 174 640 176 q 642 163 635 164 q 646 149 648 161 q 654 144 648 145 q 663 140 659 142 q 677 121 666 127 q 692 103 689 115 q 716 81 707 95 q 742 61 726 68 q 743 47 741 54 q 745 33 746 39 m 463 776 q 474 786 471 779 q 477 802 477 793 q 471 815 476 810 q 456 821 465 821 q 456 829 463 826 q 456 837 450 833 q 439 841 448 833 q 427 844 433 844 q 414 846 420 844 q 394 850 397 852 q 388 849 391 849 q 378 852 382 849 q 369 852 374 854 q 355 840 363 845 q 340 831 347 834 q 331 830 336 829 q 320 831 326 831 q 311 817 319 821 q 297 806 302 812 q 292 795 293 802 q 283 789 290 789 q 280 772 285 779 q 281 755 275 765 q 272 750 273 757 q 274 734 271 743 q 280 715 277 724 q 286 704 283 707 q 286 687 279 694 q 286 673 292 680 q 300 645 296 662 q 320 623 304 628 q 332 629 334 628 q 331 636 330 631 q 340 640 338 635 q 349 644 342 644 q 364 662 355 655 q 377 680 373 669 q 387 686 384 681 q 397 693 391 692 q 407 707 400 701 q 416 722 414 713 q 435 738 427 728 q 448 758 442 747 q 457 766 454 761 q 463 776 460 770 m 484 194 q 481 205 487 202 q 471 214 475 209 q 448 244 458 229 q 422 271 437 259 q 406 302 419 290 q 403 315 407 311 q 397 327 399 320 q 388 330 392 327 q 380 336 384 334 q 370 359 377 349 q 359 381 362 369 q 352 384 357 384 q 346 389 347 384 q 336 407 343 401 q 328 423 330 412 q 317 431 323 427 q 307 441 311 434 q 307 450 309 448 q 301 457 304 452 q 281 445 282 452 q 273 433 279 438 l 258 423 q 246 411 248 418 q 244 401 244 404 q 229 387 237 395 q 224 368 220 378 q 212 359 217 365 q 203 349 208 354 q 194 338 199 343 q 179 332 189 334 l 172 319 q 165 308 170 316 q 156 291 161 300 q 146 275 151 282 q 141 267 142 269 q 139 255 142 260 q 138 243 136 250 l 127 209 q 119 189 119 203 q 119 165 119 174 q 127 155 123 160 q 136 146 130 151 q 141 135 134 138 q 145 121 148 132 q 159 114 152 118 q 170 103 167 110 q 178 102 175 106 q 187 98 182 99 q 195 98 191 96 q 203 98 199 99 q 212 94 208 96 q 221 90 216 91 q 234 92 229 90 q 250 90 239 94 q 256 96 251 95 q 266 100 262 98 q 302 110 285 102 q 338 121 319 118 q 344 129 338 127 q 354 134 350 130 q 361 134 357 134 q 369 132 366 134 q 384 140 373 140 q 397 152 395 141 q 413 155 406 146 q 427 165 420 163 q 444 169 438 163 q 460 174 449 175 q 472 184 463 182 q 484 194 481 186 z "},"'":{"ha":174,"x_min":20,"x_max":153,"o":"m 152 817 q 144 789 149 799 q 141 772 140 779 q 144 764 141 768 q 146 757 146 761 q 143 746 144 751 q 142 734 142 741 q 137 715 140 723 q 140 696 141 705 q 138 680 138 688 q 138 664 137 671 q 146 648 138 656 q 141 637 144 642 q 134 628 138 632 q 138 618 138 624 q 136 608 137 613 q 134 599 134 604 q 140 593 134 594 q 124 574 133 586 q 111 555 115 563 q 96 548 103 555 q 81 538 88 541 q 66 551 75 547 q 50 563 57 556 q 41 580 43 570 q 30 594 39 590 q 35 623 35 609 q 27 652 35 637 q 33 682 34 673 q 28 701 33 692 q 31 718 31 709 q 34 735 31 727 q 28 758 24 746 q 26 781 33 770 q 37 802 41 788 q 20 823 33 817 q 24 836 23 830 q 27 848 24 842 q 41 885 46 868 q 24 909 37 902 q 35 925 31 916 q 30 943 39 935 q 52 964 43 951 q 71 986 60 977 q 88 981 80 987 q 106 977 96 974 q 121 957 114 967 q 140 940 129 947 q 142 896 142 914 q 144 863 141 878 q 149 836 145 845 q 152 817 153 826 z "},"(":{"ha":300,"x_min":20,"x_max":362,"o":"m 362 1039 q 350 1035 357 1035 q 338 1029 343 1035 q 345 1015 342 1021 q 343 998 347 1008 q 316 993 328 994 q 297 977 304 991 q 276 966 282 971 q 267 955 270 960 q 262 942 264 949 q 252 925 259 935 q 237 911 241 911 q 235 902 236 905 q 241 897 235 899 q 231 888 235 894 q 221 879 228 882 q 212 860 216 864 q 204 850 208 856 q 197 840 201 845 q 187 834 194 836 q 179 795 187 810 q 167 761 171 781 q 168 751 165 755 q 172 741 170 746 q 157 707 163 724 q 153 670 152 689 q 147 656 145 665 q 141 642 149 648 q 142 634 138 636 q 144 627 145 632 q 138 620 140 624 q 133 613 136 616 q 132 599 133 608 q 130 581 130 590 q 129 565 129 572 q 133 553 129 557 q 128 544 126 551 q 130 532 130 537 q 127 511 129 522 q 119 491 125 499 q 122 483 122 488 q 125 475 122 477 l 125 446 q 126 429 123 438 q 122 412 129 419 q 121 393 125 397 q 117 384 118 389 q 119 375 115 376 q 125 369 123 374 q 125 326 119 347 q 127 282 130 305 q 131 274 126 277 q 136 264 136 271 q 131 258 132 264 q 132 246 130 252 q 137 235 133 240 q 145 231 141 229 q 137 203 138 213 q 144 186 136 194 q 144 168 137 175 q 156 152 151 161 q 161 118 152 132 q 167 90 171 104 q 172 81 171 87 q 175 69 172 75 q 183 52 178 60 q 193 35 189 45 l 193 12 q 213 -14 202 -4 q 214 -24 213 -20 q 218 -33 216 -27 q 233 -53 231 -47 q 239 -64 236 -58 q 248 -74 250 -72 q 250 -79 247 -76 q 262 -87 255 -84 q 275 -92 269 -90 q 284 -99 282 -95 q 297 -100 286 -103 q 298 -109 300 -107 q 307 -121 296 -110 q 300 -136 304 -138 q 294 -133 297 -134 q 275 -144 283 -138 q 260 -160 267 -151 q 242 -161 254 -161 q 227 -167 231 -161 q 208 -164 217 -164 q 190 -163 199 -164 q 176 -152 191 -152 q 166 -129 171 -134 q 159 -115 161 -123 q 149 -108 155 -111 q 141 -100 144 -104 q 125 -71 132 -83 q 121 -64 122 -68 q 114 -58 119 -60 q 113 -47 117 -52 q 104 -39 110 -43 q 99 -20 107 -27 q 88 -1 91 -12 q 83 14 80 9 q 88 23 85 18 q 82 35 81 26 q 80 52 83 45 q 73 62 77 58 q 65 72 69 66 q 64 98 69 85 q 57 123 58 110 q 51 132 54 129 q 45 140 47 136 q 45 157 46 145 q 43 180 45 168 q 40 201 42 191 q 34 217 38 212 q 33 242 37 237 q 28 254 28 247 q 30 271 28 263 q 28 288 31 279 q 24 315 22 308 q 26 330 26 323 q 23 351 26 340 q 20 372 20 361 q 26 389 22 381 q 28 407 30 397 q 25 446 20 430 q 34 472 30 461 q 33 484 34 479 q 31 496 31 490 q 29 509 33 498 q 26 525 26 521 q 31 551 26 538 q 39 576 37 563 q 39 586 41 582 q 39 594 38 590 q 44 616 45 612 q 45 624 43 620 q 52 652 54 651 q 49 659 49 652 q 54 673 50 666 q 52 686 57 680 q 60 690 57 688 q 65 696 62 693 q 65 710 65 701 q 62 722 65 719 q 69 747 69 736 q 70 760 68 760 q 73 764 72 761 q 73 775 75 769 q 80 780 72 781 q 81 790 77 788 q 88 798 85 792 l 94 821 q 102 829 100 823 q 110 837 103 834 q 121 875 113 857 q 136 911 130 892 q 146 937 141 926 q 145 951 151 947 q 176 996 167 972 q 193 1013 191 1002 q 205 1019 201 1015 q 216 1029 210 1023 q 229 1033 222 1031 q 237 1042 236 1035 q 250 1046 251 1040 q 252 1053 250 1051 q 269 1058 259 1055 q 286 1063 279 1061 q 292 1069 290 1066 q 300 1073 293 1072 q 307 1074 301 1073 q 321 1077 313 1076 q 336 1080 330 1078 q 346 1081 343 1081 q 357 1070 351 1073 q 355 1055 351 1059 q 362 1039 359 1050 z "},")":{"ha":327,"x_min":-35,"x_max":307,"o":"m 307 378 q 304 358 307 368 q 301 338 301 349 q 302 323 301 331 q 304 309 304 316 q 297 265 296 282 q 288 239 298 248 q 289 216 292 220 q 285 208 286 212 q 282 176 283 193 q 282 145 281 159 q 276 138 278 142 q 270 132 274 134 q 264 104 270 118 q 262 80 258 91 q 255 68 260 72 q 247 58 250 65 q 246 43 247 52 q 239 30 245 34 q 243 20 240 24 q 248 9 247 16 q 233 -9 239 -4 q 222 -22 228 -14 q 213 -53 210 -42 q 201 -66 205 -58 q 193 -83 197 -75 q 183 -98 189 -91 q 168 -107 178 -104 q 164 -118 171 -117 q 160 -129 157 -119 q 148 -140 148 -140 q 151 -146 148 -141 q 137 -157 136 -146 q 119 -159 127 -160 q 103 -163 111 -157 q 85 -157 96 -157 q 66 -155 75 -156 q 47 -136 57 -145 q 23 -132 38 -126 q 26 -108 20 -111 q 30 -95 31 -104 q 53 -89 42 -95 q 75 -76 64 -83 q 77 -68 77 -73 q 83 -61 77 -64 q 96 -43 91 -56 q 109 -30 102 -30 q 111 -19 109 -23 q 114 -8 114 -15 q 124 3 121 -4 q 134 15 127 9 l 134 38 q 142 54 140 46 q 151 69 144 62 q 153 81 153 72 q 160 92 153 90 q 159 108 157 100 q 165 122 161 115 q 170 136 168 129 q 171 155 172 144 q 178 168 174 163 q 186 179 183 172 q 190 208 191 198 q 191 225 189 217 q 187 239 182 239 q 194 244 193 239 q 197 259 191 251 q 191 270 202 267 q 195 278 191 275 q 199 285 198 281 q 197 305 197 294 q 199 327 198 316 q 202 349 201 338 q 202 372 203 361 q 205 377 202 374 q 209 384 208 380 q 209 393 210 388 q 199 404 208 397 q 201 440 198 425 q 210 465 203 456 q 206 473 212 472 q 202 480 201 473 q 197 534 199 514 q 199 547 197 540 q 194 556 201 553 q 197 585 201 566 q 194 616 194 604 q 183 631 189 627 q 180 660 179 651 q 174 675 182 669 q 174 689 175 680 q 169 709 172 699 q 161 730 165 720 q 155 743 157 739 q 159 753 156 749 q 160 764 161 758 q 149 798 157 783 q 140 837 141 814 q 134 843 140 842 q 126 848 129 844 q 103 871 117 868 q 96 892 99 886 q 85 899 94 898 q 91 906 88 905 q 90 914 94 907 q 76 931 83 925 q 66 941 69 937 q 50 972 60 964 q 30 982 41 979 q 24 990 28 987 q 18 998 20 993 q 0 1000 8 1000 q -16 1004 -8 1001 q -11 1032 -23 1020 q -22 1040 -14 1039 q -35 1044 -30 1040 q -28 1060 -33 1055 q -30 1076 -24 1065 q -19 1086 -24 1078 q -5 1084 -15 1085 q 13 1082 4 1084 q 29 1077 22 1080 q 38 1069 37 1074 q 48 1067 45 1070 q 57 1061 52 1065 q 66 1061 62 1062 q 75 1058 69 1059 q 84 1046 83 1043 q 90 1047 85 1048 q 98 1038 91 1040 q 111 1035 104 1036 q 121 1024 117 1028 q 134 1019 126 1020 q 151 1001 136 1008 q 155 991 151 997 q 163 978 159 985 q 173 966 168 971 q 182 959 178 960 q 180 945 179 955 q 182 930 180 936 q 186 924 182 928 q 191 917 190 920 q 203 885 198 897 q 213 863 209 873 q 219 842 216 852 q 233 826 222 833 q 239 807 231 819 q 247 787 248 795 q 252 780 254 785 q 254 769 251 774 q 258 744 256 755 q 264 730 260 732 q 262 707 260 720 q 275 690 263 694 q 273 679 270 684 q 278 667 277 674 q 277 657 278 662 q 278 647 275 652 q 280 635 278 636 q 282 631 282 633 q 283 624 283 628 q 282 616 282 620 q 287 605 283 610 q 290 594 290 600 q 295 559 290 571 q 301 532 300 547 q 299 520 301 525 q 296 509 297 515 q 296 501 294 505 q 296 494 297 498 q 296 469 293 473 q 301 457 300 464 q 302 435 302 450 q 298 415 301 419 q 302 397 300 406 q 307 378 305 389 z "},"*":{"ha":593,"x_min":20,"x_max":572,"o":"m 572 769 q 564 759 566 765 q 555 750 562 753 q 550 738 555 741 q 549 724 545 735 q 538 713 543 720 q 528 715 533 716 q 518 716 524 713 q 501 712 503 711 q 496 713 499 713 q 484 712 490 715 q 471 709 477 709 q 439 707 448 711 q 419 707 430 704 q 406 699 408 697 q 400 699 403 700 q 376 687 388 689 q 362 685 363 685 q 357 668 357 675 q 361 654 358 661 q 368 640 365 647 q 372 623 372 632 q 385 595 385 604 q 388 579 385 587 q 391 571 389 572 q 396 566 392 570 q 414 533 404 544 q 434 514 425 522 q 431 500 437 503 q 429 488 426 498 q 422 492 425 488 q 416 498 419 495 q 410 491 410 495 q 411 480 410 487 q 400 469 403 469 q 396 464 397 469 q 385 465 389 461 q 374 469 381 468 q 361 473 368 472 q 349 477 355 473 q 326 497 336 484 q 308 526 316 510 q 292 556 300 541 q 278 583 285 571 q 276 604 281 591 q 263 620 271 617 q 252 617 259 621 q 237 606 245 613 q 223 593 229 600 q 216 582 217 586 q 208 578 210 582 q 201 576 206 575 q 194 557 199 563 q 182 540 189 551 q 165 541 171 547 q 153 532 160 536 q 141 526 141 528 q 138 524 141 525 q 125 524 133 522 q 113 524 118 525 q 98 531 104 526 q 83 532 92 536 q 73 543 73 540 q 71 551 72 547 q 63 567 61 563 q 65 574 65 571 q 64 583 65 578 q 65 591 62 587 q 77 601 68 597 q 91 613 87 605 q 117 625 107 616 q 144 639 127 635 q 157 652 151 646 q 170 665 163 658 q 181 668 176 665 q 190 675 186 671 q 174 693 183 686 q 154 707 164 700 q 134 721 144 713 q 119 741 125 728 q 100 745 107 739 q 80 750 94 751 q 73 760 76 753 q 65 769 71 766 q 53 777 56 773 q 47 784 50 780 q 39 795 43 788 q 34 815 35 802 q 27 823 33 821 q 20 834 22 826 q 34 847 23 841 q 49 857 45 853 q 62 862 54 863 q 77 859 69 861 q 93 854 85 857 q 107 849 100 850 q 114 838 109 842 q 125 829 119 833 q 137 821 132 825 q 145 810 142 817 q 154 809 152 814 q 159 803 156 804 q 168 800 163 800 q 176 798 172 799 q 184 793 180 795 q 193 789 189 791 q 208 787 199 787 q 221 779 217 787 q 230 784 224 781 q 237 789 236 787 q 238 814 239 807 q 244 826 237 821 q 249 850 243 841 q 258 872 255 860 q 258 892 255 888 q 260 899 260 897 q 256 907 260 903 q 255 917 252 911 q 277 929 266 924 q 302 932 289 935 q 328 923 320 925 q 340 917 336 921 q 347 905 346 911 q 354 894 347 898 q 349 867 353 873 q 343 854 346 861 q 342 834 340 844 q 338 815 343 825 q 338 806 338 811 q 343 798 339 800 q 338 787 342 792 q 335 776 334 783 q 353 770 347 772 q 365 769 358 768 q 376 772 374 774 q 380 772 377 770 q 403 777 395 777 q 419 778 411 777 q 433 781 427 779 q 439 789 439 783 q 473 793 457 791 q 505 807 490 796 q 515 804 509 803 q 528 807 522 806 q 540 808 534 808 q 547 800 545 807 q 554 800 552 802 q 558 795 556 798 q 562 792 560 793 q 570 792 564 791 q 568 780 567 784 q 572 769 570 776 z "},"+":{"ha":651,"x_min":20,"x_max":633,"o":"m 631 425 q 629 406 633 412 q 625 388 624 399 q 612 378 618 384 q 601 365 605 373 q 591 363 597 362 q 581 362 586 365 q 555 356 563 355 q 538 354 547 357 q 517 351 524 349 q 507 347 511 353 q 494 351 500 350 q 481 347 488 353 q 454 351 473 351 q 427 347 435 350 q 418 340 422 345 q 410 336 414 336 q 411 327 408 330 q 416 319 414 324 q 419 296 416 308 q 435 282 422 285 q 431 276 434 277 q 427 269 427 275 q 433 250 430 254 q 438 243 437 247 q 435 231 438 239 q 441 222 431 222 q 437 214 441 216 q 433 209 433 213 q 443 191 442 195 q 448 186 444 186 q 448 176 445 182 q 448 164 450 171 q 450 146 457 151 q 435 136 442 142 q 434 126 437 130 q 433 115 431 122 q 418 106 426 109 q 411 92 411 103 q 401 93 406 98 q 391 90 396 88 q 376 94 380 95 q 370 95 373 92 q 359 104 359 102 q 357 110 359 107 q 347 119 354 115 q 336 129 339 123 q 326 151 331 145 q 323 164 320 157 q 329 189 327 182 q 331 203 331 197 q 329 227 331 213 q 334 248 327 240 q 323 280 330 264 q 312 313 316 296 q 309 328 309 320 q 308 345 309 336 q 295 351 298 354 q 286 350 292 349 q 279 352 282 350 q 271 354 275 354 q 253 351 262 355 q 235 347 244 346 q 218 347 221 349 q 212 345 214 345 q 201 345 205 343 q 190 347 197 347 q 161 331 172 336 q 141 331 149 326 q 127 324 134 330 q 104 320 121 319 q 90 311 100 316 q 79 312 85 311 q 65 315 72 313 q 54 321 58 317 q 50 328 49 324 q 39 335 41 328 q 30 345 37 342 q 26 364 33 358 q 22 381 20 370 q 31 393 31 391 q 34 399 31 396 q 48 406 45 404 q 56 410 52 408 q 64 409 60 411 q 73 410 69 407 q 88 416 80 412 q 102 425 96 419 q 120 423 111 425 q 138 425 129 422 q 172 433 161 433 q 190 441 183 433 q 209 440 199 438 q 227 435 218 442 q 239 441 233 438 q 252 446 245 444 q 273 442 260 439 q 294 446 286 445 q 294 460 297 453 q 292 469 292 467 q 292 481 294 477 q 289 487 289 484 q 290 527 290 513 q 283 555 290 541 q 290 572 288 560 q 286 589 292 583 q 292 597 289 594 q 294 606 296 600 q 311 616 305 609 q 326 628 317 623 q 366 617 349 625 q 396 589 382 609 q 392 559 399 574 q 385 529 385 544 q 390 511 392 514 q 388 506 388 509 q 392 497 389 500 q 396 490 395 494 q 393 477 393 484 q 388 467 392 471 q 413 446 400 445 q 435 446 426 446 q 463 444 456 442 q 476 446 469 446 q 498 441 488 445 q 524 448 509 437 q 545 450 534 448 q 557 467 555 453 q 577 465 568 460 q 597 469 586 471 q 593 461 598 463 q 591 453 589 460 q 602 446 594 446 q 614 444 609 445 q 631 425 620 434 z "},",":{"ha":250,"x_min":19,"x_max":235,"o":"m 224 -53 q 224 -77 228 -64 q 220 -100 220 -90 q 203 -117 210 -107 q 184 -129 195 -127 q 182 -140 180 -136 q 178 -152 184 -145 q 149 -153 161 -153 q 127 -161 137 -153 q 115 -159 121 -157 q 103 -157 109 -160 q 96 -149 98 -155 q 88 -138 94 -142 q 89 -129 87 -133 q 90 -119 91 -125 q 87 -106 90 -113 q 85 -94 84 -99 q 98 -77 88 -83 q 113 -64 107 -72 q 127 -60 121 -65 q 139 -49 134 -56 q 144 -35 144 -42 q 138 -20 144 -27 q 137 -7 140 -14 q 137 7 134 0 q 125 8 132 5 q 114 13 119 11 q 103 14 109 15 q 95 4 98 14 q 83 5 88 8 q 72 -1 79 1 q 60 8 66 5 q 49 16 54 11 q 39 16 43 19 q 30 15 35 14 q 22 35 26 33 q 22 42 19 38 q 26 50 23 49 q 33 54 30 50 q 36 82 31 68 q 45 110 41 96 q 67 119 54 119 q 90 130 80 119 q 111 129 99 125 q 130 123 122 133 q 141 116 141 118 q 144 111 141 114 q 153 108 148 109 q 161 104 157 107 q 187 83 178 98 q 212 58 197 69 q 227 3 218 28 q 224 -53 235 -22 z "},"-":{"ha":625,"x_min":35,"x_max":605,"o":"m 605 396 q 597 376 598 382 q 591 365 597 369 q 594 356 594 362 q 594 347 594 350 q 581 336 585 347 q 543 328 559 339 q 534 331 537 328 q 529 336 532 334 q 517 333 524 334 q 503 332 510 332 q 489 332 495 332 q 477 326 483 331 q 434 330 456 328 q 391 326 412 331 q 368 333 381 331 q 350 328 355 335 q 340 332 343 328 q 334 336 338 336 q 303 334 323 336 q 274 328 283 332 q 252 333 266 336 q 228 336 239 330 q 216 332 220 336 q 206 326 213 327 q 200 330 208 332 q 191 334 193 328 q 139 331 165 327 q 90 323 113 335 q 81 327 85 328 q 71 328 76 326 q 62 338 65 331 q 53 345 60 345 q 47 363 50 354 q 35 378 45 373 q 40 391 37 385 q 39 404 43 397 q 54 408 46 406 q 64 416 61 410 q 77 414 69 416 q 87 422 85 412 q 102 416 94 422 q 114 419 113 418 q 118 422 115 420 q 135 420 122 420 q 163 418 148 419 q 191 418 178 418 q 206 419 203 418 q 227 415 214 410 q 251 422 240 420 q 261 422 256 423 q 271 422 266 420 q 290 427 285 429 q 297 425 294 425 q 305 426 301 425 q 313 427 309 427 q 326 425 320 427 q 339 422 332 422 q 349 425 345 422 q 359 427 354 427 q 378 425 377 431 q 388 422 380 419 q 397 424 396 420 q 404 430 399 427 q 419 426 419 425 q 422 427 419 427 q 437 427 435 429 q 444 425 439 425 q 483 428 467 429 q 506 430 499 427 q 522 441 515 433 q 532 450 528 449 q 555 450 552 448 q 568 450 559 453 q 586 425 581 435 q 602 410 591 414 l 605 396 z "},".":{"ha":176,"x_min":20,"x_max":156,"o":"m 156 61 q 142 27 146 46 q 133 18 137 23 q 127 7 129 14 q 105 -8 110 -1 q 94 -19 100 -15 q 80 -14 84 -18 q 65 -12 76 -9 q 60 -5 64 -7 q 54 -1 57 -4 q 38 4 43 -1 q 23 12 33 9 q 24 22 24 14 q 24 41 24 31 q 23 60 24 52 q 20 69 22 68 q 26 74 26 69 q 34 77 27 79 q 34 90 33 84 q 37 103 35 96 q 52 113 47 109 q 60 123 57 117 q 94 125 77 133 q 127 115 110 118 q 131 109 126 110 q 133 100 136 107 q 149 84 145 96 q 156 61 152 72 z "},"/":{"ha":540,"x_min":20,"x_max":519,"o":"m 519 891 q 505 868 509 883 q 500 841 500 853 q 490 831 495 834 q 481 818 486 829 q 479 799 479 808 q 475 780 479 789 q 467 762 472 770 q 457 745 461 754 q 449 724 453 734 q 435 708 445 715 q 431 687 437 700 q 416 662 425 674 q 403 640 408 650 q 403 628 397 631 q 387 614 393 623 q 377 595 381 605 q 368 574 373 585 q 355 556 363 564 q 353 545 354 551 q 354 534 353 540 q 347 526 351 528 q 340 519 342 525 q 328 494 334 500 q 313 473 323 488 q 306 454 308 464 q 298 433 304 444 q 294 426 296 429 q 289 419 292 423 q 269 382 278 404 q 243 350 259 361 q 233 326 239 339 q 216 305 227 312 q 214 297 213 302 q 213 288 216 292 q 205 275 210 281 q 197 262 201 269 q 186 236 190 250 q 168 214 182 222 q 168 201 168 208 q 172 190 167 194 q 155 145 165 167 q 137 100 144 123 q 132 77 133 90 q 123 56 130 65 q 114 49 118 49 q 107 38 110 49 q 84 33 95 39 q 62 23 73 27 q 50 35 54 33 q 33 43 45 38 q 31 51 35 49 q 23 56 27 53 q 24 68 27 58 q 21 88 22 77 q 24 109 20 99 q 42 125 27 119 q 46 146 39 133 q 61 163 53 160 q 62 173 62 167 q 62 184 61 179 q 81 219 68 202 q 96 256 95 236 q 105 275 92 266 q 111 304 118 285 q 126 328 125 313 q 134 355 127 342 q 140 361 137 358 q 145 369 142 365 q 172 418 160 392 q 197 468 183 444 q 203 475 199 472 q 208 484 206 479 q 211 497 210 491 q 214 510 212 503 q 220 519 217 515 q 227 526 224 522 q 233 542 231 533 q 239 557 235 551 q 254 578 245 568 q 259 602 263 589 q 266 608 262 609 q 273 614 270 608 q 283 642 277 631 q 297 669 290 654 q 300 677 300 673 q 302 685 300 681 q 311 695 305 692 q 319 705 316 699 q 321 723 324 718 q 319 735 317 728 q 335 758 327 753 q 346 769 343 764 q 351 782 350 776 q 355 795 353 788 q 363 802 358 799 q 370 810 368 806 q 376 825 373 814 q 381 837 380 836 q 388 852 389 846 q 388 864 387 859 q 393 871 389 868 q 400 879 397 875 q 401 888 401 884 q 401 897 400 892 q 408 907 404 903 q 415 916 412 910 q 416 924 416 920 q 416 930 415 928 q 427 949 419 941 q 438 967 434 958 q 447 960 442 960 q 457 962 452 959 q 467 967 463 964 q 476 970 472 970 q 487 963 483 968 q 499 955 491 958 q 501 935 500 944 q 510 918 502 925 q 510 898 507 902 q 519 891 513 894 z "},":":{"ha":224,"x_min":33,"x_max":202,"o":"m 202 381 q 198 362 195 365 q 199 353 201 359 q 191 339 190 343 q 187 338 193 335 q 184 328 189 331 q 182 319 180 326 q 168 309 172 316 q 156 296 163 301 q 130 288 145 289 q 111 275 114 286 q 94 282 104 282 q 75 285 84 282 q 66 292 69 293 q 60 293 62 290 q 52 302 58 294 q 43 312 46 309 q 38 327 39 327 q 35 330 37 327 q 35 351 33 336 q 35 374 37 365 q 50 385 47 382 q 52 395 53 388 q 61 398 58 395 q 66 406 64 401 l 91 406 q 96 412 91 411 q 103 415 100 412 q 113 431 114 427 q 125 434 111 435 q 134 421 127 426 q 148 411 141 416 q 179 406 167 416 q 202 381 191 395 m 172 61 q 159 27 160 42 q 142 7 144 18 q 121 -8 126 -1 q 110 -19 117 -15 q 96 -14 100 -18 q 80 -12 92 -9 q 54 4 60 -1 q 39 12 49 9 q 41 22 41 14 q 40 41 41 31 q 39 60 39 52 q 37 69 38 68 q 50 90 47 84 q 52 103 52 96 q 68 113 62 109 q 76 123 73 117 q 110 125 94 133 q 142 115 126 118 q 146 109 142 110 q 148 100 151 107 q 163 84 160 96 q 172 61 167 72 z "},";":{"ha":269,"x_min":33,"x_max":254,"o":"m 202 381 q 198 362 195 365 q 199 353 201 359 q 191 339 190 343 q 187 338 193 335 q 184 328 189 331 q 182 319 180 326 q 168 309 172 316 q 156 296 163 301 q 130 288 145 289 q 111 275 114 286 q 94 282 104 282 q 75 285 84 282 q 66 292 69 293 q 60 293 62 290 q 52 302 58 294 q 43 312 46 309 q 38 327 39 327 q 35 330 37 327 q 35 351 33 336 q 35 374 37 365 q 50 385 47 382 q 52 395 53 388 q 61 398 58 395 q 66 406 64 401 l 91 406 q 96 412 91 411 q 103 415 100 412 q 113 431 114 427 q 125 434 111 435 q 134 421 127 426 q 148 411 141 416 q 179 406 167 416 q 202 381 191 395 m 243 -53 q 243 -77 247 -64 q 239 -100 239 -90 q 222 -117 229 -107 q 203 -129 214 -127 q 201 -140 199 -136 q 197 -152 203 -145 q 169 -153 182 -153 q 146 -161 156 -153 q 134 -159 140 -157 q 122 -157 127 -160 q 115 -149 117 -155 q 107 -138 113 -142 q 109 -129 107 -133 q 110 -119 110 -125 q 106 -106 109 -113 q 104 -94 103 -99 q 117 -77 107 -83 q 132 -64 126 -72 q 147 -60 140 -65 q 159 -49 155 -56 q 163 -35 163 -42 q 157 -20 163 -27 q 157 -7 159 -14 q 156 7 155 0 q 144 8 151 5 q 133 13 138 11 q 122 14 127 15 q 114 4 117 14 q 102 5 107 8 q 91 -1 98 1 q 79 8 85 5 q 68 16 73 11 q 58 16 62 19 q 49 15 54 14 q 41 35 45 33 q 41 42 38 38 q 45 50 42 49 q 52 54 49 50 q 55 82 50 68 q 64 110 60 96 q 86 119 73 119 q 109 130 99 119 q 130 129 118 125 q 149 123 141 133 q 160 116 160 118 q 163 111 160 114 q 172 108 167 109 q 180 104 176 107 q 206 83 197 98 q 231 58 216 69 q 245 3 237 28 q 243 -53 254 -22 z "},"<":{"ha":507,"x_min":35,"x_max":486,"o":"m 486 595 q 480 585 481 591 q 473 574 479 578 q 464 570 471 571 q 458 562 457 568 q 450 564 453 562 q 442 567 448 567 q 427 552 438 556 q 410 540 416 548 q 380 526 389 532 q 366 510 370 521 q 353 506 358 507 q 339 507 347 505 q 322 482 332 488 q 307 465 312 476 q 291 458 304 465 q 278 449 278 452 q 258 444 262 452 q 245 429 255 435 q 231 427 236 430 q 221 420 225 425 q 212 412 217 416 q 201 407 208 408 q 194 387 201 397 q 177 377 183 380 q 171 368 171 374 q 195 345 182 353 q 210 316 208 336 q 230 305 221 313 q 251 294 239 297 q 276 269 269 277 q 294 259 283 262 q 302 249 297 252 q 311 240 307 245 q 329 228 324 237 q 349 217 334 218 q 355 204 351 210 q 361 190 358 198 q 389 172 376 187 q 420 152 401 157 q 425 140 422 144 q 434 132 429 137 q 452 112 445 115 q 464 102 458 109 q 475 83 469 96 q 484 68 480 71 q 484 56 484 64 q 483 46 484 49 q 469 31 476 33 q 463 20 461 28 q 416 20 441 15 q 385 50 391 24 q 362 73 369 54 q 337 91 346 85 q 321 104 328 96 q 308 113 309 110 q 308 122 307 115 q 298 127 301 125 q 289 129 296 130 q 259 156 275 146 q 246 174 254 167 q 231 189 239 182 q 222 191 224 187 q 213 195 220 195 q 194 217 205 208 q 172 236 183 227 q 150 256 160 245 q 133 279 140 266 q 118 288 121 279 q 103 296 115 297 q 84 317 96 307 q 61 335 72 328 q 47 342 54 340 q 35 350 39 343 q 39 368 43 368 q 37 374 35 369 q 42 386 41 380 q 43 399 43 392 q 56 409 50 406 q 69 419 62 412 l 68 434 q 86 439 81 441 q 94 441 91 438 q 108 455 102 446 q 125 461 114 464 q 140 476 130 472 q 161 483 151 480 q 179 497 175 495 q 190 498 183 499 q 205 510 197 506 q 220 522 213 514 q 231 522 227 515 q 241 532 236 529 q 253 533 245 530 q 269 540 260 536 q 284 549 277 544 q 296 556 292 553 q 315 581 309 572 q 336 591 321 589 q 345 602 338 600 q 354 610 353 604 q 366 616 359 613 q 372 625 372 618 q 384 628 380 624 q 395 633 388 632 q 413 650 407 644 q 429 658 419 656 q 458 645 441 658 q 481 623 475 632 q 482 610 479 614 q 486 595 486 605 z "},"=":{"ha":696,"x_min":35,"x_max":675,"o":"m 673 487 q 659 467 669 475 q 637 454 648 458 q 605 451 627 449 q 572 456 583 453 q 512 454 536 454 q 465 454 488 454 q 458 456 463 454 q 450 458 454 458 q 436 454 444 457 q 422 452 429 452 q 401 452 411 450 q 381 450 392 454 q 364 453 377 452 q 337 454 351 454 q 311 452 323 454 q 297 445 300 449 q 282 449 290 452 q 266 446 274 446 q 249 445 263 446 q 232 445 235 444 q 184 444 209 449 q 145 437 160 439 q 129 437 130 435 q 123 438 127 438 q 105 435 114 438 q 85 434 96 433 q 70 439 77 435 q 54 444 62 442 q 44 467 47 454 q 35 492 41 480 q 48 515 42 503 q 68 530 54 526 q 110 524 84 528 q 151 524 136 521 q 166 528 157 524 q 182 534 175 533 q 196 535 189 536 q 210 534 203 534 q 240 536 232 536 q 258 537 248 536 q 296 545 277 541 q 335 545 316 548 q 363 538 349 544 q 391 544 378 533 q 458 544 425 543 q 469 547 464 545 q 481 548 475 548 q 494 547 486 548 q 506 544 503 547 q 524 552 515 548 q 541 562 533 556 q 568 555 552 552 q 590 549 583 557 q 606 554 600 553 q 616 553 612 555 q 625 549 620 552 q 637 543 629 547 q 652 538 644 540 q 665 532 659 537 q 675 510 674 522 q 673 487 675 498 m 651 311 q 644 292 648 301 q 636 279 639 282 q 638 271 639 277 q 637 262 637 266 q 624 251 628 262 q 603 252 613 252 q 582 245 593 251 q 575 248 578 245 q 568 254 572 251 q 540 251 556 247 q 514 245 524 255 q 469 250 491 248 q 423 248 446 251 q 399 256 412 254 q 380 252 385 259 q 370 256 373 252 q 363 260 368 260 q 331 259 353 260 q 300 255 309 258 q 277 260 292 263 q 251 264 262 258 q 238 260 241 266 q 228 255 235 255 q 221 260 229 262 q 212 263 213 258 q 157 262 184 256 q 104 256 129 267 q 95 260 100 262 q 85 262 90 259 q 76 271 79 264 q 66 278 73 278 q 61 298 64 289 q 49 313 58 308 q 54 326 50 320 q 54 339 58 332 q 69 342 61 340 q 80 351 77 343 q 94 348 85 350 q 104 355 103 346 q 113 353 110 354 q 121 350 117 351 q 134 351 132 350 q 138 354 136 353 q 165 351 157 350 q 182 350 174 351 q 206 347 194 349 q 231 349 218 345 q 254 343 240 338 q 278 350 267 349 q 289 349 283 350 q 300 349 294 347 q 319 353 315 354 q 327 350 323 351 q 336 351 332 350 q 345 353 340 353 q 358 349 351 353 q 372 346 365 346 q 382 349 377 346 q 393 350 388 351 q 412 349 411 354 q 423 345 412 345 q 433 347 433 345 q 441 351 434 349 q 456 347 456 346 q 460 349 457 349 q 475 347 473 349 q 481 345 477 345 q 523 347 506 349 q 548 347 540 345 q 564 359 557 351 q 575 368 571 366 q 600 366 597 363 q 614 366 604 369 q 632 340 627 351 q 648 324 637 328 l 651 311 z "},">":{"ha":492,"x_min":20,"x_max":472,"o":"m 472 350 q 460 342 468 343 q 445 335 452 340 q 422 317 434 328 q 404 296 411 307 q 389 288 392 297 q 374 279 385 279 q 357 256 368 266 q 336 236 347 245 q 313 217 324 227 q 294 195 302 208 q 285 191 288 195 q 275 189 282 187 q 260 174 267 182 q 248 156 254 167 q 218 129 232 146 q 208 127 210 130 q 199 122 205 125 q 199 113 201 115 q 195 104 197 110 q 169 91 178 96 q 157 75 160 85 q 122 50 140 54 q 91 20 117 24 q 45 20 65 15 q 38 31 45 28 q 30 35 31 33 q 22 56 23 49 q 23 68 22 64 q 33 83 27 71 q 42 102 38 96 q 54 112 47 109 q 68 122 61 115 q 81 140 77 137 q 87 152 84 144 q 119 172 106 157 q 146 190 132 187 q 153 204 149 198 q 159 217 156 210 q 178 228 174 218 q 195 240 183 237 q 205 249 199 245 q 213 259 210 252 q 231 269 222 262 q 248 282 239 277 q 276 305 267 297 q 297 316 285 313 q 312 345 300 336 q 335 368 324 353 q 330 377 335 374 q 326 389 324 380 q 308 396 311 392 q 305 407 305 400 q 294 412 298 408 q 286 420 290 416 q 277 427 282 425 q 262 429 271 430 q 248 444 251 435 q 228 449 244 452 q 216 458 229 452 q 199 465 203 465 q 184 482 194 476 q 167 495 175 488 q 154 506 159 505 q 141 510 149 507 q 127 526 136 521 q 111 540 118 532 q 79 552 91 548 q 65 567 68 556 q 57 564 60 567 q 49 562 54 562 q 43 570 50 568 q 33 574 37 571 q 27 585 28 578 q 20 595 26 591 q 25 610 22 605 q 24 623 28 614 q 49 645 33 632 q 79 658 65 658 q 94 650 87 656 q 110 643 100 644 q 123 628 119 632 q 136 625 127 624 q 142 616 136 618 q 153 610 148 613 q 162 602 155 604 q 171 591 170 600 q 191 581 184 589 q 209 568 198 572 q 223 549 216 553 q 239 540 231 544 q 254 533 247 536 q 266 532 262 530 q 275 522 271 529 q 286 522 279 515 q 302 510 293 514 q 317 498 311 506 q 328 497 324 499 q 338 495 332 495 q 367 476 357 480 q 381 461 377 472 q 399 455 392 464 q 412 441 406 446 q 420 439 416 438 q 426 434 425 441 l 438 419 q 451 409 445 412 q 464 399 457 406 q 465 386 464 392 q 471 374 467 380 q 469 356 468 359 q 472 350 469 353 z "},"?":{"ha":852,"x_min":4,"x_max":831,"o":"m 831 688 q 827 674 827 681 q 819 659 826 667 q 814 634 815 648 q 803 613 814 620 q 803 602 806 608 q 799 590 800 597 q 793 583 798 585 q 788 578 789 582 q 779 557 783 566 q 760 545 774 549 l 758 530 q 719 491 735 518 q 701 481 709 487 q 686 467 693 476 q 651 446 667 465 q 629 437 637 448 q 601 429 606 434 q 580 424 583 427 q 574 418 576 420 q 559 416 570 416 q 545 414 548 416 q 520 403 533 407 q 494 393 507 399 q 469 380 480 387 q 453 370 457 374 q 449 340 449 353 q 458 323 449 328 q 446 313 450 317 q 450 294 452 307 q 457 277 449 281 q 464 267 465 273 q 469 264 463 260 q 465 257 471 258 q 461 250 460 256 q 460 243 465 245 q 457 235 456 241 q 445 220 449 229 q 434 205 441 212 q 423 205 431 205 q 406 207 415 206 q 387 209 396 208 q 374 212 378 210 q 366 221 369 218 q 355 228 362 224 q 353 243 355 241 q 351 247 351 244 q 352 265 349 258 q 349 286 355 273 q 347 311 354 300 q 339 336 340 323 q 340 349 338 343 q 343 362 343 355 q 340 378 343 372 q 340 396 338 385 q 347 412 347 410 q 350 416 347 414 q 359 427 359 425 q 361 431 358 429 q 374 441 374 438 q 377 446 374 444 q 397 454 384 450 q 412 464 410 457 l 429 464 q 448 474 437 471 q 470 480 458 477 q 491 488 481 483 q 506 503 500 492 q 516 499 511 499 q 526 501 521 499 q 537 506 532 503 q 548 507 543 509 q 559 515 553 513 q 570 522 566 517 q 583 519 576 515 q 597 522 590 522 q 604 530 601 526 q 610 537 606 534 q 644 553 627 540 q 673 581 662 567 q 677 593 677 585 q 685 601 677 601 l 686 618 q 705 628 692 623 q 716 649 711 639 q 728 667 722 659 q 732 694 727 682 q 736 719 736 705 q 734 728 736 724 q 732 735 732 731 q 730 764 735 754 q 723 783 726 774 q 716 791 720 788 q 708 798 712 793 q 710 804 712 800 q 709 812 708 808 q 685 852 700 844 q 659 876 670 861 q 644 880 650 876 q 631 886 639 883 q 623 885 624 888 q 614 884 621 882 q 607 888 612 887 q 602 895 602 890 q 591 893 600 892 q 579 894 583 894 q 562 906 570 898 q 541 913 553 914 q 522 909 526 907 q 513 911 517 911 q 463 912 480 910 q 427 914 446 914 q 414 917 420 914 q 401 918 408 920 q 393 917 396 918 q 385 914 389 916 q 361 915 374 913 q 338 913 347 917 q 313 905 326 906 q 288 903 301 905 q 277 900 282 902 q 266 897 273 898 q 235 890 254 894 q 210 873 217 887 q 200 873 202 876 q 194 865 198 869 q 184 865 186 868 q 175 859 182 861 q 155 849 159 853 q 145 842 151 845 q 123 823 132 833 q 104 803 115 814 q 103 786 107 793 q 99 769 99 779 q 102 753 99 761 q 107 738 104 745 q 117 684 102 707 q 148 639 133 662 q 170 634 159 640 q 191 625 180 628 q 216 625 202 623 q 240 620 229 627 q 248 623 245 620 q 254 629 250 627 q 267 628 260 631 q 279 624 273 625 q 298 627 289 624 q 316 627 307 631 q 332 635 320 636 q 346 646 343 635 q 361 649 359 646 q 365 655 362 652 q 382 665 378 665 q 389 667 387 665 q 398 680 395 677 q 404 686 401 682 q 411 709 410 697 q 404 731 412 722 q 401 739 401 734 q 397 747 401 745 q 385 751 391 747 q 372 757 378 755 q 351 757 355 755 q 343 758 347 758 q 307 753 324 760 q 270 750 289 747 q 258 760 263 754 q 245 770 252 766 q 246 789 251 780 q 240 807 241 798 q 248 815 245 810 q 254 825 250 821 q 277 828 269 822 q 301 831 286 834 q 310 836 307 833 q 317 841 313 838 q 370 842 345 834 q 391 838 381 840 q 414 834 401 836 q 422 829 420 834 q 429 823 423 825 q 444 822 437 826 q 460 818 450 818 q 464 810 461 812 q 469 804 467 807 q 471 796 471 800 q 471 784 472 792 q 481 769 473 774 q 494 757 490 764 q 496 721 495 736 q 491 699 498 705 q 490 666 490 677 q 481 647 490 655 q 481 635 486 640 q 477 621 477 629 q 469 616 468 624 q 461 608 471 609 q 454 600 458 604 q 449 590 450 595 q 431 578 430 582 q 427 571 433 574 l 407 572 q 397 568 401 570 q 391 560 392 567 q 370 558 380 563 q 349 555 359 553 q 340 553 342 556 q 335 548 339 549 q 325 547 331 545 q 316 547 319 548 q 299 541 305 538 q 289 536 293 543 q 249 536 262 530 q 222 543 236 541 q 208 541 216 543 q 194 541 201 540 q 187 545 190 543 q 180 548 184 547 q 148 552 165 552 q 140 551 144 552 q 132 551 136 549 q 104 566 117 553 q 79 591 91 578 q 59 616 68 605 q 45 629 50 628 q 43 644 47 640 q 31 654 38 648 q 30 675 33 662 q 18 692 27 688 q 21 700 20 696 q 24 709 22 704 q 19 720 24 716 q 14 731 14 724 q 14 747 16 746 q 12 751 12 749 q 7 785 11 776 q 12 806 4 795 q 18 839 11 825 q 35 864 26 853 q 51 882 43 875 q 57 892 58 888 q 66 893 64 890 q 76 897 69 897 q 83 905 80 901 q 88 916 85 910 q 109 927 95 918 q 123 943 122 936 q 151 951 140 943 q 178 964 163 959 q 185 966 183 967 q 193 971 187 964 q 211 973 202 974 q 228 979 220 972 q 243 979 240 979 q 256 986 245 979 q 282 987 274 983 q 294 994 290 991 q 308 994 302 991 q 320 1000 313 996 q 363 1001 347 998 q 396 1002 380 1004 q 409 1000 403 1002 q 422 998 415 998 q 436 1000 429 998 q 450 1001 444 1001 q 462 1001 454 1001 q 477 1001 469 1001 q 492 1000 486 1001 q 502 998 499 1000 q 522 996 509 996 q 541 996 534 997 q 578 987 559 993 q 611 979 601 979 q 632 977 621 979 q 640 973 636 975 q 650 970 644 971 q 663 968 656 968 q 677 963 670 967 q 694 956 686 959 q 711 948 701 952 q 724 936 718 945 q 735 920 730 926 q 744 916 742 920 q 753 911 746 913 q 758 901 753 905 q 761 890 764 898 q 782 866 777 876 q 795 838 787 856 q 800 827 798 831 q 806 817 803 823 q 809 800 808 806 q 819 787 810 795 q 823 765 822 776 q 830 745 825 754 q 827 715 829 731 q 831 688 825 700 m 467 26 q 461 12 460 15 q 460 5 463 8 q 441 -7 446 1 q 425 -22 435 -16 q 393 -16 414 -19 q 366 -4 373 -14 q 350 24 354 9 q 346 41 346 38 q 353 59 346 52 q 358 77 359 66 q 374 78 369 75 q 388 85 378 81 q 410 85 399 83 q 431 83 420 88 q 435 75 433 79 q 433 66 438 71 q 442 59 437 62 q 453 53 448 56 q 458 38 456 46 q 467 26 460 30 z "},"@":{"ha":977,"x_min":20,"x_max":956,"o":"m 952 628 q 951 609 949 618 q 955 589 954 600 q 956 569 956 579 q 949 549 956 559 q 949 515 952 532 q 941 480 945 498 q 938 454 937 467 q 941 435 939 441 q 935 418 936 429 q 924 404 933 408 q 916 384 925 392 l 916 362 q 894 342 899 350 q 884 324 888 334 q 850 293 864 315 q 838 292 842 297 q 827 288 834 288 q 817 274 819 279 q 798 267 811 275 q 783 254 785 258 l 765 254 q 755 249 760 251 q 746 245 751 247 q 734 247 746 245 q 707 250 722 248 q 682 252 693 251 q 669 254 670 254 q 658 267 667 264 q 646 279 648 270 q 636 281 639 278 q 627 285 633 285 q 606 305 624 298 q 599 319 604 313 q 587 328 594 324 q 572 311 576 324 q 559 288 567 297 q 543 264 551 270 q 525 256 536 259 q 503 238 518 250 q 479 231 488 227 q 473 225 475 228 q 468 220 472 222 q 460 223 463 220 q 453 228 457 227 q 437 230 448 228 q 417 235 427 232 q 398 241 407 237 q 388 251 389 245 q 366 258 373 251 q 346 269 358 266 q 331 282 336 278 q 317 288 326 286 q 311 300 317 298 q 300 308 304 301 q 292 321 302 321 q 290 336 293 328 q 278 342 286 343 q 273 358 279 353 q 263 373 266 363 l 258 389 q 260 410 262 393 q 258 433 259 426 q 254 442 256 438 q 252 452 252 446 q 257 469 252 461 q 263 487 262 477 q 264 517 260 507 q 271 534 269 528 q 273 562 274 548 q 281 589 273 576 q 281 597 283 595 q 278 605 278 600 q 286 614 285 608 q 292 625 288 621 q 296 645 293 640 q 300 656 298 650 q 305 667 302 662 q 315 674 308 671 q 326 690 320 680 q 338 701 331 701 q 345 721 338 715 q 351 739 351 727 q 370 748 365 739 q 385 761 374 757 q 388 768 388 764 q 391 776 388 773 q 404 781 395 777 q 421 788 412 784 q 437 797 430 792 q 445 804 445 802 q 466 809 456 802 q 484 815 476 817 q 509 818 502 814 q 528 821 517 822 q 554 813 538 819 q 587 804 570 807 q 603 783 593 793 q 624 769 613 773 q 626 761 621 764 q 632 755 631 758 q 637 726 633 734 q 643 711 642 719 q 642 703 643 707 q 640 696 640 700 q 641 677 639 686 q 643 659 643 669 q 640 648 642 652 q 637 636 637 643 q 639 625 637 631 q 637 614 640 620 q 642 572 636 586 q 651 540 647 557 q 648 532 651 534 q 646 524 644 529 q 652 518 650 521 q 661 518 654 515 q 656 512 658 513 q 655 503 655 511 q 659 487 656 496 q 655 472 661 477 q 659 465 658 469 q 663 458 661 461 q 664 427 658 444 q 671 396 670 411 q 685 380 684 387 q 694 376 686 373 q 698 365 693 368 q 703 355 703 362 q 723 345 719 345 q 731 342 727 345 q 743 344 741 340 q 751 350 745 347 q 763 349 758 351 q 770 350 768 347 q 787 369 784 363 q 793 378 789 374 q 817 391 806 376 q 833 415 827 406 q 842 439 844 431 q 848 452 841 446 q 849 469 848 464 q 852 476 850 475 q 854 479 853 477 q 856 484 856 480 q 859 513 859 499 q 869 540 859 528 q 865 555 864 547 q 864 571 865 563 q 859 591 861 582 q 861 610 856 600 q 854 624 856 616 q 852 640 853 632 q 848 656 850 648 q 841 667 846 663 q 840 678 841 671 q 842 688 840 685 q 832 703 840 697 q 817 716 825 709 q 817 731 817 722 q 807 739 817 741 q 802 767 812 754 q 785 792 792 780 q 778 798 783 796 q 776 807 773 799 q 761 818 760 815 q 760 823 762 821 q 739 848 750 840 q 715 857 728 856 q 708 875 708 867 q 686 880 699 878 q 669 894 674 883 q 626 899 648 899 q 583 901 604 899 q 574 903 578 902 q 564 903 570 903 q 550 902 557 903 q 536 901 543 901 q 500 906 510 909 q 479 903 490 903 q 467 906 472 903 q 456 909 461 909 q 437 902 445 907 q 419 897 429 897 q 393 894 404 898 q 380 886 382 890 q 360 885 369 890 q 340 886 351 880 q 320 872 330 879 q 300 863 311 865 q 288 848 292 856 q 271 841 283 841 q 268 833 269 838 q 269 826 267 829 q 244 804 248 814 q 230 794 236 802 q 216 781 224 787 q 204 760 212 769 q 187 742 197 751 q 171 713 176 722 q 167 690 165 705 q 155 669 156 684 q 144 646 153 654 q 142 629 141 637 q 141 612 142 621 q 137 604 140 608 q 133 594 134 600 q 129 574 130 583 q 125 555 127 566 q 125 545 122 548 q 130 540 129 543 q 127 532 132 534 q 122 526 123 530 q 127 494 126 517 q 122 464 127 472 q 127 447 125 456 q 125 430 130 438 q 131 418 127 423 q 136 407 134 414 q 135 382 133 388 q 144 373 137 376 q 140 359 140 366 q 138 345 141 351 q 145 316 145 334 q 156 290 145 298 q 159 267 153 279 q 175 251 164 255 q 180 232 174 237 q 187 214 187 227 q 195 213 190 212 q 203 209 199 214 q 216 187 209 190 q 224 175 222 184 q 235 172 232 176 q 244 168 237 167 q 260 150 254 155 q 271 138 267 145 q 300 129 288 136 q 331 123 312 122 q 344 114 338 119 q 357 106 350 109 q 367 104 357 106 q 389 100 377 102 q 410 96 400 98 q 422 95 420 95 q 429 96 426 95 q 437 98 433 98 q 452 95 445 98 q 468 92 460 92 q 476 95 472 92 q 484 98 480 98 q 502 97 498 95 q 510 100 506 99 q 540 101 530 98 q 559 106 549 104 q 593 109 576 107 q 627 113 610 110 q 638 119 635 115 q 652 121 642 123 q 667 138 663 126 q 682 155 671 149 q 689 153 685 153 q 697 152 693 153 q 705 146 700 151 q 713 146 711 142 q 720 140 718 144 q 728 134 723 137 q 734 126 730 127 q 742 118 739 125 q 739 108 745 109 q 728 103 732 107 q 722 91 727 102 q 718 79 718 80 q 699 68 701 73 q 692 56 696 62 q 679 50 685 54 q 666 42 673 46 q 655 39 661 39 q 646 35 650 38 q 621 25 632 26 q 598 22 609 24 q 590 18 594 20 q 581 14 586 15 q 568 14 574 12 q 556 14 563 15 q 536 9 545 12 q 515 4 526 5 q 487 4 498 1 q 458 -4 476 7 q 431 1 445 3 q 403 1 418 0 q 393 1 397 3 q 385 1 388 0 q 372 7 382 1 q 362 16 362 14 q 332 16 345 14 q 304 24 319 18 q 283 35 289 35 q 273 35 278 34 q 269 42 273 41 q 262 45 266 43 q 254 47 258 46 q 250 53 251 49 q 229 50 236 50 q 223 59 229 57 q 213 64 217 61 q 204 70 208 71 q 198 72 201 69 q 159 102 178 84 q 119 132 141 121 q 117 146 122 144 q 94 172 107 165 q 68 217 88 197 q 64 241 66 228 q 49 259 61 254 q 51 275 53 266 q 47 293 49 285 q 42 316 37 305 q 40 323 42 320 q 37 331 38 327 q 34 352 34 342 q 31 373 34 362 q 27 382 30 378 q 23 391 24 387 q 26 412 22 401 q 20 430 31 422 q 26 453 31 445 q 20 472 22 461 q 22 479 20 476 q 23 487 23 483 q 23 512 20 507 q 26 524 26 517 q 23 538 26 532 q 20 552 20 545 q 25 567 22 560 q 26 581 28 574 q 33 593 31 585 q 35 608 34 601 q 37 622 35 616 q 47 628 39 628 q 46 642 45 636 q 50 655 47 648 q 54 669 53 662 q 54 688 56 677 q 58 695 53 694 q 65 699 62 696 q 67 716 64 708 q 71 735 71 724 q 77 743 73 739 q 83 750 80 747 q 85 759 84 755 q 85 769 87 762 q 94 775 92 769 q 99 787 96 781 q 109 803 107 796 q 117 810 110 810 q 122 831 119 823 q 133 836 129 831 q 144 838 137 840 q 157 850 152 842 q 172 860 163 857 q 178 871 174 867 q 184 883 183 876 q 208 899 197 891 q 221 922 218 906 q 237 937 233 924 q 254 942 241 937 q 269 943 267 947 q 283 951 277 945 q 300 956 289 956 q 304 962 302 959 q 309 968 305 966 q 351 969 327 964 q 388 987 374 974 q 429 992 408 986 q 465 997 450 998 q 528 990 499 994 q 542 986 534 987 q 556 985 549 985 q 572 994 563 994 q 591 991 581 994 q 611 987 601 989 q 629 991 621 985 q 649 979 635 981 q 674 982 663 978 q 692 968 681 971 q 715 968 704 964 q 724 964 718 962 q 734 963 731 966 l 746 954 q 762 945 761 948 q 770 945 764 943 q 783 927 779 929 q 791 922 788 925 q 806 903 803 910 q 814 894 808 895 q 823 884 825 886 q 822 880 822 883 l 836 869 q 849 851 848 857 q 864 836 850 845 q 873 812 867 829 q 887 795 879 796 q 889 779 887 785 q 901 770 891 773 q 903 753 899 755 q 910 747 906 750 q 909 741 907 745 q 910 732 911 736 q 918 716 917 726 q 929 704 920 707 q 930 687 928 693 q 939 673 933 681 q 940 655 933 661 q 941 639 947 650 q 947 633 944 636 q 952 628 949 631 m 552 521 q 549 543 553 533 q 541 563 544 552 q 539 602 537 582 q 544 642 541 623 q 541 650 541 646 q 538 659 540 655 q 543 692 544 670 q 533 724 541 715 q 522 722 528 722 q 510 719 517 722 q 502 724 505 722 q 492 724 499 726 q 477 715 486 718 q 465 704 468 713 q 458 701 463 701 q 450 699 453 701 q 438 684 444 692 q 431 667 433 675 q 418 661 422 667 q 406 654 415 654 q 380 614 396 629 q 380 604 378 608 q 382 594 382 601 q 377 585 378 590 q 369 576 376 579 q 363 547 368 562 q 365 518 358 532 q 352 480 354 505 q 357 441 350 456 q 352 418 349 433 q 354 393 355 404 q 367 378 359 382 q 372 359 374 374 q 382 355 378 359 q 393 350 385 350 q 397 337 392 339 q 406 328 403 335 q 418 326 412 328 q 431 324 425 323 q 458 311 441 313 q 474 322 464 313 q 487 336 484 331 q 488 345 490 340 q 490 355 487 350 q 497 373 496 368 q 499 384 498 378 q 500 391 500 388 q 499 399 499 395 q 503 409 500 403 q 505 418 505 415 q 504 432 502 427 q 502 441 506 437 q 508 457 506 450 q 507 475 510 464 q 515 488 513 480 q 521 503 517 496 q 552 521 540 510 z "}}}
